<?xml version="1.0" encoding="UTF-8"?><svg xmlns="http://www.w3.org/2000/svg" viewBox="0 0 340.86 128.27"><defs><style>.d{fill:#3e3d3c;}.e{fill:#ce2129;}</style></defs><g id="a"/><g id="b"><g id="c"><g><g><path class="d" d="M203.92,23.32c-.95-.49-1.69-1.19-2.22-2.09-.52-.9-.79-1.94-.79-3.11v-6.68c0-1.17,.26-2.2,.79-3.08,.52-.88,1.26-1.57,2.22-2.06,.95-.49,2.05-.73,3.29-.73s2.33,.24,3.27,.71,1.68,1.14,2.2,2,.79,1.86,.79,2.99v.03c0,.09-.03,.15-.08,.21-.05,.05-.11,.08-.18,.08l-1.96,.1c-.17,0-.26-.08-.26-.23v-.08c0-1.1-.34-1.99-1.03-2.66s-1.61-1.01-2.76-1.01-2.08,.33-2.77,1.01-1.04,1.56-1.04,2.66v6.86c0,1.1,.35,1.99,1.04,2.66,.7,.67,1.62,1.01,2.77,1.01s2.07-.34,2.76-1.01c.69-.67,1.03-1.56,1.03-2.66v-.05c0-.15,.09-.23,.26-.23l1.96,.1c.17,0,.26,.09,.26,.26,0,1.13-.26,2.14-.79,3-.52,.87-1.26,1.54-2.2,2.02-.95,.48-2.04,.72-3.27,.72s-2.33-.24-3.29-.73Z"/><path class="d" d="M227.16,18c0,.17-.09,.26-.26,.26h-8.22c-.07,0-.1,.03-.1,.1,0,.58,.05,1.03,.16,1.34,.19,.69,.57,1.22,1.15,1.61,.58,.39,1.3,.58,2.18,.58,1.27,0,2.25-.52,2.94-1.57,.09-.17,.2-.2,.33-.08l1.47,.98c.12,.1,.15,.22,.08,.33-.48,.77-1.16,1.38-2.05,1.83-.88,.45-1.89,.67-3,.67-1.25,0-2.31-.27-3.17-.82s-1.5-1.33-1.93-2.35c-.41-1.01-.62-2.24-.62-3.69,0-1.25,.09-2.21,.28-2.86,.31-1.19,.93-2.12,1.86-2.81s2.05-1.03,3.38-1.03c1.74,0,3.03,.43,3.89,1.3,.86,.87,1.38,2.14,1.57,3.83,.07,.71,.09,1.5,.08,2.37Zm-7.37-4.81c-.48,.37-.81,.86-.98,1.48-.12,.38-.2,.86-.23,1.44,0,.07,.03,.1,.1,.1h5.9c.07,0,.1-.03,.1-.1-.03-.57-.09-.99-.15-1.26-.17-.67-.51-1.21-1.02-1.61s-1.14-.61-1.9-.61-1.35,.19-1.83,.55Z"/><path class="d" d="M239.23,11.75c.83,.82,1.24,1.92,1.24,3.31v8.51c0,.17-.09,.26-.26,.26h-1.96c-.17,0-.26-.09-.26-.26V15.55c0-.86-.25-1.56-.75-2.09-.5-.53-1.16-.8-1.99-.8s-1.47,.27-1.99,.8-.77,1.22-.77,2.06v8.04c0,.17-.09,.26-.26,.26h-1.96c-.17,0-.26-.09-.26-.26V10.96c0-.17,.09-.26,.26-.26h1.96c.17,0,.26,.09,.26,.26v.93s.01,.06,.04,.08c.03,.02,.05,0,.06-.03,.74-.94,1.83-1.42,3.27-1.42s2.53,.41,3.35,1.22Z"/><path class="d" d="M249.95,12.74h-2.78c-.07,0-.1,.03-.1,.1v6.83c0,.72,.16,1.24,.49,1.56,.33,.32,.83,.48,1.52,.48h.75c.17,0,.26,.09,.26,.26v1.6c0,.17-.09,.26-.26,.26-.55,.03-.95,.05-1.19,.05-1.31,0-2.29-.24-2.95-.71-.66-.47-.99-1.34-.99-2.62v-7.71c0-.07-.04-.1-.1-.1h-1.57c-.17,0-.26-.09-.26-.26v-1.52c0-.17,.08-.26,.26-.26h1.57c.07,0,.1-.03,.1-.1v-3.04c0-.17,.08-.26,.26-.26h1.86c.17,0,.26,.09,.26,.26v3.04c0,.07,.03,.1,.1,.1h2.78c.17,0,.26,.09,.26,.26v1.52c0,.17-.09,.26-.26,.26Z"/><path class="d" d="M260.24,10.91c.12,.05,.16,.15,.13,.31l-.41,1.93c-.02,.15-.12,.21-.31,.15-.29-.12-.64-.18-1.03-.18l-.36,.03c-.81,.03-1.47,.31-2,.84-.52,.52-.79,1.21-.79,2.05v7.53c0,.17-.09,.26-.26,.26h-1.96c-.17,0-.26-.09-.26-.26V10.96c0-.17,.09-.26,.26-.26h1.96c.17,0,.26,.09,.26,.26v1.37c0,.05,.01,.08,.04,.09,.03,0,.05,0,.06-.04,.77-1.2,1.83-1.8,3.17-1.8,.55,0,1.05,.11,1.5,.33Z"/><path class="d" d="M270.37,10.7h1.93c.17,0,.26,.09,.26,.26v12.61c0,.17-.09,.26-.26,.26h-1.93c-.17,0-.26-.09-.26-.26v-.95s-.01-.06-.04-.06c-.03,0-.06,0-.09,.04-.69,.95-1.74,1.42-3.17,1.42-.84,0-1.62-.16-2.33-.49-.71-.33-1.29-.81-1.71-1.44-.43-.64-.64-1.41-.64-2.32V10.96c0-.17,.09-.26,.26-.26h1.93c.17,0,.26,.09,.26,.26v8.02c0,.89,.24,1.6,.71,2.11s1.14,.77,2,.77,1.55-.26,2.06-.79,.77-1.22,.77-2.1V10.96c0-.17,.09-.26,.26-.26Z"/><path class="d" d="M292.65,11.7c.76,.78,1.13,1.87,1.13,3.26v8.61c0,.17-.09,.26-.26,.26h-1.93c-.17,0-.26-.09-.26-.26V15.47c0-.86-.24-1.54-.71-2.05s-1.1-.76-1.9-.76-1.43,.25-1.93,.75c-.5,.5-.75,1.17-.75,2.01v8.15c0,.17-.09,.26-.26,.26h-1.93c-.17,0-.26-.09-.26-.26V15.47c0-.86-.24-1.54-.71-2.05-.47-.51-1.1-.76-1.9-.76s-1.42,.25-1.89,.75c-.47,.5-.71,1.17-.71,2.01v8.15c0,.17-.09,.26-.26,.26h-1.96c-.17,0-.26-.09-.26-.26V10.96c0-.17,.09-.26,.26-.26h1.96c.17,0,.26,.09,.26,.26v.88s.01,.06,.04,.08c.03,.02,.06,0,.09-.03,.76-.91,1.86-1.37,3.3-1.37,.88,0,1.62,.17,2.24,.5s1.1,.83,1.44,1.48c.05,.07,.1,.07,.16,0,.41-.67,.96-1.17,1.64-1.5s1.43-.49,2.26-.49c1.31,0,2.34,.39,3.09,1.17Z"/><path class="d" d="M211.41,51.58l-3.61-7.71c-.02-.05-.05-.08-.1-.08h-3.71c-.07,0-.1,.03-.1,.1v7.61c0,.17-.09,.26-.26,.26h-1.96c-.17,0-.26-.09-.26-.26v-17.53c0-.17,.09-.26,.26-.26h6.94c1.03,0,1.94,.21,2.72,.64s1.39,1.03,1.82,1.8,.64,1.67,.64,2.68c0,1.2-.31,2.22-.94,3.06-.63,.83-1.5,1.4-2.62,1.69-.07,.03-.09,.08-.05,.13l3.74,7.73s.03,.08,.03,.13c0,.12-.07,.18-.21,.18h-2.04c-.14,0-.23-.06-.28-.18Zm-7.53-15.62v5.77c0,.07,.03,.1,.1,.1h4.31c.91,0,1.64-.27,2.19-.81s.83-1.26,.83-2.15-.28-1.64-.83-2.19c-.55-.55-1.28-.83-2.19-.83h-4.31c-.07,0-.1,.03-.1,.1Z"/><path class="d" d="M218.58,51c-.95-.64-1.61-1.54-1.99-2.69-.31-.93-.46-1.98-.46-3.15s.15-2.25,.44-3.09c.38-1.13,1.04-2.02,1.99-2.67,.94-.64,2.07-.97,3.38-.97,1.24,0,2.32,.32,3.24,.97,.92,.64,1.58,1.53,1.97,2.64,.31,.88,.46,1.91,.46,3.09s-.15,2.26-.46,3.17c-.38,1.15-1.03,2.05-1.96,2.69-.93,.64-2.02,.97-3.27,.97s-2.38-.32-3.33-.97Zm5.13-1.75c.52-.39,.88-.93,1.11-1.64,.19-.65,.28-1.46,.28-2.42s-.09-1.76-.26-2.4c-.22-.7-.59-1.25-1.11-1.64s-1.14-.58-1.88-.58-1.32,.19-1.83,.58-.88,.93-1.11,1.64c-.19,.6-.28,1.4-.28,2.4s.09,1.8,.28,2.42c.21,.71,.57,1.25,1.1,1.64s1.16,.58,1.9,.58c.69,0,1.29-.19,1.8-.58Z"/><path class="d" d="M229.56,51.5v-1.8c0-.12,.03-.22,.1-.31l6.83-8.35s.04-.06,.03-.09c-.02-.03-.04-.04-.08-.04h-6.5c-.17,0-.26-.09-.26-.26v-1.75c0-.17,.09-.26,.26-.26h9.31c.17,0,.26,.09,.26,.26v1.83c0,.12-.04,.22-.1,.31l-6.93,8.35s-.04,.06-.03,.09c.02,.03,.04,.04,.08,.04h6.75c.17,0,.26,.09,.26,.26v1.73c0,.17-.09,.26-.26,.26h-9.46c-.17,0-.26-.09-.26-.26Z"/><path class="d" d="M244.59,51.55l-3.71-12.63-.03-.08c0-.14,.08-.21,.26-.21h2.01c.15,0,.25,.08,.28,.23l2.45,9.36s.04,.05,.06,.05,.05-.02,.06-.05l2.5-9.36c.03-.15,.13-.23,.28-.23h1.78c.16,0,.25,.08,.28,.23l2.55,9.33s.04,.05,.06,.05,.05-.02,.06-.05l2.55-9.33c.03-.15,.13-.23,.28-.23l1.99,.03c.09,0,.15,.03,.19,.08,.04,.05,.06,.12,.04,.21l-3.74,12.61c-.05,.14-.15,.21-.28,.21h-2.01c-.14,0-.23-.07-.28-.21l-2.53-8.71s-.04-.05-.06-.05-.05,.02-.06,.05l-2.4,8.69c-.03,.15-.13,.23-.28,.23h-2.04c-.14,0-.23-.07-.28-.21Z"/><path class="d" d="M262.33,51c-.95-.64-1.61-1.54-1.98-2.69-.31-.93-.46-1.98-.46-3.15s.15-2.25,.44-3.09c.38-1.13,1.04-2.02,1.99-2.67s2.07-.97,3.38-.97c1.24,0,2.32,.32,3.24,.97,.92,.64,1.58,1.53,1.97,2.64,.31,.88,.46,1.91,.46,3.09s-.16,2.26-.46,3.17c-.38,1.15-1.03,2.05-1.96,2.69s-2.02,.97-3.27,.97-2.38-.32-3.33-.97Zm5.13-1.75c.52-.39,.89-.93,1.11-1.64,.19-.65,.28-1.46,.28-2.42s-.09-1.76-.26-2.4c-.22-.7-.59-1.25-1.11-1.64s-1.14-.58-1.88-.58-1.31,.19-1.83,.58-.89,.93-1.11,1.64c-.19,.6-.28,1.4-.28,2.4s.09,1.8,.28,2.42c.21,.71,.57,1.25,1.1,1.64,.52,.39,1.16,.58,1.89,.58,.69,0,1.29-.19,1.8-.58Z"/><path class="d" d="M271.4,56.84v-1.6c0-.17,.09-.26,.26-.26,.98,0,1.69-.2,2.13-.59,.44-.4,.66-1.02,.66-1.88l-.03-13.61c0-.17,.09-.26,.26-.26h1.96c.17,0,.26,.09,.26,.26v13.59c0,1.13-.17,2.04-.52,2.71-.34,.67-.89,1.16-1.65,1.47-.76,.31-1.78,.46-3.07,.44-.17,0-.26-.09-.26-.26Zm3.07-20.73c-.31-.31-.46-.7-.46-1.19s.15-.88,.46-1.19c.31-.31,.7-.46,1.19-.46s.9,.15,1.2,.45c.3,.3,.45,.7,.45,1.2s-.16,.88-.46,1.19c-.31,.31-.71,.46-1.19,.46s-.88-.15-1.19-.46Z"/><path class="d" d="M288.55,38.64h1.93c.17,0,.26,.09,.26,.26v12.61c0,.17-.09,.26-.26,.26h-1.93c-.17,0-.26-.09-.26-.26v-.95s-.01-.06-.04-.06c-.03,0-.06,0-.09,.04-.69,.95-1.74,1.42-3.17,1.42-.84,0-1.62-.16-2.33-.49-.71-.33-1.29-.81-1.71-1.44-.43-.64-.64-1.41-.64-2.32v-8.79c0-.17,.09-.26,.26-.26h1.93c.17,0,.26,.09,.26,.26v8.02c0,.89,.24,1.6,.71,2.11s1.14,.77,2,.77,1.55-.26,2.06-.79,.77-1.22,.77-2.1v-8.02c0-.17,.09-.26,.26-.26Z"/><path class="d" d="M211.24,62.27c.8,.44,1.42,1.05,1.86,1.84,.44,.79,.66,1.7,.66,2.73s-.22,1.93-.67,2.71c-.45,.77-1.08,1.38-1.9,1.81s-1.76,.64-2.82,.64h-4.54c-.07,0-.1,.03-.1,.1v7.32c0,.17-.09,.26-.26,.26h-1.96c-.17,0-.26-.09-.26-.26v-17.56c0-.17,.09-.26,.26-.26h6.96c1.05,0,1.97,.22,2.77,.66Zm-.83,6.87c.58-.57,.86-1.31,.86-2.24s-.29-1.71-.86-2.28-1.34-.86-2.28-.86h-4.31c-.07,0-.1,.03-.1,.1v6.03c0,.07,.03,.1,.1,.1h4.31c.94,0,1.71-.28,2.28-.85Z"/><path class="d" d="M223.37,66.77c.12,.05,.16,.16,.13,.31l-.41,1.93c-.02,.15-.12,.21-.31,.15-.29-.12-.64-.18-1.03-.18l-.36,.03c-.81,.04-1.47,.31-2,.84-.53,.52-.79,1.21-.79,2.05v7.53c0,.17-.09,.26-.26,.26h-1.96c-.17,0-.26-.09-.26-.26v-12.61c0-.17,.09-.26,.26-.26h1.96c.17,0,.26,.09,.26,.26v1.37c0,.05,.01,.08,.04,.09,.03,0,.05,0,.06-.04,.77-1.2,1.83-1.8,3.17-1.8,.55,0,1.05,.11,1.5,.33Z"/><path class="d" d="M224.51,79.43v-1.8c0-.12,.03-.22,.1-.31l6.83-8.35s.04-.06,.03-.09c-.02-.03-.04-.04-.08-.04h-6.5c-.17,0-.26-.09-.26-.26v-1.75c0-.17,.09-.26,.26-.26h9.31c.17,0,.26,.09,.26,.26v1.83c0,.12-.03,.22-.1,.31l-6.94,8.35s-.04,.06-.03,.09c.02,.03,.04,.04,.08,.04h6.75c.17,0,.26,.09,.26,.26v1.73c0,.17-.09,.26-.26,.26h-9.46c-.17,0-.26-.09-.26-.26Z"/><path class="d" d="M247.61,73.86c0,.17-.09,.26-.26,.26h-8.22c-.07,0-.1,.04-.1,.1,0,.58,.05,1.03,.16,1.34,.19,.69,.57,1.22,1.15,1.61,.58,.39,1.3,.58,2.18,.58,1.27,0,2.25-.52,2.94-1.57,.09-.17,.2-.2,.33-.08l1.47,.98c.12,.1,.15,.21,.08,.33-.48,.77-1.16,1.38-2.05,1.83-.88,.45-1.89,.67-3,.67-1.25,0-2.31-.28-3.17-.83s-1.5-1.33-1.93-2.35c-.41-1.01-.62-2.24-.62-3.69,0-1.25,.09-2.21,.28-2.86,.31-1.19,.93-2.12,1.86-2.81s2.05-1.03,3.38-1.03c1.74,0,3.03,.43,3.89,1.3s1.38,2.14,1.57,3.83c.07,.7,.09,1.5,.08,2.37Zm-7.37-4.81c-.48,.37-.81,.86-.98,1.48-.12,.38-.2,.86-.23,1.44,0,.07,.03,.1,.1,.1h5.9c.07,0,.1-.03,.1-.1-.03-.57-.09-.99-.15-1.26-.17-.67-.51-1.21-1.02-1.61-.51-.4-1.14-.61-1.9-.61s-1.35,.18-1.83,.55Z"/><path class="d" d="M267.2,67.56c.76,.78,1.13,1.87,1.13,3.26v8.61c0,.17-.09,.26-.26,.26h-1.93c-.17,0-.26-.09-.26-.26v-8.1c0-.86-.24-1.54-.71-2.05-.47-.51-1.1-.76-1.89-.76s-1.44,.25-1.93,.75-.75,1.17-.75,2.01v8.15c0,.17-.09,.26-.26,.26h-1.93c-.17,0-.26-.09-.26-.26v-8.1c0-.86-.24-1.54-.71-2.05-.47-.51-1.1-.76-1.89-.76s-1.42,.25-1.9,.75c-.47,.5-.71,1.17-.71,2.01v8.15c0,.17-.09,.26-.26,.26h-1.96c-.17,0-.26-.09-.26-.26v-12.61c0-.17,.09-.26,.26-.26h1.96c.17,0,.26,.09,.26,.26v.88s.01,.06,.04,.08c.03,.02,.06,0,.09-.03,.76-.91,1.86-1.37,3.3-1.37,.88,0,1.62,.17,2.24,.5,.62,.33,1.1,.83,1.44,1.48,.05,.07,.1,.07,.15,0,.41-.67,.96-1.17,1.64-1.5,.68-.33,1.43-.49,2.26-.49,1.31,0,2.34,.39,3.09,1.17Z"/><path class="d" d="M270.58,84.56v-1.52c0-.17,.09-.26,.26-.26h.05c.69-.02,1.23-.1,1.62-.26s.72-.44,.98-.86c.26-.42,.51-1.05,.75-1.9,.02-.02,.02-.07,0-.15l-4.31-12.76-.03-.1c0-.12,.08-.18,.23-.18h2.09c.15,0,.26,.07,.31,.21l2.91,9.72s.04,.05,.08,.05,.06-.02,.08-.05l2.89-9.72c.05-.14,.15-.21,.31-.21h2.04c.19,0,.26,.09,.21,.28l-4.69,13.74c-.4,1.19-.79,2.07-1.19,2.64s-.91,.98-1.55,1.22c-.64,.24-1.53,.36-2.68,.36h-.18c-.12,0-.18-.09-.18-.26Z"/><path class="d" d="M284.23,79.38c-.78-.31-1.39-.73-1.82-1.28-.43-.54-.64-1.14-.64-1.79v-.28c0-.17,.09-.26,.26-.26h1.86c.17,0,.26,.09,.26,.26v.13c0,.48,.26,.9,.79,1.26,.52,.36,1.19,.54,2,.54s1.4-.17,1.88-.5c.48-.33,.72-.76,.72-1.28s-.22-.87-.67-1.12-1.17-.51-2.17-.79c-.98-.27-1.8-.55-2.46-.84-.66-.28-1.22-.69-1.68-1.21s-.68-1.2-.68-2.02c0-1.15,.45-2.07,1.35-2.75s2.1-1.02,3.6-1.02c1,0,1.88,.16,2.64,.48,.76,.32,1.35,.76,1.77,1.33s.62,1.2,.62,1.91v.08c0,.17-.09,.26-.26,.26h-1.8c-.17,0-.26-.09-.26-.26v-.08c0-.5-.25-.92-.74-1.25-.49-.33-1.16-.5-2-.5-.76,0-1.37,.15-1.84,.44-.47,.29-.71,.69-.71,1.19s.23,.88,.68,1.13,1.19,.53,2.2,.83c1,.28,1.83,.55,2.49,.81,.66,.27,1.22,.66,1.69,1.19,.46,.52,.7,1.21,.7,2.05,0,1.17-.46,2.1-1.38,2.78-.92,.69-2.14,1.03-3.67,1.03-1.03,0-1.94-.15-2.72-.46Z"/><path class="d" d="M301.9,69.14c0,.1-.04,.18-.13,.23l-2.96,1.7c-.05,.02-.08,.06-.08,.13v8.22c0,.17-.09,.26-.26,.26h-1.96c-.17,0-.26-.09-.26-.26v-6.73s-.01-.06-.04-.08c-.03-.02-.06-.02-.09,0l-1.7,.98s-.08,.03-.13,.03c-.1,0-.18-.04-.23-.13l-.62-1.16s-.03-.08-.03-.13c0-.1,.04-.18,.13-.23l2.63-1.52c.05-.04,.08-.08,.08-.13v-8.43c0-.17,.09-.26,.26-.26h1.96c.17,0,.26,.09,.26,.26v6.91s.01,.06,.04,.08c.03,.02,.06,.02,.09,0l1.98-1.16s.08-.03,.13-.03c.1,0,.18,.04,.23,.13l.67,1.19s.03,.08,.03,.13Z"/><path class="d" d="M306.08,78.93c-.95-.64-1.61-1.54-1.99-2.69-.31-.93-.46-1.98-.46-3.15s.15-2.25,.44-3.09c.38-1.13,1.04-2.02,1.99-2.67,.94-.64,2.07-.97,3.38-.97,1.24,0,2.32,.32,3.24,.97,.92,.64,1.58,1.53,1.97,2.64,.31,.88,.46,1.91,.46,3.09s-.15,2.26-.46,3.17c-.38,1.15-1.03,2.05-1.96,2.69-.93,.64-2.02,.97-3.27,.97s-2.38-.32-3.33-.97Zm5.13-1.75c.52-.39,.88-.93,1.11-1.64,.19-.65,.28-1.46,.28-2.42s-.09-1.76-.26-2.4c-.22-.71-.59-1.25-1.11-1.64s-1.14-.58-1.88-.58-1.32,.19-1.83,.58-.88,.93-1.11,1.64c-.19,.6-.28,1.4-.28,2.4s.09,1.8,.28,2.42c.21,.71,.57,1.25,1.1,1.64s1.16,.58,1.9,.58c.69,0,1.29-.19,1.8-.58Zm-3.29-12.35c-.04-.06-.04-.13,.01-.22l1.52-2.78c.05-.12,.16-.18,.31-.18h1.73c.1,0,.17,.03,.19,.09,.03,.06,.01,.13-.04,.22l-1.83,2.78c-.09,.12-.19,.18-.31,.18h-1.37c-.1,0-.18-.03-.22-.09Z"/><path class="d" d="M319.77,79.48l-3.71-12.63-.03-.08c0-.14,.08-.21,.26-.21h2.01c.15,0,.25,.08,.28,.23l2.45,9.36s.04,.05,.06,.05,.05-.02,.06-.05l2.5-9.36c.03-.16,.13-.23,.28-.23h1.78c.16,0,.25,.08,.28,.23l2.55,9.33s.04,.05,.06,.05,.05-.02,.06-.05l2.55-9.33c.03-.16,.13-.23,.28-.23l1.99,.03c.09,0,.15,.03,.19,.08,.04,.05,.06,.12,.04,.21l-3.74,12.61c-.05,.14-.15,.21-.28,.21h-2.01c-.14,0-.23-.07-.28-.21l-2.53-8.71s-.04-.05-.06-.05-.05,.02-.06,.05l-2.4,8.69c-.03,.16-.13,.23-.28,.23h-2.04c-.14,0-.23-.07-.28-.21Z"/><path class="d" d="M201.41,107.36v-17.53c0-.17,.09-.26,.26-.26h1.96c.17,0,.26,.09,.26,.26v8.22s.02,.06,.05,.06c.03,0,.06,0,.08-.04l7.37-8.35c.07-.1,.17-.16,.31-.16h2.24c.1,0,.17,.03,.21,.09s.02,.13-.05,.22l-6.14,7.25c-.02,.05-.02,.1,0,.15l6.57,10.03c.03,.07,.05,.12,.05,.16,0,.1-.07,.15-.21,.15h-2.24c-.12,0-.22-.05-.31-.15l-5.57-8.43s-.04-.05-.08-.05-.06,0-.08,.03l-2.17,2.42c-.03,.07-.05,.11-.05,.13v5.8c0,.17-.09,.26-.26,.26h-1.96c-.17,0-.26-.09-.26-.26Z"/><path class="d" d="M223.97,94.7c.12,.05,.16,.16,.13,.31l-.41,1.93c-.02,.15-.12,.21-.31,.15-.29-.12-.64-.18-1.03-.18l-.36,.03c-.81,.04-1.47,.31-2,.84s-.79,1.21-.79,2.05v7.53c0,.17-.09,.26-.26,.26h-1.96c-.17,0-.26-.09-.26-.26v-12.61c0-.17,.09-.26,.26-.26h1.96c.17,0,.26,.09,.26,.26v1.37c0,.05,.01,.08,.04,.09,.03,0,.05,0,.06-.04,.77-1.2,1.83-1.8,3.17-1.8,.55,0,1.05,.11,1.5,.33Z"/><path class="d" d="M236.52,101.79c0,.17-.09,.26-.26,.26h-8.22c-.07,0-.1,.04-.1,.1,0,.58,.05,1.03,.15,1.34,.19,.69,.57,1.22,1.15,1.61,.58,.39,1.3,.58,2.18,.58,1.27,0,2.25-.52,2.94-1.57,.09-.17,.2-.2,.34-.08l1.47,.98c.12,.1,.15,.21,.08,.33-.48,.77-1.17,1.38-2.05,1.83-.89,.45-1.89,.67-3,.67-1.25,0-2.31-.28-3.17-.83s-1.5-1.33-1.93-2.35c-.41-1.01-.62-2.24-.62-3.69,0-1.25,.09-2.21,.28-2.86,.31-1.19,.93-2.12,1.86-2.81,.93-.69,2.05-1.03,3.38-1.03,1.74,0,3.03,.43,3.89,1.3s1.38,2.14,1.57,3.83c.07,.7,.09,1.5,.08,2.37Zm-7.37-4.81c-.48,.37-.81,.86-.98,1.48-.12,.38-.2,.86-.23,1.44,0,.07,.03,.1,.1,.1h5.9c.07,0,.1-.03,.1-.1-.04-.57-.09-.99-.16-1.26-.17-.67-.51-1.21-1.02-1.61-.51-.4-1.14-.61-1.89-.61s-1.35,.18-1.83,.55Z"/><path class="d" d="M246.8,94.84c.78,.37,1.38,.89,1.8,1.55,.42,.66,.63,1.41,.63,2.26v8.71c0,.17-.09,.26-.26,.26h-1.96c-.17,0-.26-.09-.26-.26v-.93c0-.09-.04-.1-.13-.05-.45,.46-.99,.82-1.64,1.07s-1.36,.37-2.15,.37c-1.27,0-2.33-.32-3.16-.97-.83-.64-1.25-1.62-1.25-2.93s.47-2.39,1.41-3.16,2.25-1.15,3.93-1.15h2.89c.07,0,.1-.03,.1-.1v-.7c0-.76-.22-1.34-.66-1.77s-1.1-.63-2-.63c-.72,0-1.31,.14-1.77,.43-.46,.28-.73,.67-.84,1.15-.05,.17-.15,.25-.31,.23l-2.09-.28c-.17-.03-.25-.1-.23-.21,.14-1.01,.68-1.84,1.62-2.49,.94-.64,2.13-.97,3.56-.97,1.05,0,1.96,.18,2.75,.55Zm-1.04,10.17c.67-.48,1.01-1.09,1.01-1.83v-1.52c0-.07-.04-.1-.1-.1h-2.42c-1.01,0-1.82,.2-2.42,.59s-.9,.95-.9,1.65c0,.64,.23,1.12,.68,1.44,.46,.33,1.05,.49,1.79,.49,.91,0,1.7-.24,2.37-.72Z"/><path class="d" d="M258.36,96.53h-2.78c-.07,0-.1,.03-.1,.1v6.83c0,.72,.16,1.24,.49,1.56s.83,.48,1.52,.48h.75c.17,0,.26,.09,.26,.26v1.6c0,.17-.09,.26-.26,.26-.55,.03-.95,.05-1.19,.05-1.31,0-2.29-.24-2.95-.71-.66-.47-.99-1.34-.99-2.62v-7.71c0-.07-.04-.1-.1-.1h-1.57c-.17,0-.26-.09-.26-.26v-1.52c0-.17,.08-.26,.26-.26h1.57c.07,0,.1-.03,.1-.1v-3.04c0-.17,.08-.26,.26-.26h1.86c.17,0,.26,.09,.26,.26v3.04c0,.07,.03,.1,.1,.1h2.78c.17,0,.26,.09,.26,.26v1.52c0,.17-.09,.26-.26,.26Z"/><path class="d" d="M260.83,112.49v-1.52c0-.17,.09-.26,.26-.26h.05c.69-.02,1.23-.1,1.62-.26,.39-.15,.72-.44,.98-.86,.26-.42,.51-1.05,.75-1.9,.02-.02,.02-.07,0-.15l-4.31-12.76-.03-.1c0-.12,.08-.18,.23-.18h2.09c.16,0,.26,.07,.31,.21l2.91,9.72s.04,.05,.08,.05,.06-.02,.08-.05l2.89-9.72c.05-.14,.15-.21,.31-.21h2.04c.19,0,.26,.09,.21,.28l-4.69,13.74c-.4,1.19-.79,2.07-1.19,2.64-.4,.58-.91,.98-1.55,1.22-.64,.24-1.53,.36-2.68,.36h-.18c-.12,0-.18-.09-.18-.26Z"/><path class="d" d="M276.05,107.41l-3.71-12.63-.03-.08c0-.14,.08-.21,.26-.21h2.01c.15,0,.25,.08,.28,.23l2.45,9.36s.04,.05,.06,.05,.05-.02,.06-.05l2.5-9.36c.03-.16,.13-.23,.28-.23h1.78c.16,0,.25,.08,.28,.23l2.55,9.33s.04,.05,.06,.05,.05-.02,.06-.05l2.55-9.33c.03-.16,.13-.23,.28-.23l1.99,.03c.09,0,.15,.03,.19,.08,.04,.05,.06,.12,.04,.21l-3.74,12.61c-.05,.14-.15,.21-.28,.21h-2.01c-.14,0-.23-.07-.28-.21l-2.53-8.71s-.04-.05-.06-.05-.05,.02-.06,.05l-2.4,8.69c-.03,.16-.13,.23-.28,.23h-2.04c-.14,0-.23-.07-.28-.21Z"/><path class="d" d="M301.52,95.54c.83,.82,1.24,1.92,1.24,3.31v8.51c0,.17-.09,.26-.26,.26h-1.96c-.17,0-.26-.09-.26-.26v-8.02c0-.86-.25-1.55-.75-2.09-.5-.53-1.16-.8-1.99-.8s-1.47,.27-1.99,.8c-.52,.53-.77,1.22-.77,2.06v8.04c0,.17-.09,.26-.26,.26h-1.96c-.17,0-.26-.09-.26-.26v-12.61c0-.17,.09-.26,.26-.26h1.96c.17,0,.26,.09,.26,.26v.93s.01,.06,.04,.08c.03,.02,.05,0,.06-.03,.74-.95,1.83-1.42,3.27-1.42s2.53,.41,3.35,1.22Z"/><path class="d" d="M305.1,112.49v-1.52c0-.17,.09-.26,.26-.26h.05c.69-.02,1.23-.1,1.62-.26,.39-.15,.72-.44,.98-.86,.26-.42,.51-1.05,.75-1.9,.02-.02,.02-.07,0-.15l-4.31-12.76-.03-.1c0-.12,.08-.18,.23-.18h2.09c.16,0,.26,.07,.31,.21l2.91,9.72s.04,.05,.08,.05,.06-.02,.08-.05l2.89-9.72c.05-.14,.15-.21,.31-.21h2.04c.19,0,.26,.09,.21,.28l-4.69,13.74c-.4,1.19-.79,2.07-1.19,2.64-.4,.58-.91,.98-1.55,1.22-.64,.24-1.53,.36-2.68,.36h-.18c-.12,0-.18-.09-.18-.26Z"/><path class="d" d="M319.02,106.83c-.93-.66-1.56-1.56-1.91-2.69-.26-.79-.39-1.83-.39-3.12,0-1.19,.13-2.23,.39-3.12,.34-1.1,.98-1.98,1.92-2.63s2.05-.98,3.34-.98,2.42,.33,3.38,.98c.96,.65,1.59,1.48,1.88,2.48,.1,.27,.17,.56,.21,.85,0,.14-.08,.22-.23,.26l-1.93,.28h-.05c-.12,0-.21-.08-.26-.23l-.08-.41c-.14-.58-.47-1.07-1-1.47-.53-.39-1.18-.59-1.93-.59s-1.37,.2-1.88,.59c-.52,.4-.85,.92-1,1.57-.16,.62-.23,1.44-.23,2.45s.08,1.8,.23,2.42c.17,.69,.51,1.23,1.02,1.62,.51,.4,1.13,.59,1.87,.59s1.41-.2,1.95-.59,.88-.91,1.02-1.55c.02-.02,.02-.04,.01-.06,0-.03,0-.05,.01-.06v-.1c.05-.14,.15-.19,.28-.15l1.93,.31c.14,.04,.21,.1,.21,.21v.1c0,.16-.04,.34-.13,.57-.29,1.05-.92,1.89-1.88,2.53-.96,.64-2.09,.95-3.38,.95s-2.42-.33-3.35-.99Z"/><path class="d" d="M339.62,95.54c.83,.82,1.24,1.92,1.24,3.31v8.51c0,.17-.09,.26-.26,.26h-1.96c-.17,0-.26-.09-.26-.26v-8.02c0-.86-.25-1.55-.75-2.09-.5-.53-1.16-.8-1.99-.8s-1.47,.27-1.99,.8c-.52,.53-.77,1.22-.77,2.06v8.04c0,.17-.09,.26-.26,.26h-1.96c-.17,0-.26-.09-.26-.26v-17.53c0-.17,.09-.26,.26-.26h1.96c.17,0,.26,.09,.26,.26v5.85s.01,.06,.04,.08c.03,.02,.05,0,.06-.03,.74-.95,1.83-1.42,3.27-1.42s2.53,.41,3.35,1.22Z"/></g><path class="d" d="M15.27,30.31L.41,56.04c-.54,.94-.54,2.1,0,3.05l14.86,25.74c.54,.94,1.55,1.52,2.64,1.52h15.11c2.34,0,3.81-2.54,2.64-4.57l-13.1-22.69c-.54-.94-.54-2.1,0-3.05l13.1-22.69c1.17-2.03-.29-4.57-2.64-4.57h-15.11c-1.09,0-2.09,.58-2.64,1.52Z"/><path class="d" d="M63.37,59.09l13.1,22.69c1.17,2.03-.29,4.57-2.64,4.57h-15.11c-1.09,0-2.09-.58-2.64-1.52l-14.86-25.74c-.54-.94-.54-2.1,0-3.04l14.86-25.74c.54-.94,.54-2.1,0-3.04L42.99,4.57C41.82,2.54,43.28,0,45.63,0h15.11c1.09,0,2.09,.58,2.64,1.52l14.86,25.74c.54,.94,.54,2.1,0,3.05l-14.86,25.74c-.54,.94-.54,2.1,0,3.05Z"/><path class="e" d="M91.4,4.57l18.62,32.25c1.17,2.03,4.1,2.03,5.27,0l7.55-13.08c.54-.94,.54-2.1,0-3.05L111.78,1.52c-.54-.94-1.55-1.52-2.64-1.52h-15.11c-2.34,0-3.81,2.54-2.64,4.57Z"/><path class="e" d="M137.74,30.31l-14.86,25.74c-.54,.94-.54,2.1,0,3.05l14.86,25.74c.54,.94,1.55,1.52,2.64,1.52h15.11c2.34,0,3.81-2.54,2.64-4.57l-13.1-22.69c-.54-.94-.54-2.1,0-3.05l13.1-22.69c1.17-2.03-.29-4.57-2.64-4.57h-15.11c-1.09,0-2.09,.58-2.64,1.52Z"/><path class="e" d="M93.97,128.27h-15.11c-2.34,0-3.81-2.54-2.64-4.57l4.07-7.05c.54-.94,1.55-1.52,2.64-1.52h15.11c2.34,0,3.81,2.54,2.64,4.57l-4.07,7.05c-.54,.94-1.55,1.52-2.64,1.52Z"/><path class="e" d="M119.05,84.83l-14.86-25.74c-.54-.94-1.55-1.52-2.64-1.52h-15.11c-2.34,0-3.81,2.54-2.64,4.57l13.1,22.69c.54,.94,.54,2.1,0,3.05l-8.7,15.07c-1.17,2.03,.29,4.57,2.64,4.57h15.11c1.09,0,2.09-.58,2.64-1.52l10.46-18.12c.54-.94,.54-2.1,0-3.05Z"/></g></g></g></svg>