<?xml version="1.0" encoding="UTF-8" standalone="no"?>
<!-- Created with Inkscape (http://www.inkscape.org/) -->

<svg
   xmlns:dc="http://purl.org/dc/elements/1.1/"
   xmlns:cc="http://creativecommons.org/ns#"
   xmlns:rdf="http://www.w3.org/1999/02/22-rdf-syntax-ns#"
   xmlns:svg="http://www.w3.org/2000/svg"
   xmlns="http://www.w3.org/2000/svg"
   xmlns:sodipodi="http://sodipodi.sourceforge.net/DTD/sodipodi-0.dtd"
   xmlns:inkscape="http://www.inkscape.org/namespaces/inkscape"
   width="457.3891"
   height="98.401237"
   viewBox="0 0 121.01601 26.034999"
   version="1.1"
   id="svg8"
   inkscape:version="0.92.3 (2405546, 2018-03-11)"
   sodipodi:docname="ministerstwo.svg">
  <defs
     id="defs2">
    <clipPath
       id="clipPath3889"
       clipPathUnits="userSpaceOnUse">
      <path
         inkscape:connector-curvature="0"
         id="path3887"
         d="M 0,0 H 383.919 V 107.787 H 0 Z" />
    </clipPath>
  </defs>
  <sodipodi:namedview
     id="base"
     pagecolor="#ffffff"
     bordercolor="#43b9ff"
     borderopacity="1"
     inkscape:pageopacity="0.0"
     inkscape:pageshadow="2"
     inkscape:zoom="0.7"
     inkscape:cx="510.77737"
     inkscape:cy="-74.314243"
     inkscape:document-units="px"
     inkscape:current-layer="layer1"
     showgrid="false"
     inkscape:pagecheckerboard="true"
     showborder="true"
     inkscape:showpageshadow="false"
     borderlayer="false"
     units="px"
     fit-margin-top="0"
     fit-margin-left="0"
     fit-margin-right="0"
     fit-margin-bottom="0" />
  <metadata
     id="metadata5">
    <rdf:RDF>
      <cc:Work
         rdf:about="">
        <dc:format>image/svg+xml</dc:format>
        <dc:type
           rdf:resource="http://purl.org/dc/dcmitype/StillImage" />
        <dc:title></dc:title>
      </cc:Work>
    </rdf:RDF>
  </metadata>
  <g
     inkscape:label="Layer 1"
     inkscape:groupmode="layer"
     id="layer1"
     transform="translate(-160.23009,-118.42891)">
    <g
       transform="matrix(0.35277777,0,0,-0.35277777,154.23022,150.4539)"
       inkscape:label="05_znak_uproszczony_kolor_biale_tlo_RGB"
       id="g3875">
      <path
         inkscape:connector-curvature="0"
         id="path3877"
         style="fill:#e30613;fill-opacity:1;fill-rule:nonzero;stroke:none"
         d="M 360.045,17.112 H 93.543 v 4.11 h 266.502 z" />
      <path
         inkscape:connector-curvature="0"
         id="path3879"
         style="fill:#ffffff;fill-opacity:1;fill-rule:nonzero;stroke:none"
         d="M 360.044,21.222 H 93.543 v 4.11 h 266.501 z" />
      <path
         inkscape:connector-curvature="0"
         id="path3881"
         style="fill:#000000;fill-opacity:1;fill-rule:nonzero;stroke:none"
         d="m 93.543,25.332 h 266.501 v 0.283 H 93.543 Z" />
      <g
         id="g3883">
        <g
           clip-path="url(#clipPath3889)"
           id="g3885">
          <g
             transform="translate(101.7388,70.9785)"
             id="g3891">
            <path
               inkscape:connector-curvature="0"
               id="path3893"
               style="fill:#000000;fill-opacity:1;fill-rule:nonzero;stroke:none"
               d="M 0,0 C 0.081,-0.204 0.159,-0.409 0.236,-0.615 0.312,-0.401 0.393,-0.196 0.477,0 0.562,0.195 0.657,0.393 0.765,0.592 l 5.577,10.132 c 0.099,0.176 0.203,0.283 0.31,0.321 0.108,0.039 0.261,0.058 0.46,0.058 H 8.757 V -5.376 H 6.802 V 6.733 c 0,0.161 0.004,0.333 0.011,0.517 0.008,0.185 0.02,0.372 0.035,0.564 L 1.202,-2.49 C 1.01,-2.835 0.742,-3.007 0.396,-3.007 H 0.075 c -0.346,0 -0.614,0.172 -0.805,0.517 L -6.503,7.849 C -6.48,7.649 -6.463,7.454 -6.452,7.262 -6.44,7.07 -6.434,6.894 -6.434,6.733 V -5.376 h -1.955 v 16.479 h 1.644 c 0.2,0 0.353,-0.019 0.46,-0.058 0.108,-0.038 0.211,-0.145 0.311,-0.321 L -0.282,0.581 C -0.175,0.396 -0.081,0.203 0,0" />
          </g>
          <path
             inkscape:connector-curvature="0"
             id="path3895"
             style="fill:#000000;fill-opacity:1;fill-rule:nonzero;stroke:none"
             d="m 116.464,65.602 h -2.047 v 11.649 h 2.047 z m 0.46,15.307 c 0,-0.2 -0.04,-0.386 -0.121,-0.558 -0.08,-0.173 -0.187,-0.326 -0.322,-0.46 -0.134,-0.135 -0.289,-0.24 -0.465,-0.316 -0.177,-0.077 -0.365,-0.116 -0.564,-0.116 -0.199,0 -0.385,0.039 -0.557,0.116 -0.173,0.076 -0.327,0.181 -0.46,0.316 -0.135,0.134 -0.24,0.287 -0.317,0.46 -0.076,0.172 -0.115,0.358 -0.115,0.558 0,0.199 0.039,0.388 0.115,0.569 0.077,0.18 0.182,0.337 0.317,0.471 0.133,0.134 0.287,0.24 0.46,0.317 0.172,0.076 0.358,0.114 0.557,0.114 0.199,0 0.387,-0.038 0.564,-0.114 0.176,-0.077 0.331,-0.183 0.465,-0.317 0.135,-0.134 0.242,-0.291 0.322,-0.471 0.081,-0.181 0.121,-0.37 0.121,-0.569" />
          <g
             transform="translate(120.0752,65.6021)"
             id="g3897">
            <path
               inkscape:connector-curvature="0"
               id="path3899"
               style="fill:#000000;fill-opacity:1;fill-rule:nonzero;stroke:none"
               d="m 0,0 v 11.649 h 1.219 c 0.291,0 0.475,-0.142 0.552,-0.425 L 1.932,9.959 c 0.506,0.56 1.071,1.012 1.696,1.357 0.625,0.345 1.347,0.517 2.167,0.517 0.637,0 1.199,-0.105 1.685,-0.316 C 7.967,11.306 8.374,11.007 8.699,10.62 9.025,10.233 9.272,9.767 9.441,9.223 9.609,8.679 9.694,8.077 9.694,7.417 V 0 H 7.647 V 7.417 C 7.647,8.299 7.446,8.983 7.043,9.47 6.641,9.957 6.025,10.201 5.198,10.201 4.592,10.201 4.026,10.055 3.501,9.764 2.976,9.472 2.491,9.077 2.047,8.579 V 0 Z" />
          </g>
          <path
             inkscape:connector-curvature="0"
             id="path3901"
             style="fill:#000000;fill-opacity:1;fill-rule:nonzero;stroke:none"
             d="m 135.14,65.602 h -2.047 v 11.649 h 2.047 z m 0.46,15.307 c 0,-0.2 -0.041,-0.386 -0.121,-0.558 -0.081,-0.173 -0.188,-0.326 -0.322,-0.46 -0.135,-0.135 -0.29,-0.24 -0.466,-0.316 -0.176,-0.077 -0.364,-0.116 -0.564,-0.116 -0.199,0 -0.385,0.039 -0.557,0.116 -0.173,0.076 -0.326,0.181 -0.46,0.316 -0.134,0.134 -0.24,0.287 -0.317,0.46 -0.076,0.172 -0.114,0.358 -0.114,0.558 0,0.199 0.038,0.388 0.114,0.569 0.077,0.18 0.183,0.337 0.317,0.471 0.134,0.134 0.287,0.24 0.46,0.317 0.172,0.076 0.358,0.114 0.557,0.114 0.2,0 0.388,-0.038 0.564,-0.114 0.176,-0.077 0.331,-0.183 0.466,-0.317 0.134,-0.134 0.241,-0.291 0.322,-0.471 0.08,-0.181 0.121,-0.37 0.121,-0.569" />
          <g
             transform="translate(145.4199,75.3311)"
             id="g3903">
            <path
               inkscape:connector-curvature="0"
               id="path3905"
               style="fill:#000000;fill-opacity:1;fill-rule:nonzero;stroke:none"
               d="m 0,0 c -0.092,-0.169 -0.234,-0.253 -0.425,-0.253 -0.116,0 -0.246,0.042 -0.391,0.127 -0.146,0.084 -0.324,0.178 -0.535,0.281 -0.211,0.104 -0.462,0.199 -0.753,0.288 -0.292,0.088 -0.637,0.132 -1.035,0.132 -0.345,0 -0.656,-0.044 -0.932,-0.132 -0.276,-0.089 -0.512,-0.209 -0.707,-0.362 -0.196,-0.154 -0.345,-0.332 -0.449,-0.535 -0.103,-0.204 -0.155,-0.424 -0.155,-0.662 0,-0.299 0.087,-0.548 0.259,-0.747 0.172,-0.2 0.4,-0.372 0.685,-0.517 0.283,-0.146 0.605,-0.275 0.965,-0.386 0.361,-0.111 0.73,-0.23 1.11,-0.356 0.38,-0.127 0.749,-0.267 1.11,-0.42 0.36,-0.153 0.682,-0.345 0.966,-0.575 0.283,-0.23 0.512,-0.512 0.684,-0.845 0.172,-0.334 0.259,-0.734 0.259,-1.202 0,-0.537 -0.096,-1.033 -0.288,-1.489 -0.192,-0.456 -0.475,-0.851 -0.851,-1.185 -0.375,-0.333 -0.835,-0.596 -1.38,-0.787 -0.544,-0.192 -1.173,-0.288 -1.886,-0.288 -0.813,0 -1.548,0.132 -2.208,0.397 -0.659,0.264 -1.219,0.603 -1.679,1.017 l 0.483,0.783 c 0.062,0.099 0.134,0.176 0.219,0.23 0.084,0.053 0.195,0.08 0.333,0.08 0.138,0 0.284,-0.054 0.437,-0.161 0.154,-0.107 0.34,-0.226 0.558,-0.356 0.219,-0.131 0.483,-0.25 0.794,-0.357 0.31,-0.108 0.699,-0.161 1.167,-0.161 0.398,0 0.747,0.052 1.046,0.155 0.299,0.104 0.548,0.244 0.748,0.42 0.199,0.176 0.347,0.38 0.442,0.61 0.096,0.23 0.144,0.475 0.144,0.735 0,0.322 -0.086,0.589 -0.258,0.8 -0.173,0.211 -0.401,0.391 -0.685,0.54 -0.284,0.15 -0.607,0.28 -0.972,0.391 -0.364,0.111 -0.736,0.228 -1.115,0.351 -0.379,0.123 -0.751,0.263 -1.116,0.42 -0.364,0.157 -0.688,0.354 -0.971,0.592 -0.284,0.238 -0.512,0.531 -0.684,0.88 -0.173,0.349 -0.259,0.772 -0.259,1.271 0,0.444 0.092,0.872 0.276,1.282 0.184,0.41 0.452,0.77 0.805,1.081 0.352,0.31 0.786,0.558 1.299,0.742 0.514,0.184 1.1,0.275 1.76,0.275 0.766,0 1.455,-0.12 2.064,-0.362 C -0.512,1.501 0.016,1.169 0.46,0.748 Z" />
          </g>
          <g
             transform="translate(152.2622,65.418)"
             id="g3907">
            <path
               inkscape:connector-curvature="0"
               id="path3909"
               style="fill:#000000;fill-opacity:1;fill-rule:nonzero;stroke:none"
               d="M 0,0 C -0.92,0 -1.627,0.257 -2.122,0.771 -2.616,1.284 -2.863,2.024 -2.863,2.99 v 7.13 h -1.404 c -0.122,0 -0.226,0.036 -0.31,0.109 -0.085,0.073 -0.127,0.186 -0.127,0.339 v 0.817 l 1.91,0.241 0.471,3.6 c 0.015,0.115 0.065,0.209 0.15,0.282 0.084,0.073 0.191,0.109 0.321,0.109 h 1.036 V 11.604 H 2.519 V 10.12 H -0.816 V 3.128 c 0,-0.491 0.118,-0.855 0.356,-1.092 0.237,-0.238 0.544,-0.357 0.92,-0.357 0.214,0 0.4,0.029 0.558,0.086 0.157,0.058 0.293,0.121 0.408,0.19 0.115,0.069 0.213,0.132 0.293,0.19 0.081,0.057 0.152,0.086 0.213,0.086 0.107,0 0.203,-0.065 0.287,-0.195 L 2.817,1.058 C 2.465,0.729 2.039,0.47 1.541,0.282 1.042,0.094 0.529,0 0,0" />
          </g>
          <g
             transform="translate(161.9678,75.9292)"
             id="g3911">
            <path
               inkscape:connector-curvature="0"
               id="path3913"
               style="fill:#000000;fill-opacity:1;fill-rule:nonzero;stroke:none"
               d="m 0,0 c -0.989,0 -1.767,-0.286 -2.334,-0.857 -0.568,-0.571 -0.92,-1.363 -1.059,-2.374 h 6.337 c 0,0.475 -0.066,0.91 -0.195,1.305 C 2.618,-1.532 2.426,-1.19 2.173,-0.903 1.92,-0.615 1.612,-0.393 1.248,-0.236 0.883,-0.079 0.467,0 0,0 m -0.046,1.506 c 0.697,0 1.341,-0.117 1.932,-0.35 0.59,-0.234 1.1,-0.572 1.53,-1.012 C 3.845,-0.297 4.18,-0.842 4.421,-1.489 4.663,-2.137 4.784,-2.875 4.784,-3.703 4.784,-4.025 4.75,-4.24 4.68,-4.347 4.611,-4.455 4.481,-4.508 4.29,-4.508 h -7.751 c 0.015,-0.736 0.114,-1.376 0.298,-1.921 0.184,-0.544 0.437,-0.998 0.76,-1.363 0.321,-0.364 0.705,-0.636 1.15,-0.816 0.444,-0.18 0.942,-0.27 1.494,-0.27 0.514,0 0.957,0.059 1.329,0.178 0.371,0.119 0.691,0.247 0.96,0.386 0.268,0.137 0.492,0.266 0.673,0.385 0.18,0.118 0.335,0.178 0.465,0.178 0.169,0 0.299,-0.065 0.392,-0.196 L 4.634,-8.694 C 4.381,-9.001 4.079,-9.268 3.726,-9.493 3.373,-9.72 2.996,-9.906 2.593,-10.051 2.19,-10.197 1.775,-10.306 1.345,-10.379 0.916,-10.452 0.49,-10.488 0.069,-10.488 c -0.805,0 -1.547,0.136 -2.225,0.408 -0.679,0.272 -1.265,0.671 -1.76,1.196 -0.494,0.525 -0.879,1.175 -1.155,1.949 -0.277,0.775 -0.414,1.664 -0.414,2.668 0,0.813 0.124,1.572 0.373,2.277 0.249,0.706 0.608,1.317 1.075,1.835 0.468,0.517 1.039,0.924 1.714,1.218 0.675,0.296 1.433,0.443 2.277,0.443" />
          </g>
          <g
             transform="translate(169.3618,65.6021)"
             id="g3915">
            <path
               inkscape:connector-curvature="0"
               id="path3917"
               style="fill:#000000;fill-opacity:1;fill-rule:nonzero;stroke:none"
               d="m 0,0 v 11.649 h 1.173 c 0.222,0 0.375,-0.042 0.46,-0.126 0.084,-0.085 0.141,-0.23 0.172,-0.437 L 1.943,9.269 c 0.399,0.813 0.891,1.447 1.478,1.903 0.586,0.456 1.274,0.684 2.064,0.684 0.322,0 0.614,-0.036 0.874,-0.109 0.261,-0.073 0.502,-0.174 0.724,-0.305 L 6.819,9.913 C 6.766,9.721 6.646,9.625 6.462,9.625 6.355,9.625 6.19,9.662 5.968,9.735 5.746,9.808 5.435,9.844 5.037,9.844 4.324,9.844 3.728,9.637 3.249,9.223 2.769,8.809 2.369,8.207 2.047,7.417 V 0 Z" />
          </g>
          <g
             transform="translate(185.3003,75.3311)"
             id="g3919">
            <path
               inkscape:connector-curvature="0"
               id="path3921"
               style="fill:#000000;fill-opacity:1;fill-rule:nonzero;stroke:none"
               d="m 0,0 c -0.092,-0.169 -0.234,-0.253 -0.425,-0.253 -0.116,0 -0.246,0.042 -0.391,0.127 -0.146,0.084 -0.324,0.178 -0.535,0.281 -0.211,0.104 -0.462,0.199 -0.753,0.288 -0.292,0.088 -0.637,0.132 -1.035,0.132 -0.345,0 -0.656,-0.044 -0.932,-0.132 -0.276,-0.089 -0.512,-0.209 -0.707,-0.362 -0.196,-0.154 -0.345,-0.332 -0.449,-0.535 -0.103,-0.204 -0.155,-0.424 -0.155,-0.662 0,-0.299 0.087,-0.548 0.259,-0.747 0.172,-0.2 0.4,-0.372 0.685,-0.517 0.283,-0.146 0.605,-0.275 0.965,-0.386 0.361,-0.111 0.73,-0.23 1.11,-0.356 0.38,-0.127 0.749,-0.267 1.11,-0.42 0.36,-0.153 0.682,-0.345 0.966,-0.575 0.283,-0.23 0.512,-0.512 0.684,-0.845 0.172,-0.334 0.259,-0.734 0.259,-1.202 0,-0.537 -0.096,-1.033 -0.288,-1.489 -0.192,-0.456 -0.475,-0.851 -0.851,-1.185 -0.375,-0.333 -0.835,-0.596 -1.38,-0.787 -0.544,-0.192 -1.173,-0.288 -1.886,-0.288 -0.813,0 -1.548,0.132 -2.208,0.397 -0.659,0.264 -1.219,0.603 -1.679,1.017 l 0.483,0.783 c 0.062,0.099 0.134,0.176 0.219,0.23 0.084,0.053 0.195,0.08 0.333,0.08 0.138,0 0.284,-0.054 0.437,-0.161 0.154,-0.107 0.34,-0.226 0.558,-0.356 0.219,-0.131 0.483,-0.25 0.794,-0.357 0.31,-0.108 0.699,-0.161 1.167,-0.161 0.398,0 0.747,0.052 1.046,0.155 0.299,0.104 0.548,0.244 0.748,0.42 0.199,0.176 0.347,0.38 0.442,0.61 0.096,0.23 0.144,0.475 0.144,0.735 0,0.322 -0.086,0.589 -0.258,0.8 -0.173,0.211 -0.401,0.391 -0.685,0.54 -0.284,0.15 -0.607,0.28 -0.972,0.391 -0.364,0.111 -0.736,0.228 -1.115,0.351 -0.379,0.123 -0.751,0.263 -1.116,0.42 -0.364,0.157 -0.688,0.354 -0.971,0.592 -0.284,0.238 -0.512,0.531 -0.684,0.88 -0.173,0.349 -0.259,0.772 -0.259,1.271 0,0.444 0.092,0.872 0.276,1.282 0.184,0.41 0.452,0.77 0.805,1.081 0.352,0.31 0.786,0.558 1.299,0.742 0.514,0.184 1.1,0.275 1.76,0.275 0.766,0 1.455,-0.12 2.064,-0.362 C -0.512,1.501 0.016,1.169 0.46,0.748 Z" />
          </g>
          <g
             transform="translate(192.1426,65.418)"
             id="g3923">
            <path
               inkscape:connector-curvature="0"
               id="path3925"
               style="fill:#000000;fill-opacity:1;fill-rule:nonzero;stroke:none"
               d="M 0,0 C -0.92,0 -1.627,0.257 -2.122,0.771 -2.616,1.284 -2.863,2.024 -2.863,2.99 v 7.13 h -1.404 c -0.122,0 -0.226,0.036 -0.31,0.109 -0.085,0.073 -0.127,0.186 -0.127,0.339 v 0.817 l 1.91,0.241 0.471,3.6 c 0.015,0.115 0.065,0.209 0.15,0.282 0.084,0.073 0.191,0.109 0.321,0.109 h 1.036 V 11.604 H 2.518 V 10.12 H -0.816 V 3.128 c 0,-0.491 0.119,-0.855 0.356,-1.092 0.237,-0.238 0.544,-0.357 0.919,-0.357 0.215,0 0.402,0.029 0.559,0.086 0.156,0.058 0.293,0.121 0.408,0.19 0.115,0.069 0.213,0.132 0.293,0.19 0.08,0.057 0.152,0.086 0.213,0.086 0.107,0 0.203,-0.065 0.287,-0.195 L 2.816,1.058 C 2.465,0.729 2.039,0.47 1.541,0.282 1.043,0.094 0.529,0 0,0" />
          </g>
          <g
             transform="translate(195.6729,77.2515)"
             id="g3927">
            <path
               inkscape:connector-curvature="0"
               id="path3929"
               style="fill:#000000;fill-opacity:1;fill-rule:nonzero;stroke:none"
               d="m 0,0 h 1.609 c 0.169,0 0.307,-0.042 0.414,-0.126 0.108,-0.085 0.181,-0.185 0.219,-0.299 l 2.232,-7.498 c 0.06,-0.276 0.118,-0.543 0.172,-0.8 0.053,-0.256 0.099,-0.515 0.138,-0.776 0.061,0.261 0.13,0.52 0.207,0.776 0.076,0.257 0.156,0.524 0.241,0.8 l 2.461,7.544 c 0.038,0.114 0.106,0.211 0.202,0.287 0.095,0.077 0.216,0.115 0.362,0.115 h 0.886 c 0.153,0 0.279,-0.038 0.378,-0.115 0.1,-0.076 0.169,-0.173 0.208,-0.287 l 2.403,-7.544 c 0.085,-0.269 0.159,-0.534 0.224,-0.794 0.066,-0.261 0.128,-0.517 0.19,-0.77 0.038,0.253 0.088,0.517 0.149,0.793 0.062,0.276 0.127,0.533 0.196,0.771 l 2.277,7.498 c 0.038,0.122 0.111,0.224 0.219,0.304 C 15.494,-0.04 15.62,0 15.766,0 h 1.541 l -3.772,-11.649 h -1.621 c -0.2,0 -0.338,0.13 -0.414,0.391 l -2.576,7.9 C 8.862,-3.182 8.813,-3.003 8.774,-2.823 8.735,-2.643 8.697,-2.465 8.659,-2.289 8.621,-2.465 8.582,-2.645 8.544,-2.829 8.506,-3.013 8.456,-3.193 8.395,-3.37 L 5.784,-11.258 C 5.7,-11.519 5.543,-11.649 5.312,-11.649 H 3.771 Z" />
          </g>
          <g
             transform="translate(219.5225,67.0396)"
             id="g3931">
            <path
               inkscape:connector-curvature="0"
               id="path3933"
               style="fill:#000000;fill-opacity:1;fill-rule:nonzero;stroke:none"
               d="M 0,0 C 1.15,0 2.009,0.385 2.576,1.156 3.144,1.926 3.427,3.001 3.427,4.381 3.427,5.769 3.144,6.85 2.576,7.625 2.009,8.399 1.15,8.786 0,8.786 -0.582,8.786 -1.089,8.686 -1.518,8.487 -1.947,8.288 -2.306,8 -2.593,7.625 -2.881,7.249 -3.095,6.787 -3.237,6.239 -3.379,5.69 -3.449,5.071 -3.449,4.381 c 0,-0.69 0.07,-1.307 0.212,-1.851 C -3.095,1.985 -2.881,1.527 -2.593,1.156 -2.306,0.784 -1.947,0.498 -1.518,0.299 -1.089,0.1 -0.582,0 0,0 m 0,10.396 c 0.852,0 1.62,-0.142 2.306,-0.425 C 2.992,9.687 3.575,9.284 4.054,8.763 4.533,8.242 4.901,7.611 5.158,6.871 5.415,6.131 5.543,5.305 5.543,4.393 5.543,3.473 5.415,2.645 5.158,1.909 4.901,1.173 4.533,0.544 4.054,0.023 3.575,-0.499 2.992,-0.899 2.306,-1.179 1.62,-1.458 0.852,-1.599 0,-1.599 c -0.851,0 -1.619,0.141 -2.306,0.42 -0.685,0.28 -1.27,0.68 -1.754,1.202 -0.482,0.521 -0.854,1.15 -1.115,1.886 -0.261,0.736 -0.39,1.564 -0.39,2.484 0,0.912 0.129,1.738 0.39,2.478 0.261,0.74 0.633,1.371 1.115,1.892 0.484,0.521 1.069,0.924 1.754,1.208 0.687,0.283 1.455,0.425 2.306,0.425" />
          </g>
          <g
             transform="translate(234.8057,74.8594)"
             id="g3935">
            <path
               inkscape:connector-curvature="0"
               id="path3937"
               style="fill:#000000;fill-opacity:1;fill-rule:nonzero;stroke:none"
               d="m 0,0 h 0.84 c 0.291,0 0.523,0.037 0.695,0.109 0.173,0.073 0.336,0.198 0.489,0.374 l 5.486,6.21 c 0.168,0.192 0.331,0.328 0.488,0.409 0.157,0.08 0.358,0.12 0.604,0.12 h 1.897 L 4.221,0.126 C 4.06,-0.05 3.908,-0.199 3.767,-0.322 3.624,-0.444 3.473,-0.544 3.313,-0.621 3.526,-0.69 3.715,-0.793 3.876,-0.931 4.036,-1.069 4.205,-1.242 4.382,-1.449 l 6.555,-7.808 H 9.005 c -0.147,0 -0.269,0.011 -0.368,0.034 -0.1,0.023 -0.187,0.054 -0.259,0.092 -0.073,0.038 -0.14,0.088 -0.201,0.15 -0.062,0.061 -0.123,0.126 -0.185,0.195 L 2.3,-2.242 C 2.216,-2.15 2.137,-2.072 2.064,-2.006 1.991,-1.941 1.907,-1.886 1.812,-1.84 1.716,-1.794 1.604,-1.761 1.478,-1.742 1.352,-1.723 1.196,-1.713 1.012,-1.713 H 0 V -9.257 H -2.22 V 7.222 H 0 Z" />
          </g>
          <g
             transform="translate(249.4687,77.2515)"
             id="g3939">
            <path
               inkscape:connector-curvature="0"
               id="path3941"
               style="fill:#000000;fill-opacity:1;fill-rule:nonzero;stroke:none"
               d="m 0,0 v -7.429 c 0,-0.882 0.203,-1.564 0.609,-2.047 0.407,-0.483 1.02,-0.724 1.84,-0.724 0.598,0 1.161,0.141 1.691,0.425 0.529,0.284 1.015,0.679 1.461,1.185 V 0 H 7.647 V -11.649 H 6.428 c -0.291,0 -0.475,0.141 -0.552,0.425 L 5.715,-9.97 c -0.506,-0.56 -1.073,-1.01 -1.702,-1.352 -0.628,-0.341 -1.349,-0.511 -2.161,-0.511 -0.637,0 -1.199,0.105 -1.686,0.316 -0.486,0.211 -0.895,0.508 -1.225,0.891 -0.329,0.383 -0.576,0.847 -0.741,1.392 -0.165,0.544 -0.247,1.146 -0.247,1.805 V 0 Z" />
          </g>
          <path
             inkscape:connector-curvature="0"
             id="path3943"
             style="fill:#000000;fill-opacity:1;fill-rule:nonzero;stroke:none"
             d="m 262.762,65.602 h -2.047 v 16.939 h 2.047 z" />
          <g
             transform="translate(269.9023,65.418)"
             id="g3945">
            <path
               inkscape:connector-curvature="0"
               id="path3947"
               style="fill:#000000;fill-opacity:1;fill-rule:nonzero;stroke:none"
               d="M 0,0 C -0.92,0 -1.627,0.257 -2.121,0.771 -2.616,1.284 -2.863,2.024 -2.863,2.99 v 7.13 h -1.403 c -0.123,0 -0.226,0.036 -0.31,0.109 -0.085,0.073 -0.127,0.186 -0.127,0.339 v 0.817 l 1.909,0.241 0.472,3.6 c 0.014,0.115 0.064,0.209 0.149,0.282 0.084,0.073 0.192,0.109 0.322,0.109 h 1.035 V 11.604 H 2.519 V 10.12 H -0.816 V 3.128 c 0,-0.491 0.119,-0.855 0.356,-1.092 0.238,-0.238 0.545,-0.357 0.92,-0.357 0.215,0 0.401,0.029 0.559,0.086 0.156,0.058 0.293,0.121 0.408,0.19 0.114,0.069 0.212,0.132 0.293,0.19 0.08,0.057 0.151,0.086 0.213,0.086 0.107,0 0.203,-0.065 0.287,-0.195 L 2.817,1.058 C 2.465,0.729 2.04,0.47 1.541,0.282 1.043,0.094 0.529,0 0,0" />
          </g>
          <g
             transform="translate(276.7227,77.2515)"
             id="g3949">
            <path
               inkscape:connector-curvature="0"
               id="path3951"
               style="fill:#000000;fill-opacity:1;fill-rule:nonzero;stroke:none"
               d="m 0,0 v -7.429 c 0,-0.882 0.203,-1.564 0.609,-2.047 0.407,-0.483 1.02,-0.724 1.84,-0.724 0.598,0 1.161,0.141 1.691,0.425 0.529,0.284 1.015,0.679 1.461,1.185 V 0 H 7.647 V -11.649 H 6.428 c -0.291,0 -0.475,0.141 -0.552,0.425 L 5.715,-9.97 c -0.506,-0.56 -1.073,-1.01 -1.702,-1.352 -0.628,-0.341 -1.349,-0.511 -2.161,-0.511 -0.637,0 -1.199,0.105 -1.686,0.316 -0.486,0.211 -0.895,0.508 -1.225,0.891 -0.329,0.383 -0.576,0.847 -0.741,1.392 -0.165,0.544 -0.247,1.146 -0.247,1.805 V 0 Z" />
          </g>
          <g
             transform="translate(287.7383,65.6021)"
             id="g3953">
            <path
               inkscape:connector-curvature="0"
               id="path3955"
               style="fill:#000000;fill-opacity:1;fill-rule:nonzero;stroke:none"
               d="m 0,0 v 11.649 h 1.173 c 0.223,0 0.376,-0.042 0.46,-0.126 0.085,-0.085 0.142,-0.23 0.173,-0.437 L 1.943,9.269 c 0.399,0.813 0.892,1.447 1.479,1.903 0.586,0.456 1.274,0.684 2.063,0.684 0.323,0 0.614,-0.036 0.874,-0.109 0.261,-0.073 0.502,-0.174 0.725,-0.305 L 6.819,9.913 C 6.766,9.721 6.647,9.625 6.463,9.625 6.355,9.625 6.19,9.662 5.969,9.735 5.746,9.808 5.436,9.844 5.037,9.844 4.324,9.844 3.728,9.637 3.249,9.223 2.77,8.809 2.369,8.207 2.047,7.417 V 0 Z" />
          </g>
          <g
             transform="translate(300.4229,62.1636)"
             id="g3957">
            <path
               inkscape:connector-curvature="0"
               id="path3959"
               style="fill:#000000;fill-opacity:1;fill-rule:nonzero;stroke:none"
               d="M 0,0 C -0.069,-0.153 -0.155,-0.276 -0.259,-0.368 -0.362,-0.46 -0.521,-0.506 -0.736,-0.506 h -1.518 l 2.127,4.623 -4.807,10.971 h 1.771 c 0.177,0 0.314,-0.044 0.414,-0.132 0.1,-0.088 0.173,-0.186 0.219,-0.293 L 0.586,7.326 C 0.655,7.157 0.715,6.988 0.765,6.819 0.814,6.651 0.858,6.478 0.896,6.302 0.95,6.478 1.004,6.651 1.058,6.819 1.111,6.988 1.173,7.161 1.241,7.337 l 3.025,7.326 c 0.046,0.122 0.125,0.224 0.236,0.304 0.111,0.081 0.231,0.121 0.362,0.121 h 1.633 z" />
          </g>
          <path
             inkscape:connector-curvature="0"
             id="path3961"
             style="fill:#000000;fill-opacity:1;fill-rule:nonzero;stroke:none"
             d="m 95.213,39.888 h -2.047 v 11.649 h 2.047 z m 0.46,15.306 c 0,-0.199 -0.041,-0.385 -0.121,-0.558 -0.08,-0.172 -0.188,-0.325 -0.322,-0.46 -0.134,-0.134 -0.29,-0.239 -0.466,-0.316 -0.176,-0.076 -0.364,-0.115 -0.563,-0.115 -0.2,0 -0.386,0.039 -0.558,0.115 -0.172,0.077 -0.326,0.182 -0.46,0.316 -0.134,0.135 -0.24,0.288 -0.316,0.46 -0.077,0.173 -0.115,0.359 -0.115,0.558 0,0.2 0.038,0.389 0.115,0.57 0.076,0.179 0.182,0.337 0.316,0.471 0.134,0.134 0.288,0.24 0.46,0.316 0.172,0.077 0.358,0.115 0.558,0.115 0.199,0 0.387,-0.038 0.563,-0.115 0.176,-0.076 0.332,-0.182 0.466,-0.316 0.134,-0.134 0.242,-0.292 0.322,-0.471 0.08,-0.181 0.121,-0.37 0.121,-0.57" />
          <g
             transform="translate(115.5786,48.1221)"
             id="g3963">
            <path
               inkscape:connector-curvature="0"
               id="path3965"
               style="fill:#000000;fill-opacity:1;fill-rule:nonzero;stroke:none"
               d="M 0,0 C 0,1.012 -0.138,1.916 -0.414,2.714 -0.69,3.511 -1.081,4.186 -1.587,4.737 -2.093,5.29 -2.707,5.711 -3.427,6.002 -4.147,6.294 -4.949,6.439 -5.83,6.439 H -9.752 V -6.429 h 3.922 c 0.881,0 1.683,0.146 2.403,0.437 0.72,0.292 1.334,0.711 1.84,1.26 0.506,0.547 0.897,1.22 1.173,2.017 C -0.138,-1.917 0,-1.013 0,0 m 2.289,0 c 0,-1.234 -0.196,-2.357 -0.587,-3.37 -0.391,-1.012 -0.943,-1.878 -1.656,-2.599 -0.713,-0.72 -1.568,-1.278 -2.565,-1.674 -0.996,-0.394 -2.1,-0.591 -3.311,-0.591 h -6.164 V 8.245 h 6.164 c 1.211,0 2.315,-0.197 3.311,-0.592 C -1.522,7.258 -0.667,6.698 0.046,5.974 0.759,5.25 1.311,4.381 1.702,3.369 2.093,2.357 2.289,1.234 2.289,0" />
          </g>
          <g
             transform="translate(128.7109,50.6631)"
             id="g3967">
            <path
               inkscape:connector-curvature="0"
               id="path3969"
               style="fill:#000000;fill-opacity:1;fill-rule:nonzero;stroke:none"
               d="m 0,0 c 0,-0.146 -0.027,-0.285 -0.08,-0.42 -0.054,-0.134 -0.123,-0.255 -0.207,-0.362 l -6.302,-8.395 h 6.359 v -1.598 h -8.774 v 0.85 c 0,0.1 0.025,0.217 0.075,0.352 0.05,0.134 0.12,0.261 0.212,0.385 l 6.337,8.452 h -6.267 v 1.61 H 0 Z" />
          </g>
          <path
             inkscape:connector-curvature="0"
             id="path3971"
             style="fill:#000000;fill-opacity:1;fill-rule:nonzero;stroke:none"
             d="m 133.483,39.888 h -2.047 v 11.649 h 2.047 z m 0.46,15.306 c 0,-0.199 -0.04,-0.385 -0.121,-0.558 -0.08,-0.172 -0.187,-0.325 -0.322,-0.46 -0.134,-0.134 -0.289,-0.239 -0.465,-0.316 -0.177,-0.076 -0.365,-0.115 -0.564,-0.115 -0.199,0 -0.385,0.039 -0.557,0.115 -0.173,0.077 -0.327,0.182 -0.46,0.316 -0.135,0.135 -0.24,0.288 -0.317,0.46 -0.076,0.173 -0.115,0.359 -0.115,0.558 0,0.2 0.039,0.389 0.115,0.57 0.077,0.179 0.182,0.337 0.317,0.471 0.133,0.134 0.287,0.24 0.46,0.316 0.172,0.077 0.358,0.115 0.557,0.115 0.199,0 0.387,-0.038 0.564,-0.115 0.176,-0.076 0.331,-0.182 0.465,-0.316 0.135,-0.134 0.242,-0.292 0.322,-0.471 0.081,-0.181 0.121,-0.37 0.121,-0.57" />
          <g
             transform="translate(141.7515,50.2148)"
             id="g3973">
            <path
               inkscape:connector-curvature="0"
               id="path3975"
               style="fill:#000000;fill-opacity:1;fill-rule:nonzero;stroke:none"
               d="m 0,0 c -0.989,0 -1.767,-0.286 -2.334,-0.856 -0.568,-0.572 -0.92,-1.364 -1.059,-2.375 h 6.337 c 0,0.474 -0.066,0.91 -0.195,1.304 C 2.618,-1.531 2.426,-1.19 2.173,-0.903 1.92,-0.615 1.612,-0.394 1.248,-0.236 0.883,-0.079 0.467,0 0,0 M -0.046,1.507 C 0.651,1.507 1.295,1.39 1.886,1.155 2.476,0.922 2.986,0.584 3.416,0.144 3.845,-0.297 4.18,-0.842 4.421,-1.489 4.663,-2.138 4.784,-2.875 4.784,-3.703 4.784,-4.025 4.75,-4.24 4.68,-4.347 4.611,-4.455 4.481,-4.508 4.29,-4.508 h -7.751 c 0.015,-0.736 0.114,-1.377 0.298,-1.921 0.184,-0.544 0.437,-0.999 0.76,-1.362 0.321,-0.364 0.705,-0.637 1.15,-0.816 0.444,-0.181 0.942,-0.271 1.494,-0.271 0.514,0 0.957,0.059 1.329,0.178 0.371,0.119 0.691,0.247 0.96,0.386 0.268,0.137 0.492,0.265 0.673,0.384 0.18,0.119 0.335,0.179 0.465,0.179 0.169,0 0.299,-0.065 0.392,-0.195 L 4.634,-8.694 C 4.381,-9.001 4.079,-9.268 3.726,-9.493 3.373,-9.72 2.996,-9.905 2.593,-10.051 2.19,-10.197 1.775,-10.306 1.345,-10.379 0.916,-10.452 0.49,-10.488 0.069,-10.488 c -0.805,0 -1.547,0.136 -2.225,0.408 -0.679,0.272 -1.265,0.671 -1.76,1.196 -0.494,0.526 -0.879,1.175 -1.155,1.949 -0.277,0.775 -0.414,1.664 -0.414,2.668 0,0.813 0.124,1.572 0.373,2.278 0.249,0.705 0.608,1.316 1.075,1.834 0.468,0.517 1.039,0.924 1.714,1.218 0.675,0.295 1.433,0.444 2.277,0.444" />
          </g>
          <g
             transform="translate(153.377,41.3828)"
             id="g3977">
            <path
               inkscape:connector-curvature="0"
               id="path3979"
               style="fill:#000000;fill-opacity:1;fill-rule:nonzero;stroke:none"
               d="M 0,0 C 0.667,0 1.252,0.153 1.754,0.46 2.256,0.767 2.718,1.199 3.14,1.76 V 7.395 C 2.764,7.9 2.352,8.255 1.903,8.458 1.455,8.661 0.958,8.763 0.414,8.763 -0.674,8.763 -1.51,8.376 -2.093,7.602 -2.675,6.827 -2.967,5.723 -2.967,4.289 -2.967,3.53 -2.902,2.881 -2.771,2.34 -2.641,1.8 -2.449,1.354 -2.196,1.006 -1.943,0.657 -1.633,0.402 -1.265,0.241 -0.897,0.08 -0.475,0 0,0 m 3.968,-1.495 c -0.292,0 -0.476,0.141 -0.552,0.426 L 3.231,0.345 C 2.733,-0.261 2.164,-0.746 1.524,-1.11 0.884,-1.474 0.15,-1.656 -0.678,-1.656 c -0.667,0 -1.273,0.129 -1.817,0.385 -0.545,0.257 -1.008,0.634 -1.392,1.133 -0.383,0.498 -0.678,1.119 -0.885,1.863 -0.207,0.744 -0.311,1.598 -0.311,2.564 0,0.858 0.115,1.658 0.345,2.398 0.23,0.74 0.562,1.382 0.995,1.926 0.433,0.544 0.96,0.972 1.581,1.283 0.621,0.31 1.327,0.465 2.116,0.465 0.713,0 1.323,-0.121 1.829,-0.362 C 2.289,9.758 2.741,9.418 3.14,8.981 v 6.463 H 5.187 V -1.495 Z" />
          </g>
          <g
             transform="translate(170.1323,50.6631)"
             id="g3981">
            <path
               inkscape:connector-curvature="0"
               id="path3983"
               style="fill:#000000;fill-opacity:1;fill-rule:nonzero;stroke:none"
               d="m 0,0 c 0,-0.146 -0.027,-0.285 -0.08,-0.42 -0.054,-0.134 -0.123,-0.255 -0.207,-0.362 l -6.302,-8.395 h 6.359 v -1.598 h -8.774 v 0.85 c 0,0.1 0.025,0.217 0.075,0.352 0.05,0.134 0.12,0.261 0.212,0.385 l 6.337,8.452 h -6.267 v 1.61 H 0 Z" />
          </g>
          <path
             inkscape:connector-curvature="0"
             id="path3985"
             style="fill:#000000;fill-opacity:1;fill-rule:nonzero;stroke:none"
             d="m 174.905,39.888 h -2.047 v 11.649 h 2.047 z m 0.46,15.306 c 0,-0.199 -0.041,-0.385 -0.121,-0.558 -0.08,-0.172 -0.188,-0.325 -0.322,-0.46 -0.134,-0.134 -0.29,-0.239 -0.466,-0.316 -0.176,-0.076 -0.364,-0.115 -0.563,-0.115 -0.2,0 -0.386,0.039 -0.558,0.115 -0.172,0.077 -0.326,0.182 -0.46,0.316 -0.134,0.135 -0.24,0.288 -0.316,0.46 -0.077,0.173 -0.115,0.359 -0.115,0.558 0,0.2 0.038,0.389 0.115,0.57 0.076,0.179 0.182,0.337 0.316,0.471 0.134,0.134 0.288,0.24 0.46,0.316 0.172,0.077 0.358,0.115 0.558,0.115 0.199,0 0.387,-0.038 0.563,-0.115 0.176,-0.076 0.332,-0.182 0.466,-0.316 0.134,-0.134 0.242,-0.292 0.322,-0.471 0.08,-0.181 0.121,-0.37 0.121,-0.57" />
          <g
             transform="translate(186.4619,49.4668)"
             id="g3987">
            <path
               inkscape:connector-curvature="0"
               id="path3989"
               style="fill:#000000;fill-opacity:1;fill-rule:nonzero;stroke:none"
               d="m 0,0 c -0.062,-0.084 -0.123,-0.149 -0.184,-0.195 -0.062,-0.046 -0.149,-0.069 -0.265,-0.069 -0.114,0 -0.239,0.048 -0.373,0.144 -0.135,0.096 -0.305,0.201 -0.512,0.316 -0.207,0.115 -0.458,0.22 -0.753,0.316 -0.296,0.096 -0.658,0.144 -1.087,0.144 -0.568,0 -1.07,-0.102 -1.507,-0.304 -0.437,-0.205 -0.803,-0.498 -1.098,-0.88 -0.295,-0.384 -0.517,-0.848 -0.667,-1.392 -0.149,-0.545 -0.224,-1.154 -0.224,-1.829 0,-0.705 0.081,-1.332 0.241,-1.88 0.161,-0.548 0.387,-1.008 0.679,-1.38 0.291,-0.372 0.646,-0.655 1.063,-0.85 0.418,-0.197 0.888,-0.294 1.409,-0.294 0.499,0 0.909,0.059 1.231,0.178 0.322,0.119 0.59,0.251 0.805,0.397 0.214,0.145 0.391,0.277 0.529,0.396 0.138,0.12 0.276,0.179 0.414,0.179 0.176,0 0.306,-0.065 0.391,-0.195 L 0.667,-7.946 C 0.161,-8.567 -0.472,-9.021 -1.23,-9.309 -1.99,-9.597 -2.791,-9.74 -3.634,-9.74 c -0.729,0 -1.405,0.135 -2.03,0.402 -0.625,0.269 -1.167,0.657 -1.627,1.168 -0.46,0.51 -0.822,1.136 -1.087,1.88 -0.264,0.743 -0.396,1.591 -0.396,2.541 0,0.866 0.12,1.668 0.362,2.404 0.241,0.736 0.594,1.37 1.058,1.904 0.463,0.532 1.037,0.948 1.719,1.247 0.682,0.298 1.464,0.449 2.346,0.449 0.812,0 1.533,-0.133 2.162,-0.398 C -0.499,1.593 0.057,1.22 0.541,0.736 Z" />
          </g>
          <g
             transform="translate(192.7861,39.7041)"
             id="g3991">
            <path
               inkscape:connector-curvature="0"
               id="path3993"
               style="fill:#000000;fill-opacity:1;fill-rule:nonzero;stroke:none"
               d="m 0,0 c -0.92,0 -1.627,0.257 -2.121,0.771 -0.495,0.512 -0.742,1.252 -0.742,2.218 v 7.13 h -1.403 c -0.123,0 -0.226,0.037 -0.311,0.11 -0.084,0.073 -0.126,0.186 -0.126,0.339 v 0.817 l 1.909,0.241 0.471,3.6 c 0.016,0.115 0.066,0.209 0.15,0.281 0.084,0.073 0.192,0.11 0.322,0.11 h 1.035 V 11.604 H 2.519 V 10.119 H -0.816 V 3.128 c 0,-0.491 0.119,-0.856 0.356,-1.093 0.238,-0.237 0.545,-0.356 0.92,-0.356 0.215,0 0.401,0.028 0.559,0.086 0.156,0.057 0.293,0.121 0.408,0.19 C 1.541,2.023 1.639,2.087 1.72,2.145 1.8,2.202 1.871,2.23 1.933,2.23 2.04,2.23 2.136,2.165 2.22,2.035 L 2.817,1.058 C 2.465,0.728 2.04,0.469 1.541,0.281 1.043,0.094 0.529,0 0,0" />
          </g>
          <g
             transform="translate(196.3164,51.5371)"
             id="g3995">
            <path
               inkscape:connector-curvature="0"
               id="path3997"
               style="fill:#000000;fill-opacity:1;fill-rule:nonzero;stroke:none"
               d="m 0,0 h 1.609 c 0.169,0 0.307,-0.042 0.414,-0.126 0.108,-0.085 0.181,-0.185 0.219,-0.3 l 2.232,-7.498 c 0.06,-0.275 0.118,-0.542 0.172,-0.799 0.053,-0.256 0.099,-0.515 0.138,-0.776 0.061,0.261 0.13,0.52 0.207,0.776 0.076,0.257 0.156,0.524 0.241,0.799 l 2.461,7.544 c 0.038,0.115 0.106,0.211 0.202,0.288 0.095,0.076 0.216,0.115 0.362,0.115 h 0.886 c 0.153,0 0.279,-0.039 0.378,-0.115 0.1,-0.077 0.169,-0.173 0.208,-0.288 l 2.403,-7.544 c 0.085,-0.267 0.159,-0.532 0.224,-0.793 0.066,-0.261 0.128,-0.517 0.19,-0.77 0.038,0.253 0.088,0.517 0.149,0.793 0.062,0.276 0.127,0.533 0.196,0.77 l 2.277,7.498 c 0.038,0.123 0.111,0.225 0.219,0.305 C 15.494,-0.04 15.62,0 15.766,0 h 1.541 l -3.772,-11.649 h -1.621 c -0.2,0 -0.338,0.129 -0.414,0.39 L 8.924,-3.358 C 8.862,-3.182 8.813,-3.003 8.774,-2.823 8.735,-2.644 8.697,-2.465 8.659,-2.288 8.621,-2.465 8.582,-2.645 8.544,-2.829 8.506,-3.013 8.456,-3.193 8.395,-3.369 l -2.611,-7.89 C 5.7,-11.52 5.543,-11.649 5.312,-11.649 H 3.771 Z" />
          </g>
          <g
             transform="translate(218.6943,41.1416)"
             id="g3999">
            <path
               inkscape:connector-curvature="0"
               id="path4001"
               style="fill:#000000;fill-opacity:1;fill-rule:nonzero;stroke:none"
               d="M 0,0 C 0.36,0 0.69,0.036 0.989,0.108 1.288,0.182 1.569,0.285 1.834,0.419 2.099,0.554 2.352,0.717 2.593,0.908 2.835,1.1 3.07,1.318 3.301,1.563 V 3.967 C 2.357,3.967 1.557,3.907 0.897,3.788 0.237,3.668 -0.299,3.512 -0.713,3.319 -1.127,3.127 -1.428,2.899 -1.615,2.637 -1.804,2.375 -1.897,2.082 -1.897,1.758 c 0,-0.309 0.049,-0.574 0.149,-0.798 0.1,-0.224 0.233,-0.407 0.402,-0.55 C -1.177,0.268 -0.978,0.163 -0.747,0.098 -0.518,0.032 -0.269,0 0,0 M 5.312,-1.254 H 4.404 c -0.199,0 -0.36,0.03 -0.482,0.092 -0.123,0.061 -0.204,0.191 -0.242,0.391 L 3.45,0.311 C 3.144,0.034 2.844,-0.213 2.553,-0.432 2.262,-0.65 1.955,-0.834 1.633,-0.983 1.311,-1.133 0.968,-1.246 0.604,-1.323 0.239,-1.399 -0.165,-1.437 -0.609,-1.437 c -0.453,0 -0.876,0.063 -1.271,0.189 -0.395,0.127 -0.738,0.317 -1.029,0.571 -0.292,0.254 -0.524,0.575 -0.696,0.964 -0.172,0.389 -0.259,0.849 -0.259,1.379 0,0.462 0.127,0.906 0.38,1.333 0.253,0.427 0.661,0.806 1.224,1.137 0.564,0.331 1.302,0.601 2.214,0.813 0.912,0.212 2.027,0.318 3.347,0.318 v 0.914 c 0,0.91 -0.195,1.598 -0.581,2.065 -0.388,0.467 -0.96,0.7 -1.719,0.7 -0.499,0 -0.919,-0.062 -1.26,-0.189 C -0.6,8.63 -0.896,8.488 -1.145,8.331 -1.394,8.174 -1.608,8.032 -1.788,7.906 -1.969,7.779 -2.146,7.716 -2.323,7.716 c -0.138,0 -0.259,0.036 -0.363,0.109 -0.103,0.073 -0.185,0.163 -0.247,0.271 l -0.368,0.655 c 0.645,0.621 1.338,1.085 2.082,1.392 0.743,0.306 1.568,0.46 2.473,0.46 0.651,0 1.23,-0.108 1.736,-0.323 C 3.496,10.065 3.922,9.767 4.267,9.384 4.611,9 4.872,8.536 5.049,7.992 5.225,7.447 5.312,6.85 5.312,6.198 Z" />
          </g>
          <g
             transform="translate(233.4658,56.2925)"
             id="g4003">
            <path
               inkscape:connector-curvature="0"
               id="path4005"
               style="fill:#000000;fill-opacity:1;fill-rule:nonzero;stroke:none"
               d="m 0,0 c 0.096,-0.05 0.205,-0.151 0.328,-0.305 l 9.544,-12.42 c -0.022,0.199 -0.038,0.393 -0.046,0.581 -0.008,0.187 -0.011,0.37 -0.011,0.546 V 0.075 h 1.955 v -16.48 h -1.127 c -0.176,0 -0.324,0.03 -0.443,0.092 -0.119,0.062 -0.235,0.165 -0.35,0.311 L 0.316,-3.594 C 0.331,-3.786 0.343,-3.973 0.351,-4.158 0.358,-4.341 0.362,-4.51 0.362,-4.664 v -11.741 h -1.955 v 16.48 h 1.151 C -0.243,0.075 -0.096,0.05 0,0" />
          </g>
          <g
             transform="translate(252.1816,41.1416)"
             id="g4007">
            <path
               inkscape:connector-curvature="0"
               id="path4009"
               style="fill:#000000;fill-opacity:1;fill-rule:nonzero;stroke:none"
               d="M 0,0 C 0.36,0 0.69,0.036 0.989,0.108 1.288,0.182 1.569,0.285 1.834,0.419 2.099,0.554 2.352,0.717 2.593,0.908 2.835,1.1 3.07,1.318 3.301,1.563 V 3.967 C 2.357,3.967 1.557,3.907 0.897,3.788 0.237,3.668 -0.299,3.512 -0.713,3.319 -1.127,3.127 -1.428,2.899 -1.615,2.637 -1.804,2.375 -1.897,2.082 -1.897,1.758 c 0,-0.309 0.049,-0.574 0.149,-0.798 0.1,-0.224 0.233,-0.407 0.402,-0.55 C -1.177,0.268 -0.978,0.163 -0.747,0.098 -0.518,0.032 -0.269,0 0,0 M 5.312,-1.254 H 4.404 c -0.199,0 -0.36,0.03 -0.482,0.092 -0.123,0.061 -0.204,0.191 -0.242,0.391 L 3.45,0.311 C 3.144,0.034 2.844,-0.213 2.553,-0.432 2.262,-0.65 1.955,-0.834 1.633,-0.983 1.311,-1.133 0.968,-1.246 0.604,-1.323 0.239,-1.399 -0.165,-1.437 -0.609,-1.437 c -0.453,0 -0.876,0.063 -1.271,0.189 -0.395,0.127 -0.738,0.317 -1.029,0.571 -0.292,0.254 -0.524,0.575 -0.696,0.964 -0.172,0.389 -0.259,0.849 -0.259,1.379 0,0.462 0.127,0.906 0.38,1.333 0.253,0.427 0.661,0.806 1.224,1.137 0.564,0.331 1.302,0.601 2.214,0.813 0.912,0.212 2.027,0.318 3.347,0.318 v 0.914 c 0,0.91 -0.195,1.598 -0.581,2.065 -0.388,0.467 -0.96,0.7 -1.719,0.7 -0.499,0 -0.919,-0.062 -1.26,-0.189 C -0.6,8.63 -0.896,8.488 -1.145,8.331 -1.394,8.174 -1.608,8.032 -1.788,7.906 -1.969,7.779 -2.146,7.716 -2.323,7.716 c -0.138,0 -0.259,0.036 -0.363,0.109 -0.103,0.073 -0.185,0.163 -0.247,0.271 l -0.368,0.655 c 0.645,0.621 1.338,1.085 2.082,1.392 0.743,0.306 1.568,0.46 2.473,0.46 0.651,0 1.23,-0.108 1.736,-0.323 C 3.496,10.065 3.922,9.767 4.267,9.384 4.611,9 4.872,8.536 5.049,7.992 5.225,7.447 5.312,6.85 5.312,6.198 Z" />
          </g>
          <g
             transform="translate(260.5986,39.8877)"
             id="g4011">
            <path
               inkscape:connector-curvature="0"
               id="path4013"
               style="fill:#000000;fill-opacity:1;fill-rule:nonzero;stroke:none"
               d="m 0,0 v 11.649 h 1.173 c 0.223,0 0.376,-0.042 0.46,-0.126 0.085,-0.085 0.142,-0.23 0.173,-0.437 L 1.943,9.269 c 0.399,0.813 0.892,1.447 1.479,1.903 0.586,0.456 1.274,0.684 2.063,0.684 0.323,0 0.614,-0.036 0.874,-0.109 0.261,-0.073 0.502,-0.174 0.725,-0.305 L 6.819,9.913 C 6.766,9.722 6.647,9.626 6.463,9.626 6.355,9.626 6.19,9.662 5.969,9.734 5.746,9.808 5.436,9.844 5.037,9.844 4.324,9.844 3.728,9.637 3.249,9.223 2.77,8.809 2.369,8.207 2.047,7.418 V 0 Z" />
          </g>
          <g
             transform="translate(274.582,41.3252)"
             id="g4015">
            <path
               inkscape:connector-curvature="0"
               id="path4017"
               style="fill:#000000;fill-opacity:1;fill-rule:nonzero;stroke:none"
               d="M 0,0 C 1.15,0 2.009,0.385 2.576,1.155 3.144,1.926 3.427,3.002 3.427,4.382 3.427,5.77 3.144,6.85 2.576,7.624 2.009,8.398 1.15,8.786 0,8.786 -0.582,8.786 -1.089,8.687 -1.518,8.487 -1.947,8.287 -2.306,8 -2.593,7.624 -2.881,7.249 -3.095,6.787 -3.237,6.238 -3.379,5.69 -3.449,5.071 -3.449,4.382 -3.449,3.691 -3.379,3.074 -3.237,2.53 -3.095,1.985 -2.881,1.527 -2.593,1.155 -2.306,0.784 -1.947,0.498 -1.518,0.299 -1.089,0.1 -0.582,0 0,0 m 0,10.396 c 0.852,0 1.62,-0.142 2.306,-0.425 C 2.992,9.687 3.575,9.284 4.054,8.763 4.533,8.241 4.901,7.611 5.158,6.871 5.415,6.131 5.543,5.306 5.543,4.393 5.543,3.473 5.415,2.645 5.158,1.909 4.901,1.173 4.533,0.544 4.054,0.023 3.575,-0.498 2.992,-0.899 2.306,-1.179 1.62,-1.459 0.852,-1.599 0,-1.599 c -0.851,0 -1.619,0.14 -2.306,0.42 -0.685,0.28 -1.27,0.681 -1.754,1.202 -0.482,0.521 -0.854,1.15 -1.115,1.886 -0.261,0.736 -0.39,1.564 -0.39,2.484 0,0.913 0.129,1.738 0.39,2.478 0.261,0.74 0.633,1.37 1.115,1.892 0.484,0.521 1.069,0.924 1.754,1.208 0.687,0.283 1.455,0.425 2.306,0.425" />
          </g>
          <g
             transform="translate(286.8877,41.3828)"
             id="g4019">
            <path
               inkscape:connector-curvature="0"
               id="path4021"
               style="fill:#000000;fill-opacity:1;fill-rule:nonzero;stroke:none"
               d="M 0,0 C 0.667,0 1.251,0.153 1.754,0.46 2.256,0.767 2.718,1.199 3.14,1.76 V 7.395 C 2.764,7.9 2.352,8.255 1.903,8.458 1.454,8.661 0.958,8.763 0.414,8.763 -0.675,8.763 -1.511,8.376 -2.093,7.602 -2.676,6.827 -2.967,5.723 -2.967,4.289 -2.967,3.53 -2.902,2.881 -2.771,2.34 -2.642,1.8 -2.45,1.354 -2.196,1.006 -1.943,0.657 -1.633,0.402 -1.266,0.241 -0.897,0.08 -0.476,0 0,0 m 3.967,-1.495 c -0.291,0 -0.475,0.141 -0.552,0.426 L 3.231,0.345 C 2.732,-0.261 2.163,-0.746 1.523,-1.11 0.883,-1.474 0.149,-1.656 -0.679,-1.656 c -0.667,0 -1.272,0.129 -1.817,0.385 -0.544,0.257 -1.008,0.634 -1.391,1.133 -0.384,0.498 -0.678,1.119 -0.885,1.863 -0.207,0.744 -0.311,1.598 -0.311,2.564 0,0.858 0.115,1.658 0.345,2.398 0.23,0.74 0.561,1.382 0.995,1.926 0.432,0.544 0.96,0.972 1.581,1.283 0.621,0.31 1.326,0.465 2.116,0.465 0.713,0 1.322,-0.121 1.828,-0.362 C 2.288,9.758 2.74,9.418 3.14,8.981 v 6.463 H 5.187 V -1.495 Z" />
          </g>
          <g
             transform="translate(300.2266,41.3252)"
             id="g4023">
            <path
               inkscape:connector-curvature="0"
               id="path4025"
               style="fill:#000000;fill-opacity:1;fill-rule:nonzero;stroke:none"
               d="M 0,0 C 1.15,0 2.009,0.385 2.576,1.155 3.144,1.926 3.427,3.002 3.427,4.382 3.427,5.77 3.144,6.85 2.576,7.624 2.009,8.398 1.15,8.786 0,8.786 -0.582,8.786 -1.089,8.687 -1.518,8.487 -1.947,8.287 -2.306,8 -2.593,7.624 -2.881,7.249 -3.095,6.787 -3.237,6.238 -3.379,5.69 -3.449,5.071 -3.449,4.382 -3.449,3.691 -3.379,3.074 -3.237,2.53 -3.095,1.985 -2.881,1.527 -2.593,1.155 -2.306,0.784 -1.947,0.498 -1.518,0.299 -1.089,0.1 -0.582,0 0,0 m 0,10.396 c 0.852,0 1.62,-0.142 2.306,-0.425 C 2.992,9.687 3.575,9.284 4.054,8.763 4.533,8.241 4.901,7.611 5.158,6.871 5.415,6.131 5.543,5.306 5.543,4.393 5.543,3.473 5.415,2.645 5.158,1.909 4.901,1.173 4.533,0.544 4.054,0.023 3.575,-0.498 2.992,-0.899 2.306,-1.179 1.62,-1.459 0.852,-1.599 0,-1.599 c -0.851,0 -1.619,0.14 -2.306,0.42 -0.685,0.28 -1.27,0.681 -1.754,1.202 -0.482,0.521 -0.854,1.15 -1.115,1.886 -0.261,0.736 -0.39,1.564 -0.39,2.484 0,0.913 0.129,1.738 0.39,2.478 0.261,0.74 0.633,1.37 1.115,1.892 0.484,0.521 1.069,0.924 1.754,1.208 0.687,0.283 1.455,0.425 2.306,0.425" />
          </g>
          <g
             transform="translate(306.7822,51.5371)"
             id="g4027">
            <path
               inkscape:connector-curvature="0"
               id="path4029"
               style="fill:#000000;fill-opacity:1;fill-rule:nonzero;stroke:none"
               d="m 0,0 h 1.609 c 0.169,0 0.307,-0.042 0.414,-0.126 0.108,-0.085 0.181,-0.185 0.219,-0.3 l 2.232,-7.498 c 0.06,-0.275 0.118,-0.542 0.172,-0.799 0.053,-0.256 0.099,-0.515 0.138,-0.776 0.061,0.261 0.13,0.52 0.207,0.776 0.076,0.257 0.156,0.524 0.241,0.799 l 2.461,7.544 c 0.038,0.115 0.106,0.211 0.202,0.288 0.095,0.076 0.216,0.115 0.362,0.115 h 0.886 c 0.153,0 0.279,-0.039 0.378,-0.115 0.1,-0.077 0.169,-0.173 0.208,-0.288 l 2.403,-7.544 c 0.085,-0.267 0.159,-0.532 0.224,-0.793 0.066,-0.261 0.128,-0.517 0.19,-0.77 0.038,0.253 0.088,0.517 0.149,0.793 0.062,0.276 0.127,0.533 0.196,0.77 l 2.277,7.498 c 0.038,0.123 0.111,0.225 0.219,0.305 C 15.494,-0.04 15.62,0 15.766,0 h 1.541 l -3.772,-11.649 h -1.621 c -0.2,0 -0.338,0.129 -0.414,0.39 L 8.924,-3.358 C 8.862,-3.182 8.813,-3.003 8.774,-2.823 8.735,-2.644 8.697,-2.465 8.659,-2.288 8.621,-2.465 8.582,-2.645 8.544,-2.829 8.506,-3.013 8.456,-3.193 8.395,-3.369 l -2.611,-7.89 C 5.7,-11.52 5.543,-11.649 5.312,-11.649 H 3.771 Z" />
          </g>
          <g
             transform="translate(330.5742,50.2148)"
             id="g4031">
            <path
               inkscape:connector-curvature="0"
               id="path4033"
               style="fill:#000000;fill-opacity:1;fill-rule:nonzero;stroke:none"
               d="m 0,0 c -0.988,0 -1.767,-0.286 -2.334,-0.856 -0.567,-0.572 -0.92,-1.364 -1.058,-2.375 h 6.336 c 0,0.474 -0.065,0.91 -0.195,1.304 C 2.618,-1.531 2.427,-1.19 2.174,-0.903 1.921,-0.615 1.612,-0.394 1.248,-0.236 0.884,-0.079 0.468,0 0,0 M -0.046,1.507 C 0.652,1.507 1.296,1.39 1.887,1.155 2.477,0.922 2.986,0.584 3.416,0.144 3.845,-0.297 4.181,-0.842 4.422,-1.489 4.664,-2.138 4.784,-2.875 4.784,-3.703 4.784,-4.025 4.75,-4.24 4.681,-4.347 4.612,-4.455 4.481,-4.508 4.29,-4.508 h -7.751 c 0.016,-0.736 0.115,-1.377 0.299,-1.921 0.184,-0.544 0.437,-0.999 0.759,-1.362 0.322,-0.364 0.705,-0.637 1.15,-0.816 0.444,-0.181 0.942,-0.271 1.495,-0.271 0.514,0 0.956,0.059 1.328,0.178 0.372,0.119 0.692,0.247 0.96,0.386 0.269,0.137 0.492,0.265 0.673,0.384 0.18,0.119 0.335,0.179 0.466,0.179 0.168,0 0.299,-0.065 0.391,-0.195 L 4.635,-8.694 C 4.382,-9.001 4.079,-9.268 3.727,-9.493 3.374,-9.72 2.996,-9.905 2.594,-10.051 c -0.403,-0.146 -0.819,-0.255 -1.248,-0.328 -0.43,-0.073 -0.855,-0.109 -1.277,-0.109 -0.804,0 -1.547,0.136 -2.225,0.408 -0.678,0.272 -1.265,0.671 -1.759,1.196 -0.495,0.526 -0.88,1.175 -1.156,1.949 -0.276,0.775 -0.414,1.664 -0.414,2.668 0,0.813 0.125,1.572 0.374,2.278 0.249,0.705 0.607,1.316 1.075,1.834 0.468,0.517 1.039,0.924 1.714,1.218 0.674,0.295 1.433,0.444 2.276,0.444" />
          </g>
          <g
             transform="translate(341.8906,45.5801)"
             id="g4035">
            <path
               inkscape:connector-curvature="0"
               id="path4037"
               style="fill:#000000;fill-opacity:1;fill-rule:nonzero;stroke:none"
               d="M 0,0 C 0.414,0 0.78,0.058 1.098,0.173 1.416,0.288 1.683,0.448 1.897,0.655 2.111,0.862 2.272,1.11 2.38,1.397 2.487,1.685 2.541,2.001 2.541,2.346 2.541,3.06 2.324,3.626 1.892,4.048 1.458,4.47 0.828,4.681 0,4.681 -0.82,4.681 -1.447,4.47 -1.881,4.048 -2.313,3.626 -2.53,3.06 -2.53,2.346 -2.53,2.001 -2.475,1.685 -2.363,1.397 -2.252,1.11 -2.09,0.862 -1.875,0.655 -1.66,0.448 -1.396,0.288 -1.081,0.173 -0.767,0.058 -0.406,0 0,0 m 3.634,-6.283 c 0,0.297 -0.081,0.535 -0.241,0.715 -0.162,0.179 -0.38,0.319 -0.657,0.417 -0.275,0.097 -0.593,0.17 -0.954,0.216 -0.36,0.047 -0.74,0.071 -1.138,0.071 h -1.219 c -0.414,0 -0.809,0.052 -1.185,0.155 -0.436,-0.207 -0.792,-0.461 -1.063,-0.761 -0.273,-0.299 -0.408,-0.656 -0.408,-1.07 0,-0.262 0.066,-0.505 0.201,-0.731 0.134,-0.227 0.339,-0.423 0.615,-0.588 0.275,-0.165 0.623,-0.296 1.041,-0.392 0.417,-0.096 0.91,-0.144 1.478,-0.144 0.551,0 1.045,0.051 1.483,0.153 0.436,0.101 0.807,0.246 1.109,0.433 0.303,0.188 0.535,0.412 0.697,0.669 0.16,0.258 0.241,0.543 0.241,0.857 M 0,6.152 C 0.506,6.152 0.979,6.097 1.42,5.986 1.86,5.875 2.262,5.712 2.622,5.497 H 5.784 V 4.738 C 5.784,4.485 5.623,4.324 5.301,4.255 L 3.979,4.071 C 4.239,3.572 4.37,3.017 4.37,2.403 4.37,1.836 4.261,1.32 4.042,0.856 3.823,0.393 3.521,-0.004 3.134,-0.333 2.746,-0.663 2.286,-0.916 1.754,-1.093 1.221,-1.269 0.636,-1.356 0,-1.356 c -0.545,0 -1.059,0.064 -1.541,0.195 -0.246,-0.159 -0.432,-0.329 -0.558,-0.512 -0.127,-0.181 -0.19,-0.36 -0.19,-0.535 0,-0.285 0.111,-0.501 0.334,-0.647 0.223,-0.147 0.518,-0.252 0.886,-0.316 0.367,-0.063 0.785,-0.095 1.253,-0.095 h 1.431 c 0.488,0 0.964,-0.043 1.432,-0.128 C 3.515,-3.479 3.933,-3.619 4.301,-3.813 4.669,-4.007 4.964,-4.275 5.187,-4.616 5.408,-4.958 5.52,-5.4 5.52,-5.943 5.52,-6.448 5.395,-6.937 5.146,-7.41 4.896,-7.884 4.538,-8.305 4.07,-8.674 3.603,-9.042 3.032,-9.337 2.357,-9.559 1.683,-9.779 0.92,-9.89 0.068,-9.89 c -0.85,0 -1.596,0.084 -2.236,0.253 -0.641,0.169 -1.171,0.396 -1.593,0.68 -0.422,0.283 -0.738,0.611 -0.948,0.983 -0.211,0.373 -0.316,0.762 -0.316,1.169 0,0.576 0.181,1.066 0.546,1.468 0.364,0.402 0.864,0.724 1.5,0.961 -0.33,0.153 -0.592,0.358 -0.788,0.614 -0.195,0.257 -0.293,0.6 -0.293,1.029 0,0.168 0.031,0.341 0.092,0.522 0.062,0.18 0.155,0.357 0.282,0.533 0.126,0.177 0.282,0.345 0.466,0.506 0.184,0.16 0.399,0.302 0.644,0.425 -0.575,0.321 -1.026,0.749 -1.352,1.282 -0.325,0.532 -0.488,1.155 -0.488,1.868 0,0.568 0.109,1.083 0.328,1.547 0.218,0.464 0.523,0.859 0.914,1.185 0.391,0.326 0.857,0.577 1.397,0.753 0.541,0.176 1.132,0.264 1.777,0.264" />
          </g>
          <g
             transform="translate(354.4355,41.3252)"
             id="g4039">
            <path
               inkscape:connector-curvature="0"
               id="path4041"
               style="fill:#000000;fill-opacity:1;fill-rule:nonzero;stroke:none"
               d="M 0,0 C 1.15,0 2.009,0.385 2.576,1.155 3.144,1.926 3.427,3.002 3.427,4.382 3.427,5.77 3.144,6.85 2.576,7.624 2.009,8.398 1.15,8.786 0,8.786 -0.582,8.786 -1.089,8.687 -1.518,8.487 -1.947,8.287 -2.306,8 -2.593,7.624 -2.881,7.249 -3.095,6.787 -3.237,6.238 -3.379,5.69 -3.449,5.071 -3.449,4.382 -3.449,3.691 -3.379,3.074 -3.237,2.53 -3.095,1.985 -2.881,1.527 -2.593,1.155 -2.306,0.784 -1.947,0.498 -1.518,0.299 -1.089,0.1 -0.582,0 0,0 m 0,10.396 c 0.852,0 1.62,-0.142 2.306,-0.425 C 2.992,9.687 3.575,9.284 4.054,8.763 4.533,8.241 4.901,7.611 5.158,6.871 5.415,6.131 5.543,5.306 5.543,4.393 5.543,3.473 5.415,2.645 5.158,1.909 4.901,1.173 4.533,0.544 4.054,0.023 3.575,-0.498 2.992,-0.899 2.306,-1.179 1.62,-1.459 0.852,-1.599 0,-1.599 c -0.851,0 -1.619,0.14 -2.306,0.42 -0.685,0.28 -1.27,0.681 -1.754,1.202 -0.482,0.521 -0.854,1.15 -1.115,1.886 -0.261,0.736 -0.39,1.564 -0.39,2.484 0,0.913 0.129,1.738 0.39,2.478 0.261,0.74 0.633,1.37 1.115,1.892 0.484,0.521 1.069,0.924 1.754,1.208 0.687,0.283 1.455,0.425 2.306,0.425" />
          </g>
          <g
             transform="translate(53.3635,84.6155)"
             id="g4043">
            <path
               inkscape:connector-curvature="0"
               id="path4045"
               style="fill:#000000;fill-opacity:1;fill-rule:nonzero;stroke:none"
               d="M 0,0 C -0.196,-0.058 -0.451,-0.012 -0.636,0.097 -0.99,0.308 -0.603,1.331 0.088,1.756 0.57,0.985 0.441,0.131 0,0 m 4.549,-58.668 c 0.58,0 1.09,0.08 1.531,0.238 -0.017,-0.199 -0.15,-0.607 -0.472,-0.97 -0.21,-0.239 -0.565,-0.523 -1.059,-0.523 -1.012,0 -2.244,1.023 -3.37,2.357 0.81,-0.511 2.145,-1.102 3.37,-1.102 m -13.778,-1.255 c -0.494,0 -0.849,0.284 -1.059,0.523 -0.321,0.363 -0.455,0.771 -0.471,0.97 0.439,-0.158 0.951,-0.238 1.53,-0.238 1.226,0 2.561,0.591 3.371,1.102 -1.127,-1.334 -2.359,-2.357 -3.371,-2.357 m 5.185,60.02 C -4.229,-0.012 -4.484,-0.058 -4.68,0 -5.121,0.131 -5.249,0.985 -4.769,1.756 -4.076,1.331 -3.689,0.308 -4.044,0.097 m 29.567,-27.159 c 0.674,-0.1 1.351,-0.153 2.024,-0.153 1.452,0 2.64,0.244 3.267,0.473 l 0.402,0.146 -0.161,0.396 c -0.495,1.215 -1.874,2.495 -4.022,3.743 0.794,0.132 1.463,0.317 2.017,0.557 1.078,0.468 1.722,1.161 1.915,2.059 0.045,0.207 0.063,0.748 0.063,0.748 0,0 -0.455,-0.198 -0.645,-0.29 -0.412,-0.199 -1.85,-0.412 -4.647,-0.412 -0.24,0 -0.482,0.001 -0.727,0.004 1.223,0.245 2.237,0.538 3.097,0.893 1.407,0.581 2.281,1.276 3.127,1.948 0.124,0.098 0.443,0.393 0.443,0.393 0,0 -0.368,0.221 -0.508,0.294 -0.958,0.502 -2.16,1.009 -3.982,1.39 0.486,0.289 0.9,0.566 1.255,0.846 0.702,0.553 1.606,1.435 1.357,2.706 -0.031,0.157 -0.184,0.572 -0.184,0.572 0,0 -0.329,-0.223 -0.459,-0.315 -0.443,-0.316 -1.666,-0.932 -4.802,-2.137 1.608,1.013 3.623,2.567 4.426,4.312 0.051,0.112 0.19,0.452 0.19,0.452 0,0 -0.86,0.267 -1.791,0.267 -0.6,0 -1.295,-0.066 -2.096,-0.198 0.146,0.165 0.276,0.323 0.391,0.476 0.812,1.076 0.988,2.024 0.555,2.985 -0.074,0.166 -0.381,0.494 -0.381,0.494 0,0 -0.229,-0.28 -0.333,-0.429 -0.344,-0.497 -1.097,-1.122 -2.203,-1.904 0.916,1.082 1.501,2.247 1.763,3.721 0.02,0.112 0.067,0.449 0.067,0.449 0,0 -0.402,0.055 -0.772,0.055 -1.275,0 -2.805,-0.401 -4.285,-1.114 0.957,1.011 1.864,2.468 2.2,3.606 0.043,0.144 0.121,0.535 0.121,0.535 0,0 -0.36,0.008 -0.55,-0.008 C 19.36,0.303 16.95,-0.458 14.493,-1.776 12.351,-2.926 10.63,-4.251 9.565,-5.16 6.606,-7.684 5.021,-11.028 5.527,-13.678 c 0.207,-1.081 0.842,-2.466 2.607,-3.453 l 0.034,-0.278 c 0.101,-0.82 -0.033,-1.649 -0.342,-2.111 -0.653,-0.98 -1.94,-1.154 -3.273,-1.18 l -0.085,0.188 c -0.915,2.031 -1.468,4.363 -1.604,5.525 -0.094,0.799 0.361,3.211 0.574,4.657 0.273,1.849 0.555,3.76 -0.203,5.015 0.302,0.176 0.549,0.42 0.709,0.717 0.298,0.547 0.263,1.177 -0.095,1.727 L 3.625,-2.526 3.28,-2.749 C 3.244,-2.772 3.208,-2.794 3.172,-2.815 c 0.021,0.061 0.033,0.116 0.041,0.161 0.089,0.505 -0.162,1.044 -0.611,1.311 L 2.39,-1.217 2.179,-1.343 C 2.016,-1.441 1.814,-1.516 1.572,-1.569 2.021,-0.498 2.733,0.55 3.38,1.503 3.804,2.126 4.203,2.713 4.51,3.272 l 0.416,0.756 c 0,0 -0.777,-0.242 -1.537,-0.242 C 2.774,3.745 2.075,3.697 1.729,3.229 1.7,3.19 1.677,3.149 1.657,3.108 1.513,3.181 1.35,3.22 1.182,3.22 0.913,3.22 0.653,3.12 0.43,2.936 0.317,3.466 -0.281,3.854 -0.979,3.854 -0.995,4.491 -1.456,5.044 -1.764,5.415 -1.858,5.528 -2.34,6.164 -2.34,6.164 c 0,0 -0.481,-0.636 -0.576,-0.749 C -3.224,5.044 -3.684,4.491 -3.701,3.854 -4.399,3.854 -4.998,3.466 -5.11,2.936 -5.333,3.12 -5.593,3.22 -5.862,3.22 -6.03,3.22 -6.193,3.181 -6.337,3.108 -6.356,3.149 -6.38,3.19 -6.408,3.229 c -0.347,0.468 -1.045,0.516 -1.661,0.557 -0.76,0 -1.537,0.242 -1.537,0.242 L -9.19,3.272 c 0.307,-0.559 0.707,-1.146 1.13,-1.769 0.711,-1.048 1.501,-2.21 1.934,-3.391 -0.207,-0.206 -0.288,-0.452 -0.307,-0.681 h -0.332 c -1.543,0 -2.111,-0.814 -2.311,-1.3 -0.412,-0.994 -0.036,-2.234 0.415,-2.684 l 0.344,-0.344 0.282,0.396 c 0.208,0.291 0.522,0.352 0.749,0.352 0.319,0 0.66,-0.12 0.911,-0.322 l 0.148,-0.119 0.187,0.036 c 0.182,0.035 0.364,0.052 0.542,0.052 0.475,0 0.922,-0.13 1.263,-0.36 -0.109,0.029 -0.227,0.052 -0.357,0.065 -0.138,0.013 -0.276,0.02 -0.412,0.02 -1.014,0 -1.763,-0.375 -2.422,-0.707 -0.147,-0.073 -0.284,-0.142 -0.42,-0.205 -0.105,-0.048 -0.235,-0.073 -0.387,-0.073 -0.436,0 -0.874,0.2 -0.878,0.202 l -0.438,0.205 -0.133,-0.465 c -0.11,-0.387 -0.047,-0.763 0.177,-1.061 0.266,-0.353 0.739,-0.555 1.297,-0.555 0.212,0 0.437,0.029 0.666,0.085 0.44,0.108 0.782,0.272 1.081,0.43 0.003,-0.192 0.051,-0.331 0.06,-0.356 l 0.154,-0.413 0.401,0.181 c 0.006,0.003 0.625,0.277 1.181,0.277 0.059,0 0.115,-0.003 0.167,-0.009 0.086,-0.011 0.176,-0.025 0.269,-0.041 l 0.056,-0.05 c 0.391,-0.347 0.556,-0.762 0.502,-1.269 -0.136,-1.297 -1.571,-3.456 -2.466,-4.365 -1.412,-1.433 -1.927,-2.745 -2.316,-3.828 -0.222,-0.615 -0.413,-1.146 -0.733,-1.601 l -0.211,-0.3 c -1.274,0.037 -2.483,0.235 -3.109,1.175 -0.308,0.462 -0.443,1.291 -0.341,2.111 l 0.034,0.278 c 1.764,0.987 2.399,2.372 2.606,3.453 0.507,2.65 -1.078,5.994 -4.037,8.518 -1.066,0.909 -2.786,2.234 -4.928,3.384 -2.458,1.318 -4.868,2.079 -7.163,2.274 -0.19,0.016 -0.55,0.008 -0.55,0.008 0,0 0.079,-0.391 0.121,-0.535 0.336,-1.138 1.244,-2.595 2.2,-3.606 -1.48,0.713 -3.009,1.114 -4.285,1.114 -0.369,0 -0.771,-0.055 -0.771,-0.055 0,0 0.047,-0.337 0.067,-0.449 0.262,-1.474 0.847,-2.639 1.762,-3.721 -1.106,0.782 -1.859,1.407 -2.203,1.904 -0.103,0.149 -0.332,0.429 -0.332,0.429 0,0 -0.307,-0.328 -0.382,-0.494 -0.433,-0.961 -0.257,-1.909 0.555,-2.985 0.116,-0.153 0.245,-0.311 0.391,-0.476 -0.8,0.132 -1.496,0.198 -2.095,0.198 -0.931,0 -1.792,-0.267 -1.792,-0.267 0,0 0.139,-0.34 0.191,-0.452 0.802,-1.745 2.817,-3.299 4.425,-4.312 -3.136,1.205 -4.359,1.821 -4.802,2.137 -0.13,0.092 -0.458,0.315 -0.458,0.315 0,0 -0.154,-0.415 -0.185,-0.572 -0.249,-1.271 0.656,-2.153 1.357,-2.706 0.356,-0.28 0.77,-0.557 1.256,-0.846 -1.823,-0.381 -3.024,-0.888 -3.982,-1.39 -0.141,-0.073 -0.509,-0.294 -0.509,-0.294 0,0 0.319,-0.295 0.443,-0.393 0.846,-0.672 1.721,-1.367 3.127,-1.948 0.86,-0.355 1.875,-0.648 3.097,-0.893 -0.244,-0.003 -0.487,-0.004 -0.726,-0.004 -2.798,0 -4.235,0.213 -4.648,0.412 -0.189,0.092 -0.644,0.29 -0.644,0.29 0,0 0.018,-0.541 0.062,-0.748 0.193,-0.898 0.838,-1.591 1.916,-2.059 0.553,-0.24 1.223,-0.425 2.016,-0.557 -2.148,-1.248 -3.527,-2.528 -4.022,-3.743 l -0.161,-0.396 0.402,-0.146 c 0.628,-0.229 1.815,-0.473 3.267,-0.473 0.673,0 1.35,0.053 2.024,0.153 -2.193,-1.507 -3.965,-2.367 -4.999,-2.407 l -1.081,-0.042 0.834,-0.688 c 0.784,-0.646 1.739,-0.974 2.84,-0.974 1.122,0 2.414,0.333 3.904,1.008 -0.742,-0.997 -1.389,-2.049 -1.932,-3.15 -1.201,-2.436 -1.628,-4.561 -1.774,-5.914 l -0.065,-0.603 0.584,0.161 c 3.089,0.851 5.401,2.058 8.111,5.48 -1.801,-3.488 -3.968,-7.625 -5.17,-8.217 l -1.189,-0.584 1.311,-0.193 c 0.361,-0.052 0.684,-0.078 0.988,-0.078 1.162,0 2.116,0.39 3.003,1.227 0.944,0.891 1.845,2.316 2.836,4.482 0.052,0.116 0.121,0.281 0.201,0.483 -0.07,-0.339 -0.137,-0.679 -0.199,-1.019 -0.627,-3.416 -0.643,-5.873 -0.05,-7.51 l 0.194,-0.537 0.448,0.354 c 1.724,1.361 3.033,3.047 4,5.144 -0.117,-0.577 -0.22,-1.057 -0.299,-1.376 l -0.196,-0.804 0.76,0.328 c 1.134,0.489 2.678,2.071 3.785,6.754 0.171,-0.372 0.345,-0.672 0.501,-0.886 l 0.255,-0.353 0.338,0.274 c 0.504,0.408 1.121,1.288 1.61,2.295 0.352,0.724 1.228,2.968 1.414,4.288 0.77,-0.072 1.689,-0.089 2.641,0.319 0.181,-0.641 0.336,-1.193 0.392,-1.393 -0.13,0.008 -0.257,0.013 -0.378,0.013 -2.581,0 -3.141,-1.619 -3.512,-2.689 -0.751,-2.173 -3.546,-8.169 -7.444,-10.728 0,0 0.95,-0.908 2.921,-0.952 -1.114,-1.506 -3.338,-4.336 -5.394,-6.63 -0.079,-0.066 -0.156,-0.16 -0.474,-0.163 -0.408,-0.005 -1.049,0.163 -1.823,0.424 -0.586,0.197 -1.421,0.321 -2.126,0.326 -0.216,0.554 -0.815,1.217 -1.746,1.217 -0.535,0 -1.02,-0.209 -1.364,-0.587 -0.237,-0.259 -0.394,-0.58 -0.459,-0.927 -0.338,0.087 -0.59,-0.123 -0.71,-0.346 -0.072,-0.133 -0.097,-0.284 -0.079,-0.43 l -0.002,-0.002 c -0.398,-0.323 -0.615,-0.764 -0.609,-1.24 0.006,-0.566 0.316,-1.128 0.852,-1.544 l 0.437,-0.34 0.2,0.517 c 0.141,0.365 0.471,0.752 0.837,1.052 0.192,-0.032 0.381,-0.05 0.563,-0.05 0.766,0 1.261,0.282 1.545,0.527 0.738,-0.333 1.098,-0.596 1.765,-0.684 -0.362,-0.156 -0.623,-0.203 -0.746,-0.242 -0.308,-0.099 -0.603,-0.194 -0.947,-0.421 -0.334,0.272 -0.736,0.419 -1.162,0.419 -0.348,0 -0.7,-0.102 -0.99,-0.287 -0.717,-0.456 -1.04,-1.334 -0.785,-2.134 0.007,-0.021 0.014,-0.043 0.023,-0.064 -0.099,-0.088 -0.171,-0.208 -0.199,-0.349 -0.049,-0.245 0.034,-0.588 0.392,-0.831 -0.094,-0.555 0.041,-0.985 0.332,-1.326 0.341,-0.399 0.894,-0.628 1.517,-0.628 0.261,0 0.737,0.046 0.737,0.046 l -0.196,0.517 c -0.137,0.363 -0.145,0.777 -0.09,1.225 0.57,0.261 1.011,0.803 1.147,1.395 0.944,0.115 1.674,0.51 2.518,1.265 0,0 -0.384,-0.584 -0.574,-0.903 -0.055,-0.091 -0.111,-0.186 -0.172,-0.286 -0.048,0.003 -0.096,0.005 -0.143,0.005 -0.759,0 -1.366,-0.381 -1.667,-1.045 -0.298,-0.659 -0.219,-1.445 0.191,-1.912 0.035,-0.04 0.072,-0.079 0.11,-0.115 -0.083,-0.106 -0.132,-0.245 -0.13,-0.398 0.003,-0.269 0.168,-0.563 0.525,-0.691 0.069,-0.899 0.75,-1.501 1.702,-1.501 0.559,0 1.238,0.268 1.238,0.268 l -0.306,0.461 c -0.217,0.329 -0.335,0.707 -0.368,1.237 0.679,0.529 0.881,1.451 0.604,2.343 0.631,0.61 0.984,1.33 1.3,1.974 0.034,0.07 0.068,0.139 0.101,0.207 0.632,-0.155 1.274,-0.188 1.707,-0.188 0.175,0 0.337,0.005 0.475,0.014 0.137,-0.475 0.419,-0.847 0.827,-1.097 -0.02,-0.466 -0.07,-0.917 -0.248,-1.235 l -0.253,-0.453 c 0,0 0.666,-0.211 1.063,-0.211 0.528,0 0.995,0.179 1.315,0.503 0.284,0.286 0.434,0.711 0.441,1.149 0.444,0.129 0.595,0.483 0.587,0.757 -0.005,0.171 -0.068,0.327 -0.168,0.442 0.339,0.449 0.365,1.14 0.104,1.708 -0.295,0.647 -0.969,1.071 -1.727,1.095 -0.391,0.012 -0.736,-0.14 -1.013,-0.264 -0.212,-0.095 -0.394,-0.177 -0.569,-0.177 -0.031,0 -0.063,0.003 -0.094,0.008 -0.072,0.27 -0.115,0.656 0.22,1.027 0.571,0.631 3.048,2.735 5.038,4.426 0.416,0.353 0.791,0.672 1.126,0.958 0.996,-1.35 2.363,-1.533 2.363,-1.533 0.342,3.213 1.165,6.031 2.957,8.377 -0.2,-2.369 -0.696,-4.356 -1.445,-5.736 l -0.504,-0.93 1.001,0.344 c 0.439,0.152 0.819,0.376 1.151,0.684 -0.35,-1.879 -1.208,-3.62 -2.321,-3.62 -0.282,0 -0.584,0.111 -0.9,0.332 l -0.453,0.315 -0.174,-0.523 c -0.333,-0.999 -0.078,-1.661 0.195,-2.039 0.375,-0.52 1.026,-0.831 1.74,-0.831 0.567,0 1.073,0.124 1.515,0.32 -1.006,-1.247 -2.639,-2.377 -3.94,-2.377 -0.319,0 -0.453,0.118 -0.525,0.205 -0.231,0.282 -0.248,0.857 -0.166,1.273 l 0.107,0.546 -0.554,-0.057 c -0.476,-0.049 -1.025,-0.36 -1.468,-0.832 -0.502,-0.534 -0.778,-1.176 -0.778,-1.811 0,-0.838 0.256,-1.558 0.741,-2.08 0.107,-0.116 0.223,-0.22 0.35,-0.314 -0.967,-0.532 -1.518,-1.418 -1.518,-2.457 0,-0.955 0.45,-1.831 1.265,-2.467 0.717,-0.557 1.644,-0.877 2.546,-0.877 1.408,0 2.655,0.404 3.708,1.2 0.618,0.468 1.107,1.025 1.485,1.537 0.048,-2.297 0.486,-4.197 1.33,-5.836 l 0.367,-0.711 0.366,0.711 c 0.844,1.639 1.281,3.539 1.329,5.836 0.379,-0.512 0.868,-1.069 1.486,-1.537 1.052,-0.796 2.3,-1.2 3.707,-1.2 0.902,0 1.83,0.32 2.546,0.877 0.816,0.636 1.265,1.512 1.265,2.467 0,1.039 -0.551,1.925 -1.517,2.457 0.126,0.094 0.243,0.198 0.35,0.314 0.484,0.522 0.74,1.242 0.74,2.08 0,0.635 -0.276,1.277 -0.777,1.811 -0.444,0.472 -0.993,0.783 -1.469,0.832 -0.139,0.015 -0.554,0.057 -0.554,0.057 l 0.107,-0.546 c 0.082,-0.416 0.065,-0.991 -0.165,-1.273 -0.072,-0.087 -0.206,-0.205 -0.526,-0.205 -1.3,0 -2.933,1.13 -3.94,2.377 0.443,-0.196 0.948,-0.32 1.515,-0.32 0.715,0 1.365,0.311 1.74,0.831 0.273,0.378 0.528,1.04 0.195,2.039 l -0.174,0.523 -0.452,-0.315 c -0.317,-0.221 -0.619,-0.332 -0.9,-0.332 -1.114,0 -1.972,1.741 -2.322,3.62 0.332,-0.307 0.713,-0.532 1.152,-0.684 l 1.001,-0.344 -0.505,0.93 c -0.748,1.38 -1.244,3.367 -1.445,5.736 1.793,-2.346 2.615,-5.164 2.958,-8.377 0,0 1.366,0.183 2.362,1.533 0.335,-0.286 0.71,-0.605 1.126,-0.958 1.99,-1.691 4.467,-3.795 5.039,-4.426 0.335,-0.371 0.292,-0.757 0.219,-1.027 -0.031,-0.005 -0.062,-0.008 -0.094,-0.008 -0.175,0 -0.357,0.082 -0.569,0.177 -0.277,0.124 -0.621,0.276 -1.013,0.264 C 9.684,-53.74 9.01,-54.164 8.715,-54.811 8.454,-55.379 8.48,-56.07 8.819,-56.519 8.72,-56.634 8.657,-56.79 8.652,-56.961 c -0.009,-0.274 0.142,-0.628 0.587,-0.757 0.006,-0.438 0.156,-0.863 0.44,-1.149 0.32,-0.324 0.788,-0.503 1.315,-0.503 0.397,0 1.063,0.211 1.063,0.211 l -0.253,0.453 c -0.178,0.318 -0.228,0.769 -0.248,1.235 0.408,0.25 0.69,0.622 0.827,1.097 0.138,-0.009 0.3,-0.014 0.475,-0.014 0.433,0 1.075,0.033 1.707,0.188 0.034,-0.068 0.067,-0.137 0.102,-0.207 0.315,-0.644 0.669,-1.364 1.3,-1.974 -0.277,-0.892 -0.076,-1.814 0.604,-2.343 -0.034,-0.53 -0.151,-0.908 -0.369,-1.237 l -0.306,-0.461 c 0,0 0.679,-0.268 1.238,-0.268 0.952,0 1.633,0.602 1.702,1.501 0.357,0.128 0.522,0.422 0.525,0.691 0.002,0.153 -0.047,0.292 -0.13,0.398 0.038,0.036 0.075,0.075 0.11,0.115 0.41,0.467 0.489,1.253 0.19,1.912 -0.3,0.664 -0.907,1.045 -1.666,1.045 -0.047,0 -0.094,-0.002 -0.143,-0.005 -0.06,0.1 -0.117,0.195 -0.171,0.286 -0.191,0.319 -0.575,0.903 -0.575,0.903 0.845,-0.755 1.573,-1.15 2.518,-1.265 0.137,-0.592 0.578,-1.134 1.147,-1.395 0.056,-0.448 0.048,-0.862 -0.09,-1.225 l -0.196,-0.517 c 0,0 0.476,-0.046 0.737,-0.046 0.623,0 1.176,0.229 1.517,0.628 0.291,0.341 0.426,0.771 0.332,1.326 0.359,0.243 0.441,0.586 0.392,0.831 -0.029,0.141 -0.1,0.261 -0.198,0.349 0.008,0.021 0.015,0.043 0.023,0.064 0.254,0.8 -0.069,1.678 -0.786,2.134 -0.29,0.185 -0.642,0.287 -0.99,0.287 -0.426,0 -0.828,-0.147 -1.162,-0.419 -0.344,0.227 -0.639,0.322 -0.947,0.421 -0.122,0.039 -0.383,0.086 -0.745,0.242 0.667,0.088 1.026,0.351 1.764,0.684 0.285,-0.245 0.779,-0.527 1.545,-0.527 0.182,0 0.371,0.018 0.563,0.05 0.367,-0.3 0.696,-0.687 0.837,-1.052 l 0.2,-0.517 0.437,0.34 c 0.535,0.416 0.846,0.978 0.853,1.544 0.005,0.476 -0.212,0.917 -0.609,1.24 l -0.003,0.002 c 0.018,0.146 -0.006,0.297 -0.079,0.43 -0.119,0.223 -0.373,0.433 -0.709,0.346 -0.066,0.347 -0.223,0.668 -0.459,0.927 -0.345,0.378 -0.83,0.587 -1.364,0.587 -0.932,0 -1.532,-0.663 -1.747,-1.217 -0.705,-0.005 -1.54,-0.129 -2.126,-0.326 -0.774,-0.261 -1.414,-0.429 -1.823,-0.424 -0.318,0.003 -0.395,0.097 -0.474,0.163 -2.056,2.294 -4.279,5.124 -5.394,6.63 1.972,0.044 2.921,0.952 2.921,0.952 -3.898,2.559 -6.693,8.555 -7.444,10.728 -0.37,1.07 -0.93,2.689 -3.512,2.689 -0.121,0 -0.249,-0.005 -0.38,-0.013 0.057,0.2 0.211,0.752 0.393,1.394 0.953,-0.409 1.872,-0.392 2.642,-0.32 0.186,-1.32 1.063,-3.564 1.414,-4.288 0.49,-1.007 1.106,-1.887 1.611,-2.295 l 0.337,-0.274 0.255,0.353 c 0.156,0.214 0.331,0.514 0.502,0.886 1.107,-4.683 2.651,-6.265 3.784,-6.754 l 0.761,-0.328 -0.197,0.804 c -0.078,0.319 -0.181,0.799 -0.299,1.376 0.968,-2.097 2.277,-3.783 4,-5.144 l 0.448,-0.354 0.195,0.537 c 0.592,1.637 0.576,4.094 -0.05,7.51 -0.063,0.34 -0.13,0.68 -0.2,1.019 0.08,-0.202 0.149,-0.367 0.202,-0.483 0.99,-2.166 1.891,-3.591 2.836,-4.482 0.886,-0.837 1.841,-1.227 3.003,-1.227 0.304,0 0.627,0.026 0.988,0.078 l 1.31,0.193 -1.188,0.584 c -1.203,0.592 -3.37,4.729 -5.171,8.217 2.711,-3.422 5.022,-4.629 8.112,-5.48 l 0.583,-0.161 -0.064,0.603 c -0.146,1.353 -0.573,3.478 -1.775,5.914 -0.543,1.101 -1.189,2.153 -1.931,3.15 1.489,-0.675 2.782,-1.008 3.904,-1.008 1.1,0 2.056,0.328 2.839,0.974 l 0.834,0.688 -1.08,0.042 c -1.034,0.04 -2.807,0.9 -5,2.407" />
          </g>
          <g
             transform="translate(50.5302,80.9967)"
             id="g4047">
            <path
               inkscape:connector-curvature="0"
               id="path4049"
               style="fill:#ffffff;fill-opacity:1;fill-rule:nonzero;stroke:none"
               d="M 0,0 C 0.216,0 0.391,0.174 0.392,0.39 0.147,0.382 -0.116,0.347 -0.38,0.299 -0.338,0.128 -0.184,0 0,0 m -1.64,0.012 c 0.152,-0.769 0.826,-1.349 1.64,-1.349 0.903,0 1.638,0.716 1.671,1.611 C 1.481,0.305 1.305,0.329 1.145,0.348 1.12,-0.264 0.618,-0.753 0,-0.753 c -0.546,0 -1.001,0.382 -1.118,0.892 C -1.191,0.121 -1.262,0.104 -1.331,0.087 -1.439,0.06 -1.542,0.035 -1.64,0.012 m 6.927,-11.414 c -0.301,2.259 1.695,7.413 0.425,9.499 0,0 -0.033,-0.003 -0.086,-0.003 -0.168,0 -0.544,0.033 -0.771,0.314 h 0.023 c 1.309,0 2.103,1.125 1.459,2.115 C 5.966,0.285 5.498,0.092 5.067,0.092 4.887,0.092 4.714,0.126 4.556,0.203 5.956,0.466 5.821,1.567 5.224,1.922 4.738,1.632 4.078,1.539 3.325,1.539 c -1.334,0 -2.965,0.292 -4.444,0.292 -0.343,0 -0.678,-0.016 -1,-0.055 -0.749,-0.09 -1.074,-0.377 -1.074,-0.842 0,-0.381 0.485,-0.634 0.787,-0.634 0.519,0 1.844,0.505 2.9,0.505 0.983,0 2.823,-0.428 3.4,-0.562 C 3.759,0.164 3.482,0.037 3.102,0.037 2.974,0.037 2.834,0.051 2.685,0.087 2.472,0.13 2.271,0.169 2.082,0.204 2.012,-0.885 1.105,-1.749 0,-1.749 c -1.01,0 -1.852,0.721 -2.044,1.676 -0.136,-0.024 -0.257,-0.038 -0.362,-0.038 -0.048,0 -0.096,0.003 -0.144,0.01 0.075,-0.554 0.238,-0.979 0.467,-1.209 0.351,-0.354 0.867,-0.594 1.367,-0.826 0.926,-0.431 1.976,-0.919 1.976,-2.223 0,-0.951 -0.492,-1.475 -1.385,-1.475 -0.197,0 -0.401,0.023 -0.606,0.055 1.166,-1.683 -1.835,-5.418 -2.206,-5.786 -2.056,-2.039 -2.105,-4.063 -3.079,-5.448 h 0.203 c 1.21,0 3.653,0.081 3.653,2.988 0,-2.609 2.654,-4.38 2.654,-4.38 0,0 2.651,1.771 2.651,4.38 0,-2.827 2.704,-3.045 3.539,-3.045 0.152,0 0.242,0.007 0.242,0.007 -0.88,1.95 -1.465,4.351 -1.639,5.661 m -8.792,6.634 c -0.369,-0.197 -0.755,-0.43 -1.301,-0.564 -0.204,-0.05 -0.395,-0.073 -0.569,-0.073 -0.79,0 -1.253,0.474 -1.078,1.091 0,0 0.514,-0.241 1.053,-0.241 0.19,0 0.384,0.03 0.56,0.111 0.751,0.347 1.539,0.874 2.669,0.874 0.12,0 0.244,-0.006 0.372,-0.018 0.481,-0.048 0.747,-0.236 0.894,-0.423 -0.258,0.034 -0.552,0.064 -0.843,0.064 -0.258,0 -0.476,-0.023 -0.666,-0.071 -0.532,-0.132 -0.897,-0.381 -1.084,-0.737 -0.003,-0.005 -0.005,-0.009 -0.007,-0.013 m 15.949,-36.758 c -1.144,0 -2.38,0.278 -3.593,0.81 0.044,-2.225 -0.636,-3.942 -2.314,-4.446 -0.422,3.505 -1.437,6.272 -3.341,8.611 -0.032,0.566 -0.05,1.149 -0.05,1.751 0,2.386 0.549,5.416 0.986,6.798 0.215,0.019 0.417,0.028 0.606,0.028 2.24,0 2.701,-1.305 3.123,-2.412 2.637,-6.914 5.376,-9.223 7.089,-10.599 -0.742,-0.366 -1.595,-0.541 -2.506,-0.541 M -9.794,-56.863 c 0,-1.8 1.816,-2.933 3.398,-2.933 2.775,0 4.262,1.633 5.191,3.04 0.009,0.726 0.077,1.488 0.137,2.295 0.018,0.238 0.045,0.953 0.045,0.953 -0.072,0.436 -0.129,0.889 -0.168,1.356 -0.688,-1.059 -3.101,-4.565 -5.205,-4.565 -1.296,0 -2.01,1.463 -1.939,2.03 -1.01,-0.487 -1.459,-1.308 -1.459,-2.176 m 0.427,4.851 c 0,-1.301 0.69,-2.626 2.971,-2.626 1.389,0 2.961,0.852 3.541,1.311 0.391,0.312 1.074,1.096 1.625,1.777 -0.02,0.414 -0.03,0.836 -0.011,1.262 0.009,0.21 0.034,0.628 0.05,0.838 0.04,0.541 0.124,1.082 0.237,1.619 -0.181,-0.208 -0.395,-0.416 -0.64,-0.607 -0.935,-1.612 -3.089,-3.31 -4.802,-3.31 -1.266,0 -1.202,1.427 -1.095,1.97 -0.728,-0.076 -1.876,-1.061 -1.876,-2.234 m 5.397,3.145 c 2.004,0 3.156,1.759 3.339,2.32 -0.112,0.38 -0.327,1.51 -0.406,2.018 -0.138,0.884 -0.179,1.811 -0.216,2.685 -0.094,-0.176 -0.194,-0.339 -0.3,-0.489 -0.002,-0.027 -0.005,-0.055 -0.008,-0.078 -0.304,-2.326 -1.335,-4.535 -2.818,-4.535 -0.354,0 -0.734,0.126 -1.136,0.406 -0.511,-1.532 0.511,-2.327 1.545,-2.327 m 13.292,-5.82 c 0.07,-0.567 -0.643,-2.03 -1.94,-2.03 -2.103,0 -4.516,3.506 -5.205,4.565 -0.038,-0.467 -0.095,-0.92 -0.167,-1.356 0,0 0.027,-0.715 0.044,-0.953 0.06,-0.807 0.128,-1.569 0.138,-2.295 0.929,-1.407 2.415,-3.04 5.19,-3.04 1.582,0 3.399,1.133 3.399,2.933 0,0.868 -0.449,1.689 -1.459,2.176 m -8.468,-2.53 c -0.089,-0.161 -0.36,-0.613 -0.36,-0.613 0,0 -0.272,0.452 -0.361,0.613 -0.305,0.545 -0.597,1.312 -0.838,2.217 -0.26,-3.082 0.009,-5.81 1.199,-8.118 1.188,2.308 1.458,5.036 1.197,8.117 -0.24,-0.904 -0.532,-1.671 -0.837,-2.216 m 7.624,7.439 c 0.107,-0.543 0.171,-1.97 -1.096,-1.97 -1.713,0 -3.866,1.698 -4.802,3.31 -0.244,0.191 -0.458,0.399 -0.639,0.607 0.113,-0.537 0.197,-1.078 0.236,-1.619 0.016,-0.21 0.041,-0.628 0.051,-0.838 0.019,-0.426 0.008,-0.848 -0.011,-1.262 0.551,-0.681 1.233,-1.465 1.625,-1.777 0.581,-0.459 2.152,-1.311 3.54,-1.311 2.282,0 2.972,1.325 2.972,2.626 0,1.173 -1.148,2.158 -1.876,2.234 m -7.658,1.532 c -0.08,-0.099 -0.326,-0.388 -0.326,-0.388 0,0 -0.247,0.289 -0.326,0.388 -0.223,0.276 -0.4,0.62 -0.556,1.001 -1.029,-3.76 -0.108,-7.978 0.882,-9.774 0.989,1.796 1.91,6.014 0.881,9.774 -0.156,-0.381 -0.333,-0.725 -0.555,-1.001 m 5.681,1.706 C 6.1,-46.82 5.72,-46.946 5.366,-46.946 c -1.483,0 -2.514,2.209 -2.818,4.535 -0.003,0.023 -0.006,0.051 -0.008,0.078 -0.106,0.15 -0.206,0.313 -0.3,0.489 -0.038,-0.874 -0.079,-1.801 -0.216,-2.685 -0.079,-0.508 -0.294,-1.638 -0.406,-2.018 0.182,-0.561 1.335,-2.32 3.339,-2.32 1.034,0 2.055,0.795 1.544,2.327 m -5.185,7.556 c -0.143,-0.33 -0.306,-0.627 -0.493,-0.875 -0.082,-0.11 -0.329,-0.437 -0.329,-0.437 0,0 -0.248,0.327 -0.331,0.437 -0.186,0.248 -0.349,0.545 -0.492,0.875 -0.161,-0.797 -0.342,-1.461 -0.547,-2.015 0.008,-0.135 0.014,-0.262 0.018,-0.378 0.08,-2.326 0.317,-5.276 1.352,-6.618 1.034,1.342 1.271,4.292 1.351,6.618 0.004,0.116 0.01,0.243 0.018,0.378 -0.205,0.554 -0.386,1.218 -0.547,2.015 m 1.419,4.184 c 0,2.339 0.531,5.392 0.988,6.87 -0.118,0.019 -0.287,0.053 -0.488,0.109 -0.222,-0.767 -0.588,-1.5 -0.97,-2.128 10e-4,-0.051 0.003,-0.101 0.003,-0.15 0.034,-0.644 0.233,-5.202 -0.675,-8.128 0.543,-3.149 1.334,-4.497 2.737,-4.98 -1.137,2.096 -1.595,5.292 -1.595,8.407 m -4.017,4.701 c 0.001,0.049 0.002,0.098 0.004,0.148 -0.383,0.628 -0.75,1.361 -0.971,2.13 -0.201,-0.056 -0.37,-0.089 -0.488,-0.108 0.458,-1.479 0.989,-4.532 0.989,-6.871 0,-3.115 -0.458,-6.311 -1.595,-8.407 1.403,0.483 2.194,1.831 2.737,4.98 -0.908,2.927 -0.709,7.484 -0.676,8.128 m 3.158,-0.449 c 0.104,-2.708 -0.062,-7.3 -1.382,-9.065 -1.32,1.764 -1.487,6.355 -1.383,9.063 0.546,-0.792 1.035,-1.319 1.082,-1.367 0.075,-0.08 0.3,-0.319 0.3,-0.319 0,0 0.225,0.239 0.299,0.319 0.047,0.049 0.537,0.575 1.084,1.369 m 0.029,3.327 c -0.485,0.319 -1.019,0.81 -1.412,1.554 -0.394,-0.744 -0.929,-1.235 -1.414,-1.554 -0.323,-0.213 -0.647,-0.364 -0.936,-0.472 0.596,-2.078 2.35,-3.942 2.35,-3.942 0,0 1.753,1.864 2.349,3.942 -0.289,0.108 -0.613,0.259 -0.937,0.472 m 1.703,5.113 c -0.835,-1.783 -2.395,-3 -2.792,-3.29 0.989,-1.974 3.124,-2.145 3.124,-2.145 0,0 0.823,2.944 1.137,3.975 0.081,0.267 0.149,0.55 0.196,0.837 -0.234,0.062 -0.895,0.251 -1.665,0.623 m -6.231,0 c -0.771,-0.372 -1.432,-0.561 -1.665,-0.623 0.047,-0.287 0.115,-0.57 0.196,-0.837 0.314,-1.031 1.137,-3.975 1.137,-3.975 0,0 2.135,0.171 3.124,2.145 -0.397,0.29 -1.958,1.507 -2.792,3.29 m 5.465,0.417 c -1.183,0.726 -1.977,1.638 -2.349,2.683 -0.373,-1.045 -1.167,-1.957 -2.35,-2.683 -0.133,-0.082 -0.265,-0.157 -0.396,-0.228 0.904,-1.939 2.746,-3.203 2.746,-3.203 0,0 1.841,1.264 2.746,3.203 -0.131,0.071 -0.264,0.146 -0.397,0.228 m 1.568,4.718 c -0.537,0.281 -0.951,0.668 -1.232,1.15 -0.661,-1.554 -1.989,-2.59 -2.361,-2.858 0.828,-2.792 4.638,-3.67 4.638,-3.67 0.318,1.491 1.266,3.298 1.097,4.87 -0.511,0.013 -1.365,0.102 -2.142,0.508 M 0.168,-18.68 c -0.826,-2.793 -4.638,-3.671 -4.638,-3.671 -0.322,1.51 -1.351,3.341 -1.106,4.927 0.561,0.007 1.46,0.059 2.229,0.447 0.516,0.26 0.909,0.629 1.176,1.104 0.667,-1.524 1.969,-2.54 2.339,-2.807 m 20.97,17.309 c -0.654,-0.53 -1.539,-1.25 -2.405,-1.955 -0.856,-0.696 -1.545,-1.256 -2.079,-1.689 -0.109,-0.465 -0.25,-0.908 -0.399,-1.301 0.991,0.841 2.576,1.916 4.368,2.005 0.095,0.005 0.37,0.021 0.37,0.021 0,0 0.048,-0.28 0.062,-0.371 0.106,-0.736 0.067,-1.454 -0.078,-2.13 1.852,1.425 3.745,2.953 4.235,3.465 1.11,1.161 1.754,2.384 2.092,4.004 -0.1,0.005 -0.201,0.008 -0.301,0.008 -1.543,0 -3.292,-0.601 -4.751,-1.405 -0.348,-0.193 -0.727,-0.415 -1.114,-0.652 m 8.264,-9.764 c 1.995,1.129 3.069,2.11 2.825,3.354 -0.989,-0.704 -4.452,-2.039 -6.839,-2.919 1.592,-0.085 2.909,-0.237 4.014,-0.435 m -8.561,3.814 c -0.276,-0.919 -0.728,-1.739 -1.218,-2.384 0.948,0.216 1.266,0.283 1.952,0.369 0.286,0.035 0.558,0.049 0.819,0.049 0.976,0 1.819,-0.236 2.82,-0.79 l 0.142,-0.079 c 1.433,0.745 4.756,2.805 5.888,5.07 -0.298,0.064 -0.682,0.122 -1.233,0.122 -0.964,0 -2.436,-0.178 -4.842,-0.814 -1.483,-0.392 -3.049,-0.998 -4.328,-1.543 m 1.46,1.034 c 0.887,0.338 1.842,0.664 2.763,0.907 0.792,0.21 1.515,0.379 2.174,0.508 1.361,1.394 1.712,2.386 1.248,3.414 -0.575,-0.832 -2.135,-1.943 -4.509,-3.488 -0.499,-0.409 -1.075,-0.869 -1.676,-1.341 m -11.16,-21.24 c -0.227,0.467 -0.44,0.984 -0.622,1.575 -0.039,0.128 -0.3,1.136 -0.3,1.136 0,0 -0.565,-1.146 -2.401,-1.602 0.348,-1.98 1.23,-4.771 2.859,-6.345 0.396,0.547 1.067,1.931 1.256,3.93 -0.292,0.386 -0.555,0.819 -0.792,1.306 m -0.67,14.832 c -0.095,0.178 -0.18,0.403 -0.228,0.592 -0.394,1.593 -0.119,3.531 0.744,5.153 1.043,1.962 2.863,3.551 5.279,4.555 0.126,0.053 0.496,0.203 0.496,0.203 0,0 0.058,-0.402 0.074,-0.538 0.061,-0.544 0.029,-1.107 -0.057,-1.653 1.782,1.446 4.33,3.527 4.982,4.04 1.063,0.838 2.346,2.643 2.761,4.049 -5.087,-0.423 -9.63,-3.661 -11.857,-5.561 -3.881,-3.31 -5.523,-8.288 -2.194,-10.84 M 26.95,-23.16 c -0.79,0.202 -2.32,0.718 -3.222,1.03 l -0.398,-0.068 c -0.135,-0.023 -0.272,-0.041 -0.41,-0.056 0.56,-0.604 0.993,-1.068 1.061,-1.134 0.842,-0.761 1.612,-1.572 2.308,-2.426 1.795,-0.91 3.266,-1.328 4.474,-1.328 1.04,0 1.886,0.31 2.577,0.88 -1.655,0.064 -4.392,1.87 -5.955,2.999 -0.146,0.032 -0.291,0.066 -0.435,0.103 m 1.33,4.711 c -0.68,0.341 -1.92,0.822 -3.101,1.257 -0.809,-0.314 -1.9,-0.551 -2.991,-0.551 -0.201,0 -0.929,0.051 -1.123,0.067 0,0 0.378,-0.365 0.503,-0.487 1.034,-1.007 1.774,-2.231 2.087,-3.506 0.85,-0.295 2.563,-0.879 3.397,-1.092 1.224,-0.313 2.355,-0.423 3.328,-0.423 1.488,0 2.607,0.258 3.127,0.448 -0.533,1.308 -2.277,2.805 -5.227,4.287 m -4.578,-5.242 c -0.058,0.053 -0.602,0.637 -1.306,1.397 -0.096,-0.004 -0.192,-0.006 -0.287,-0.006 -1.065,0 -2.154,0.196 -3.207,0.661 -0.192,0.086 -0.686,0.307 -0.686,0.307 0,0 0.224,-0.375 0.316,-0.523 0.335,-0.538 0.56,-1.102 0.738,-1.662 0.304,-0.952 0.404,-1.922 0.303,-2.895 3.989,-6.483 6.622,-8.153 10.582,-9.243 -0.366,3.381 -2.108,8.034 -6.453,11.964 m -8.288,-1.667 c -0.149,0.192 -0.593,0.76 -0.593,0.76 0,0 0.069,-0.696 0.092,-0.934 0.035,-0.373 0.058,-0.727 0.059,-1.064 0.006,-1.447 -0.319,-2.601 -0.991,-3.529 L 13.927,-30.2 c 0.922,-3.72 1.682,-8.317 5.89,-11.641 1.236,3.416 -0.64,10.273 -1.81,14.354 -0.94,0.449 -1.842,1.168 -2.593,2.129 m 5.729,-4.579 c -0.18,0.35 -0.484,0.94 -0.821,1.592 -0.275,0.411 -0.556,0.845 -0.843,1.303 -0.03,-0.159 -0.066,-0.319 -0.108,-0.478 l -0.106,-0.407 -0.404,0.115 c -0.123,0.035 -0.246,0.077 -0.368,0.122 0.204,-0.712 0.422,-1.489 0.638,-2.309 0.584,-1.66 1.166,-3.252 1.4,-3.765 1.974,-4.32 3.521,-5.468 5.464,-5.468 0.298,0 0.607,0.027 0.928,0.074 -1.42,0.699 -3.72,5.232 -5.78,9.221 m -7.369,-1.385 c -0.084,0.354 -0.166,0.694 -0.249,1.027 l -0.101,0.066 c -0.413,0.265 -0.787,0.583 -1.127,0.956 -0.108,-0.841 -0.297,-1.573 -0.514,-2.178 1.13,-5.207 2.748,-6.643 3.677,-7.044 -0.169,0.69 -0.45,2.111 -0.746,3.669 -0.39,1.206 -0.676,2.402 -0.94,3.504 m 5.448,21.771 c 0.992,1.252 1.689,3.065 1.425,4.829 -1.785,-0.105 -3.489,-1.277 -4.596,-2.33 0.576,-0.275 1.077,-0.769 1.321,-1.474 0.024,-0.067 0.093,-0.269 0.093,-0.269 0,0 0.156,-0.013 0.208,-0.019 0.594,-0.064 1.138,-0.334 1.549,-0.737 M 7.614,-25.978 c 0.769,0.157 2.009,0.801 2.716,2.026 0.427,-0.344 0.921,-0.505 1.403,-0.505 1.005,0 1.96,0.703 2.157,1.929 0.366,-0.23 0.753,-0.333 1.129,-0.333 1.315,0 2.489,1.265 2.125,2.759 0.081,-0.006 0.16,-0.009 0.239,-0.009 1.964,0 2.855,1.987 1.86,3.437 1.718,0.582 1.964,3.214 -0.041,4.08 0.991,1.672 -0.184,3.39 -1.867,3.39 -0.075,0 -0.151,-0.004 -0.228,-0.011 -0.15,1.352 -1.242,2.006 -2.168,2.006 h -0.008 c -1.107,-0.004 -2.183,-0.863 -2.183,-2.197 -1.526,-0.005 -2.158,-1.36 -2.158,-2.17 0,-0.893 0.73,-1.942 1.975,-2.156 0.213,0.512 0.558,1.039 1.216,1.34 -0.321,1.023 0.188,1.866 0.539,2.447 0.076,0.125 0.488,0.895 0.488,0.895 0,0 0.563,-0.668 0.662,-0.773 0.465,-0.496 1.138,-1.215 1.037,-2.282 1.047,-0.234 1.522,-1.097 1.85,-1.692 0.07,-0.127 0.531,-0.869 0.531,-0.869 0,0 -0.86,-0.154 -1.001,-0.187 -0.343,-0.08 -0.731,-0.17 -1.15,-0.17 -0.136,0 -0.267,0.01 -0.393,0.029 0.15,-1.472 -0.236,-2.813 -1.154,-3.996 -2.012,-2.595 -6.156,-3.815 -9.53,-3.909 -0.057,-0.322 -0.13,-0.597 -0.189,-0.789 -0.137,-0.451 -0.375,-1.278 -0.597,-2.06 0.526,-0.199 1.63,-0.457 2.74,-0.23 M 25.142,-11.1 c -0.462,-0.793 -1.185,-1.49 -2.116,-2.035 -0.146,-0.085 -0.749,-0.398 -0.903,-0.474 0,0 0.535,-0.098 0.714,-0.138 0.529,-0.118 1.047,-0.371 1.556,-0.673 0.734,-0.437 1.419,-1.021 1.884,-1.605 4.523,0.677 5.908,1.725 7.533,3.016 -1.59,0.833 -3.862,1.679 -8.668,1.909 M 6.497,-20.332 C 6.437,-20.521 6.375,-20.709 6.314,-20.892 6.132,-21.44 5.96,-21.958 5.858,-22.438 L 5.849,-22.481 H 5.85 c 4.748,0.196 10.688,2.643 10.066,7.596 -0.185,0.067 -0.36,0.158 -0.525,0.276 -0.146,-0.158 -0.303,-0.281 -0.463,-0.38 0.226,-3.86 -4.112,-5.287 -8.431,-5.343 m 0.471,2.836 c 0.07,-0.793 -0.107,-1.623 -0.343,-2.422 3.338,0.063 5.918,0.925 7.116,2.387 0.537,0.657 0.798,1.442 0.782,2.342 -0.483,-0.181 -0.949,-0.181 -1.218,-0.181 -0.104,0 -1.321,-0.022 -1.321,-0.022 0,0 0.297,0.822 0.339,0.961 0.028,0.093 0.059,0.193 0.092,0.296 -0.594,0.073 -1.005,0.395 -1.005,0.395 0.098,-0.798 10e-4,-1.778 -0.407,-2.39 -0.84,-1.259 -2.524,-1.365 -4.035,-1.366 m 7.961,10.699 h 0.01 c 0.208,0 0.421,-0.027 0.63,-0.08 0.451,0.952 1.021,2.609 0.857,4.103 -4.198,-1.774 -5.898,-4.972 -5.955,-7.64 0.333,0.663 0.956,1.26 1.89,1.392 0.043,0.311 0.135,0.593 0.267,0.845 0.279,0.53 0.477,0.727 1.05,1.056 0.382,0.219 0.822,0.323 1.251,0.324 m -2.342,-8.157 c 0.053,0.002 0.109,0.003 0.167,0.003 0.17,0 0.356,-0.007 0.551,-0.007 0.694,0 1.493,0.093 2.024,0.946 0.446,-0.463 0.936,-0.599 1.408,-0.599 0.542,0 1.062,0.179 1.471,0.248 -0.416,0.654 -0.806,1.858 -2.187,1.905 0.382,1.327 -0.642,2.071 -1.135,2.667 -0.359,-0.686 -1.207,-1.626 -0.557,-2.845 -1.341,-0.333 -1.472,-1.592 -1.742,-2.318 m 13.381,-1.344 c -0.745,0.945 -2.516,2.338 -4.502,2.338 -0.173,0 -0.347,-0.011 -0.523,-0.033 0.067,-0.251 0.097,-0.515 0.086,-0.787 -0.007,-0.184 -0.012,-0.344 -0.068,-0.552 -0.038,-0.146 -0.097,-0.274 -0.133,-0.364 -0.199,-0.492 -0.556,-0.898 -1.008,-1.164 v -0.001 c 0.745,-0.339 1.568,-0.47 2.368,-0.47 1.696,0 3.284,0.589 3.78,1.033 m 3.312,-2.209 c 2.867,0.369 3.887,1.307 4.115,2.372 -0.634,-0.307 -2.538,-0.454 -4.826,-0.454 -0.725,0 -1.487,0.015 -2.26,0.044 l -0.066,-0.059 c -0.129,-0.116 -0.309,-0.234 -0.528,-0.348 1.28,-0.477 2.212,-0.86 2.75,-1.129 0.281,-0.142 0.553,-0.284 0.815,-0.426 m -6.019,-3.285 c -0.374,1.554 -1.504,3.209 -3.255,4.366 0.124,-0.584 0.049,-1.196 -0.234,-1.731 -0.015,-0.028 -0.101,-0.179 -0.118,-0.206 -0.036,-0.055 -0.116,-0.158 -0.157,-0.21 -0.439,-0.55 -1.109,-0.881 -1.87,-0.941 1.047,-0.67 2.657,-1.374 4.482,-1.374 0.376,0 0.761,0.03 1.152,0.096 m -2.456,8.192 c 1.781,0.462 3.517,1.533 4.21,3.162 -0.929,0.514 -1.701,0.739 -2.621,0.739 -0.756,0 -1.611,-0.153 -2.735,-0.421 0.311,-0.555 0.416,-1.187 0.253,-1.802 -0.033,-0.126 -0.153,-0.499 -0.153,-0.499 0.474,-0.294 0.832,-0.702 1.046,-1.179 m -1.832,-13.815 c 0.617,2.359 -0.076,4.441 -1.397,6.283 -0.077,-0.407 -0.249,-0.794 -0.512,-1.128 -0.122,-0.155 -0.271,-0.344 -0.626,-0.571 -0.427,-0.272 -0.98,-0.442 -1.419,-0.442 -0.164,0 -0.328,0.017 -0.491,0.05 1.079,-2.127 2.683,-3.691 4.445,-4.192 m -8.41,2.826 c 0.365,-0.184 0.761,-0.281 1.17,-0.281 0.177,0 0.349,0.018 0.515,0.054 0.133,0.027 0.266,0.066 0.446,0.132 0.628,0.23 1.119,0.742 1.398,1.386 0.653,-2.659 0.725,-4.971 -0.445,-6.585 -1.623,1.046 -2.487,2.876 -3.084,5.294 m -31.829,23.87 c -1.459,0.804 -3.207,1.405 -4.749,1.405 -0.102,0 -0.202,-0.003 -0.302,-0.008 0.338,-1.62 0.982,-2.843 2.092,-4.004 0.49,-0.512 2.383,-2.04 4.235,-3.465 -0.145,0.676 -0.185,1.394 -0.078,2.13 0.014,0.091 0.062,0.371 0.062,0.371 0,0 0.275,-0.016 0.37,-0.021 1.792,-0.089 3.377,-1.164 4.368,-2.005 -0.149,0.393 -0.29,0.836 -0.399,1.301 -0.535,0.433 -1.223,0.993 -2.078,1.689 -0.867,0.705 -1.752,1.425 -2.406,1.955 -0.388,0.237 -0.766,0.459 -1.115,0.652 m -3.135,-9.981 c -2.387,0.88 -5.85,2.215 -6.839,2.919 -0.244,-1.244 0.83,-2.225 2.825,-3.354 1.105,0.198 2.421,0.35 4.014,0.435 m 0.219,4.922 c -2.405,0.636 -3.878,0.814 -4.842,0.814 -0.55,0 -0.935,-0.058 -1.233,-0.122 1.132,-2.265 4.456,-4.325 5.888,-5.07 l 0.142,0.079 c 1.001,0.554 1.844,0.79 2.82,0.79 0.262,0 0.533,-0.014 0.819,-0.049 0.686,-0.086 1.004,-0.153 1.952,-0.369 -0.49,0.645 -0.943,1.465 -1.218,2.384 -1.28,0.545 -2.845,1.151 -4.328,1.543 m 1.192,0.832 c -2.374,1.545 -3.934,2.656 -4.509,3.488 -0.464,-1.028 -0.113,-2.02 1.248,-3.414 0.659,-0.129 1.382,-0.298 2.174,-0.508 0.92,-0.243 1.875,-0.569 2.763,-0.907 -0.601,0.472 -1.177,0.932 -1.676,1.341 m 12.044,-23.887 c 0.189,-1.999 0.861,-3.383 1.256,-3.93 1.629,1.574 2.511,4.365 2.86,6.345 -1.837,0.456 -2.402,1.602 -2.402,1.602 0,0 -0.261,-1.008 -0.3,-1.136 -0.183,-0.591 -0.395,-1.108 -0.622,-1.575 -0.236,-0.487 -0.5,-0.92 -0.792,-1.306 m -0.733,26.978 c -2.226,1.9 -6.769,5.138 -11.856,5.561 0.415,-1.406 1.698,-3.211 2.761,-4.049 0.652,-0.513 3.2,-2.594 4.982,-4.04 -0.086,0.546 -0.119,1.109 -0.057,1.653 0.015,0.136 0.074,0.538 0.074,0.538 0,0 0.369,-0.15 0.496,-0.203 2.416,-1.004 4.236,-2.593 5.279,-4.555 0.863,-1.622 1.138,-3.56 0.744,-5.153 -0.047,-0.189 -0.134,-0.414 -0.228,-0.592 3.329,2.552 1.687,7.53 -2.195,10.84 m -14.719,-21.408 c -1.564,-1.129 -4.301,-2.935 -5.955,-2.999 0.691,-0.57 1.536,-0.88 2.577,-0.88 1.207,0 2.678,0.418 4.475,1.328 0.696,0.854 1.465,1.665 2.306,2.426 0.069,0.066 0.502,0.53 1.062,1.134 -0.138,0.015 -0.275,0.033 -0.41,0.056 l -0.398,0.068 c -0.903,-0.312 -2.432,-0.828 -3.222,-1.03 -0.144,-0.037 -0.29,-0.071 -0.435,-0.103 m -6.122,0.527 c 0.52,-0.19 1.639,-0.448 3.126,-0.448 0.973,0 2.104,0.11 3.329,0.423 0.834,0.213 2.547,0.797 3.397,1.092 0.313,1.275 1.054,2.499 2.086,3.506 0.126,0.122 0.503,0.487 0.503,0.487 -0.194,-0.016 -0.921,-0.067 -1.122,-0.067 -1.091,0 -2.182,0.237 -2.99,0.551 -1.182,-0.435 -2.422,-0.916 -3.102,-1.257 -2.951,-1.482 -4.694,-2.979 -5.227,-4.287 m 3.352,-12.919 c 3.96,1.09 6.593,2.76 10.582,9.243 -0.101,0.973 0,1.943 0.303,2.895 0.179,0.56 0.403,1.124 0.738,1.662 0.092,0.148 0.316,0.523 0.316,0.523 0,0 -0.494,-0.221 -0.687,-0.307 -1.052,-0.465 -2.141,-0.661 -3.206,-0.661 -0.096,0 -0.191,0.002 -0.287,0.006 -0.705,-0.76 -1.248,-1.344 -1.307,-1.397 -4.344,-3.93 -6.087,-8.583 -6.452,-11.964 m 12.148,8.168 c -1.17,-4.081 -3.046,-10.938 -1.81,-14.354 4.208,3.324 4.968,7.921 5.89,11.641 l -0.054,0.075 c -0.672,0.928 -0.996,2.082 -0.991,3.529 10e-4,0.337 0.024,0.691 0.059,1.064 0.023,0.238 0.092,0.934 0.092,0.934 0,0 -0.443,-0.568 -0.593,-0.76 -0.752,-0.961 -1.653,-1.68 -2.593,-2.129 m -8.916,-11.671 c 0.321,-0.047 0.629,-0.074 0.928,-0.074 1.943,0 3.49,1.148 5.464,5.468 0.235,0.513 0.815,2.105 1.4,3.765 0.217,0.82 0.434,1.597 0.637,2.309 -0.121,-0.045 -0.243,-0.087 -0.366,-0.122 l -0.405,-0.115 -0.106,0.407 c -0.042,0.159 -0.078,0.319 -0.109,0.478 -0.286,-0.458 -0.567,-0.892 -0.842,-1.303 -0.337,-0.652 -0.641,-1.242 -0.821,-1.592 -2.06,-3.989 -4.36,-8.522 -5.78,-9.221 m 12.209,4.332 c -0.295,-1.558 -0.577,-2.979 -0.746,-3.669 0.929,0.401 2.547,1.837 3.676,7.044 -0.216,0.605 -0.405,1.337 -0.513,2.178 -0.34,-0.373 -0.715,-0.691 -1.128,-0.956 l -0.1,-0.066 c -0.083,-0.333 -0.165,-0.673 -0.249,-1.027 -0.264,-1.102 -0.55,-2.298 -0.94,-3.504 m -2.959,26.012 c 0.052,0.006 0.208,0.019 0.208,0.019 0,0 0.069,0.202 0.093,0.269 0.245,0.705 0.745,1.199 1.321,1.474 -1.107,1.053 -2.811,2.225 -4.596,2.33 -0.263,-1.764 0.433,-3.577 1.425,-4.829 0.411,0.403 0.955,0.673 1.549,0.737 m 12.799,-16.934 c -0.223,0.782 -0.46,1.609 -0.597,2.06 -0.059,0.192 -0.132,0.467 -0.189,0.789 -3.374,0.094 -7.517,1.314 -9.531,3.909 -0.917,1.183 -1.303,2.524 -1.153,3.996 -0.126,-0.019 -0.257,-0.029 -0.392,-0.029 -0.42,0 -0.808,0.09 -1.151,0.17 -0.141,0.033 -1.001,0.187 -1.001,0.187 0,0 0.461,0.742 0.531,0.869 0.328,0.595 0.803,1.458 1.85,1.692 -0.101,1.067 0.572,1.786 1.037,2.282 0.099,0.105 0.662,0.773 0.662,0.773 0,0 0.413,-0.77 0.488,-0.895 0.351,-0.581 0.86,-1.424 0.539,-2.447 0.659,-0.301 1.002,-0.828 1.217,-1.34 1.243,0.214 1.974,1.263 1.974,2.156 0,0.81 -0.632,2.165 -2.158,2.17 0,1.334 -1.077,2.193 -2.183,2.197 h -0.008 c -0.925,0 -2.018,-0.654 -2.169,-2.006 -0.076,0.007 -0.153,0.011 -0.227,0.011 -1.683,0 -2.859,-1.718 -1.867,-3.39 -2.006,-0.866 -1.759,-3.498 -0.041,-4.08 -0.995,-1.45 -0.104,-3.437 1.861,-3.437 0.077,0 0.157,0.003 0.238,0.009 -0.364,-1.494 0.81,-2.759 2.125,-2.759 0.376,0 0.762,0.103 1.129,0.333 0.197,-1.226 1.152,-1.929 2.157,-1.929 0.482,0 0.976,0.161 1.403,0.505 0.708,-1.225 1.947,-1.869 2.717,-2.026 1.109,-0.227 2.212,0.031 2.739,0.23 m -28.936,12.739 c 1.625,-1.291 3.01,-2.339 7.533,-3.016 0.465,0.584 1.15,1.168 1.884,1.605 0.509,0.302 1.026,0.555 1.556,0.673 0.179,0.04 0.714,0.138 0.714,0.138 -0.154,0.076 -0.757,0.389 -0.903,0.474 -0.932,0.545 -1.653,1.242 -2.116,2.035 -4.806,-0.23 -7.078,-1.076 -8.668,-1.909 m 18.882,-1.98 c -0.16,0.099 -0.317,0.222 -0.463,0.38 -0.165,-0.118 -0.34,-0.209 -0.525,-0.276 -0.622,-4.953 5.318,-7.4 10.067,-7.596 l -0.009,0.043 c -0.102,0.48 -0.274,0.998 -0.456,1.546 -0.061,0.183 -0.123,0.371 -0.183,0.56 -4.319,0.056 -8.657,1.483 -8.431,5.343 m 3.925,-1.141 c -0.408,0.612 -0.505,1.592 -0.407,2.39 0,0 -0.411,-0.322 -1.006,-0.395 0.034,-0.103 0.065,-0.203 0.093,-0.296 0.042,-0.139 0.339,-0.961 0.339,-0.961 0,0 -1.216,0.022 -1.321,0.022 -0.27,0 -0.735,0 -1.218,0.181 -0.016,-0.9 0.245,-1.685 0.782,-2.342 1.198,-1.462 3.778,-2.324 7.116,-2.387 -0.236,0.799 -0.413,1.629 -0.342,2.422 -1.512,10e-4 -3.196,0.107 -4.036,1.366 m -2.675,9.009 c 0.572,-0.329 0.771,-0.526 1.05,-1.056 0.132,-0.252 0.224,-0.534 0.267,-0.845 0.934,-0.132 1.557,-0.729 1.89,-1.392 -0.058,2.668 -1.757,5.866 -5.955,7.64 -0.164,-1.494 0.406,-3.151 0.858,-4.103 0.208,0.053 0.42,0.08 0.629,0.08 h 0.009 c 0.43,-0.001 0.87,-0.105 1.252,-0.324 m -0.651,-5.515 c 0.65,1.219 -0.198,2.159 -0.557,2.845 -0.494,-0.596 -1.517,-1.34 -1.135,-2.667 -1.381,-0.047 -1.772,-1.251 -2.187,-1.905 0.409,-0.069 0.929,-0.248 1.472,-0.248 0.472,0 0.961,0.136 1.407,0.599 0.531,-0.853 1.33,-0.946 2.024,-0.946 0.195,0 0.381,0.007 0.551,0.007 0.058,0 0.114,-10e-4 0.167,-0.003 -0.27,0.726 -0.401,1.985 -1.742,2.318 m -7.859,-4.695 c 0.8,0 1.624,0.131 2.367,0.47 h 0.001 c -0.452,0.267 -0.809,0.673 -1.008,1.165 -0.036,0.09 -0.095,0.218 -0.134,0.364 -0.055,0.208 -0.06,0.368 -0.068,0.552 -0.01,0.272 0.02,0.536 0.087,0.787 -0.176,0.022 -0.35,0.033 -0.522,0.033 -1.988,0 -3.758,-1.393 -4.503,-2.338 0.496,-0.444 2.084,-1.033 3.78,-1.033 m -6.277,-0.75 c 0.538,0.269 1.47,0.652 2.75,1.129 -0.219,0.114 -0.399,0.232 -0.528,0.348 l -0.066,0.059 c -0.773,-0.029 -1.536,-0.044 -2.26,-0.044 -2.289,0 -4.192,0.147 -4.827,0.454 0.229,-1.065 1.249,-2.003 4.116,-2.372 0.262,0.142 0.533,0.284 0.815,0.426 m 6.356,-3.807 c 1.825,0 3.434,0.704 4.482,1.374 -0.762,0.06 -1.431,0.391 -1.87,0.941 -0.041,0.052 -0.121,0.155 -0.157,0.21 -0.017,0.027 -0.103,0.178 -0.118,0.206 -0.283,0.535 -0.358,1.147 -0.235,1.731 -1.75,-1.157 -2.88,-2.812 -3.255,-4.366 0.392,-0.066 0.777,-0.096 1.153,-0.096 m 2.35,9.467 c 0,0 -0.119,0.373 -0.153,0.499 -0.163,0.615 -0.057,1.247 0.253,1.802 -1.123,0.268 -1.98,0.421 -2.735,0.421 -0.92,0 -1.692,-0.225 -2.621,-0.739 0.693,-1.629 2.429,-2.7 4.21,-3.162 0.214,0.477 0.573,0.885 1.046,1.179 m 5.23,-10.802 c -0.162,-0.033 -0.325,-0.05 -0.49,-0.05 -0.439,0 -0.992,0.17 -1.419,0.442 -0.355,0.227 -0.505,0.416 -0.626,0.571 -0.263,0.334 -0.436,0.721 -0.512,1.128 -1.322,-1.842 -2.015,-3.924 -1.397,-6.283 1.763,0.501 3.366,2.065 4.444,4.192 m 0.882,-6.66 c -1.17,1.614 -1.098,3.926 -0.445,6.585 0.279,-0.644 0.77,-1.156 1.398,-1.386 0.18,-0.066 0.313,-0.105 0.446,-0.132 0.166,-0.036 0.338,-0.054 0.515,-0.054 0.409,0 0.805,0.097 1.17,0.281 -0.598,-2.418 -1.461,-4.248 -3.084,-5.294 m -1.303,-11.102 c 1.713,1.376 4.451,3.685 7.089,10.599 0.422,1.107 0.883,2.412 3.122,2.412 0.19,0 0.392,-0.009 0.607,-0.028 0.437,-1.382 0.985,-4.412 0.985,-6.798 0,-0.602 -0.017,-1.185 -0.05,-1.751 -1.902,-2.339 -2.919,-5.106 -3.341,-8.611 -1.678,0.504 -2.357,2.221 -2.313,4.446 -1.214,-0.532 -2.449,-0.81 -3.593,-0.81 -0.911,0 -1.764,0.175 -2.506,0.541" />
          </g>
          <g
             transform="translate(48.3625,83.1817)"
             id="g4051">
            <path
               inkscape:connector-curvature="0"
               id="path4053"
               style="fill:#ffcd00;fill-opacity:1;fill-rule:nonzero;stroke:none"
               d="m 0,0 c 0.321,0.039 0.664,0.057 1.049,0.057 0.778,0 1.589,-0.077 2.373,-0.152 0.74,-0.072 1.44,-0.139 2.071,-0.139 0.22,0 0.422,0.009 0.607,0.027 C 6.82,1.672 8.344,3.436 9.15,4.904 8.626,4.737 7.42,4.902 7.061,4.417 6.903,4.204 7.067,3.721 6.767,3.721 H 6.764 C 6.785,3.993 6.517,4.241 6.183,4.241 5.982,4.241 5.757,4.151 5.559,3.919 5.121,3.411 6.118,2.429 5.585,1.444 5.608,1.442 5.631,1.441 5.652,1.441 6.266,1.441 6.345,2.224 6.345,2.636 6.755,1.652 6.108,0.994 5.084,0.994 4.919,0.994 4.744,1.011 4.563,1.046 3.507,1.253 3.028,1.704 3.028,2.677 3.071,2.971 3.055,3.181 3.39,3.394 3.287,3.157 3.27,2.874 3.27,2.6 3.27,2.16 3.506,1.798 3.885,1.664 3.808,2.958 5.135,3.288 5.036,4.236 4.997,4.6 4.564,4.876 4.044,4.876 3.861,4.876 3.667,4.842 3.476,4.765 3.971,5.642 2.924,6.492 2.661,6.921 2.398,6.492 1.351,5.642 1.846,4.765 1.655,4.842 1.461,4.876 1.278,4.876 0.758,4.876 0.326,4.6 0.286,4.236 0.187,3.288 1.514,2.958 1.437,1.664 1.816,1.798 2.052,2.16 2.052,2.6 2.052,2.874 2.035,3.157 1.932,3.394 2.267,3.181 2.252,2.971 2.295,2.677 2.295,1.713 1.816,1.253 0.759,1.046 0.578,1.011 0.403,0.994 0.239,0.994 c -1.025,0 -1.672,0.658 -1.261,1.642 0,-0.412 0.079,-1.195 0.692,-1.195 0.022,0 0.044,10e-4 0.067,0.003 -0.532,0.985 0.464,1.967 0.026,2.475 -0.198,0.232 -0.422,0.322 -0.624,0.322 -0.333,0 -0.602,-0.248 -0.581,-0.52 h -0.003 c -0.299,0 -0.135,0.483 -0.293,0.696 -0.359,0.485 -1.566,0.32 -2.09,0.487 C -3.021,3.435 -1.495,1.67 -0.777,-0.211 -0.578,-0.113 -0.324,-0.039 0,0 m 15.18,-56.329 c -0.197,0 -0.382,0.015 -0.53,0.042 -0.009,-0.801 0.597,-1.237 1.345,-1.237 0.146,0 0.297,0.017 0.45,0.05 -0.235,0.423 -0.276,0.81 -0.295,1.289 -0.289,-0.103 -0.646,-0.144 -0.97,-0.144 m 6.781,-3.162 c -0.056,-0.476 -0.147,-0.86 -0.415,-1.263 0.2,-0.061 0.4,-0.091 0.589,-0.091 0.683,0 1.243,0.388 1.293,1.134 -0.119,-0.031 -0.251,-0.045 -0.386,-0.045 -0.378,0 -0.79,0.11 -1.081,0.265 m 4.694,2.301 c -0.212,0 -0.418,0.026 -0.594,0.074 0.052,-0.477 0.048,-0.872 -0.124,-1.324 0.053,-0.004 0.104,-0.006 0.156,-0.006 0.887,0 1.589,0.549 1.448,1.441 -0.248,-0.128 -0.572,-0.185 -0.886,-0.185 m 2.203,5.637 c -0.166,-0.438 -0.626,-0.869 -1.027,-1.07 0.356,-0.321 0.617,-0.617 0.792,-1.069 0.759,0.59 0.977,1.536 0.235,2.139 m -1.201,-4.301 c 0,0 0.033,0.082 0.108,0.318 0.21,0.649 -0.082,1.324 -0.613,1.662 -0.218,0.139 -0.488,0.223 -0.77,0.223 -0.386,0 -0.796,-0.158 -1.123,-0.549 -0.563,0.465 -0.943,0.471 -1.517,0.71 -0.697,0.29 -1.546,0.782 -2.026,1.11 0.642,-0.127 0.852,-0.218 1.259,-0.361 1.101,0.071 1.447,0.442 2.404,0.931 0.239,-0.304 0.724,-0.616 1.459,-0.616 0.184,0 0.383,0.019 0.598,0.063 0.605,0.123 0.955,0.621 1.224,1.05 0.169,0.271 -0.129,0.72 -0.648,0.499 0.002,0.761 -0.647,1.461 -1.507,1.461 -0.99,0 -1.426,-0.925 -1.426,-1.223 -0.089,0.004 -0.18,0.006 -0.273,0.006 -0.698,0 -1.469,-0.119 -2.012,-0.294 -0.128,-0.041 -1.217,-0.457 -1.985,-0.457 -0.219,0 -0.412,0.034 -0.549,0.12 -0.155,0.097 -0.303,0.237 -0.353,0.295 -2.298,2.485 -4.686,5.637 -5.54,6.788 -1.558,0.037 -2.949,0.591 -2.949,0.591 0,0 0,-1.473 -0.489,-2.401 2.14,-1.827 5.564,-4.697 6.275,-5.484 0.327,-0.361 0.395,-0.737 0.375,-1.045 -0.001,-0.142 -0.042,-0.383 -0.076,-0.56 -0.124,-0.064 -0.27,-0.118 -0.478,-0.118 -0.538,0 -0.959,0.442 -1.552,0.442 -0.024,0 -0.05,-0.001 -0.075,-0.002 -1.443,-0.092 -1.655,-1.596 -1.298,-2.08 0.104,-0.141 0.157,-0.2 0.261,-0.275 -0.408,-0.166 -0.426,-0.743 0.029,-0.848 0.241,-0.056 0.481,-0.08 0.707,-0.08 0.471,0 0.884,0.102 1.127,0.225 0.464,0.234 0.761,0.646 0.83,1.261 0.102,-0.021 0.405,-0.051 0.805,-0.051 0.477,0 1.034,0.031 1.609,0.18 -0.031,0.226 -0.081,0.472 -0.231,0.763 0.689,-0.54 0.761,-1.896 2.212,-3.227 -0.24,-0.582 -0.377,-1.488 0.329,-2.1 0.477,-0.414 1.041,-0.5 1.427,-0.5 0.158,0 0.286,0.014 0.367,0.026 0.474,0.073 0.485,0.646 0.164,0.818 0.122,0.104 0.177,0.165 0.296,0.304 0.557,0.642 0.265,2.272 -1.166,2.272 -0.112,10e-4 -0.232,-0.01 -0.359,-0.031 -0.803,1.325 -0.904,2.002 -2.276,3.395 0.323,-0.143 0.885,-0.496 1.196,-0.853 0.3,-0.167 0.646,-0.446 0.903,-0.676 0.936,-0.837 1.558,-1.059 2.533,-1.124 0,-0.591 0.461,-1.247 1.096,-1.458 0.205,-0.069 0.418,-0.097 0.627,-0.097 0.364,0 0.713,0.095 0.989,0.212 0.548,0.232 0.376,0.741 0.082,0.785 M -1.38,-1.547 h -0.384 c -2.69,0 -2.213,-2.673 -1.605,-3.281 0.263,0.369 0.667,0.525 1.084,0.525 0.417,0 0.849,-0.157 1.169,-0.413 0.212,0.041 0.419,0.06 0.619,0.06 1.393,0 2.426,-0.933 2.284,-2.036 -0.264,0.038 -0.838,0.148 -1.367,0.148 -0.202,0 -0.397,-0.016 -0.567,-0.058 -1.168,-0.292 -0.867,-1.097 -0.867,-1.097 0,0 0.695,0.313 1.35,0.313 0.073,0 0.145,-0.004 0.216,-0.013 0.476,-0.057 1.029,-0.208 1.491,-0.208 0.552,0 0.973,0.215 0.973,1.063 0,1.66 -2.142,1.669 -3.224,2.758 -0.412,0.415 -0.556,1.13 -0.606,1.64 -0.254,0.133 -0.469,0.344 -0.566,0.599 m -9.448,-54.638 c -0.019,-0.479 -0.06,-0.866 -0.296,-1.289 0.154,-0.033 0.305,-0.05 0.451,-0.05 0.748,0 1.354,0.436 1.346,1.237 -0.149,-0.027 -0.333,-0.042 -0.531,-0.042 -0.323,0 -0.681,0.041 -0.97,0.144 m -6.892,-3.571 c -0.136,0 -0.266,0.014 -0.386,0.045 0.05,-0.746 0.611,-1.134 1.293,-1.134 0.19,0 0.389,0.03 0.589,0.091 -0.268,0.403 -0.359,0.787 -0.415,1.263 -0.291,-0.155 -0.703,-0.265 -1.081,-0.265 m -4.499,2.751 c -0.141,-0.892 0.561,-1.441 1.448,-1.441 0.051,0 0.103,0.002 0.156,0.006 -0.172,0.452 -0.176,0.847 -0.124,1.324 -0.175,-0.048 -0.382,-0.074 -0.594,-0.074 -0.314,0 -0.638,0.057 -0.886,0.185 m -1.081,3.313 c 0.174,0.452 0.435,0.748 0.791,1.069 -0.401,0.201 -0.861,0.632 -1.027,1.07 -0.741,-0.603 -0.523,-1.549 0.236,-2.139 m 0.965,-2.162 c 0,0 -0.032,0.082 -0.108,0.318 -0.21,0.649 0.082,1.324 0.613,1.662 0.218,0.139 0.488,0.223 0.77,0.223 0.387,0 0.797,-0.158 1.124,-0.549 0.561,0.465 0.942,0.471 1.516,0.71 0.698,0.29 1.547,0.782 2.026,1.11 -0.642,-0.127 -0.852,-0.218 -1.259,-0.361 -1.101,0.071 -1.446,0.442 -2.404,0.931 -0.238,-0.304 -0.723,-0.616 -1.459,-0.616 -0.184,0 -0.383,0.019 -0.598,0.063 -0.604,0.123 -0.955,0.621 -1.223,1.05 -0.17,0.271 0.128,0.72 0.647,0.499 -0.002,0.761 0.647,1.461 1.508,1.461 0.989,0 1.425,-0.925 1.425,-1.223 0.089,0.004 0.18,0.006 0.273,0.006 0.698,0 1.47,-0.119 2.012,-0.294 0.128,-0.041 1.218,-0.457 1.985,-0.457 0.219,0 0.412,0.034 0.549,0.12 0.155,0.097 0.303,0.237 0.353,0.295 2.298,2.485 4.687,5.637 5.541,6.788 1.557,0.037 2.948,0.591 2.948,0.591 0,0 0,-1.473 0.489,-2.401 -2.14,-1.827 -5.564,-4.697 -6.275,-5.484 -0.327,-0.361 -0.394,-0.737 -0.375,-1.045 10e-4,-0.142 0.042,-0.383 0.076,-0.56 0.125,-0.064 0.27,-0.118 0.478,-0.118 0.539,0 0.959,0.442 1.552,0.442 0.025,0 0.05,-0.001 0.075,-0.002 1.443,-0.092 1.655,-1.596 1.298,-2.08 -0.103,-0.141 -0.156,-0.2 -0.261,-0.275 0.408,-0.166 0.427,-0.743 -0.028,-0.848 -0.241,-0.056 -0.481,-0.08 -0.708,-0.08 -0.471,0 -0.884,0.102 -1.127,0.225 -0.463,0.234 -0.76,0.646 -0.83,1.261 -0.102,-0.021 -0.405,-0.051 -0.805,-0.051 -0.477,0 -1.034,0.031 -1.609,0.18 0.031,0.226 0.081,0.472 0.231,0.763 -0.689,-0.54 -0.761,-1.896 -2.212,-3.227 0.241,-0.582 0.378,-1.488 -0.329,-2.1 -0.477,-0.414 -1.041,-0.5 -1.427,-0.5 -0.157,0 -0.286,0.014 -0.366,0.026 -0.474,0.073 -0.486,0.646 -0.164,0.818 -0.123,0.104 -0.178,0.165 -0.298,0.304 -0.556,0.642 -0.264,2.272 1.167,2.272 0.113,10e-4 0.232,-0.01 0.359,-0.031 0.804,1.325 0.904,2.002 2.276,3.395 -0.324,-0.143 -0.885,-0.496 -1.195,-0.853 -0.302,-0.167 -0.647,-0.446 -0.903,-0.676 -0.937,-0.837 -1.558,-1.059 -2.533,-1.124 0,-0.591 -0.462,-1.247 -1.096,-1.458 -0.205,-0.069 -0.418,-0.097 -0.627,-0.097 -0.365,0 -0.714,0.095 -0.99,0.212 -0.547,0.232 -0.376,0.741 -0.082,0.785" />
          </g>
        </g>
      </g>
    </g>
  </g>
</svg>
