<?xml version="1.0" encoding="UTF-8" standalone="no"?>
<!-- Created with Inkscape (http://www.inkscape.org/) -->

<svg
   xmlns:dc="http://purl.org/dc/elements/1.1/"
   xmlns:cc="http://creativecommons.org/ns#"
   xmlns:rdf="http://www.w3.org/1999/02/22-rdf-syntax-ns#"
   xmlns:svg="http://www.w3.org/2000/svg"
   xmlns="http://www.w3.org/2000/svg"
   xmlns:sodipodi="http://sodipodi.sourceforge.net/DTD/sodipodi-0.dtd"
   xmlns:inkscape="http://www.inkscape.org/namespaces/inkscape"
   width="773.30969"
   height="271.11237"
   viewBox="0 0 204.60228 71.730909"
   version="1.1"
   id="svg8"
   inkscape:version="0.92.3 (2405546, 2018-03-11)"
   sodipodi:docname="rsk.svg">
  <defs
     id="defs2">
    <clipPath
       id="clipPath3889"
       clipPathUnits="userSpaceOnUse">
      <path
         inkscape:connector-curvature="0"
         id="path3887"
         d="M 0,0 H 383.919 V 107.787 H 0 Z" />
    </clipPath>
    <clipPath
       id="clipPath4161"
       clipPathUnits="userSpaceOnUse">
      <path
         inkscape:connector-curvature="0"
         id="path4159"
         d="M 0,500 H 640 V 0 H 0 Z" />
    </clipPath>
  </defs>
  <sodipodi:namedview
     id="base"
     pagecolor="#ffffff"
     bordercolor="#43b9ff"
     borderopacity="1"
     inkscape:pageopacity="0.0"
     inkscape:pageshadow="2"
     inkscape:zoom="0.7"
     inkscape:cx="-363.99634"
     inkscape:cy="448.3848"
     inkscape:document-units="px"
     inkscape:current-layer="layer1"
     showgrid="false"
     inkscape:pagecheckerboard="true"
     showborder="true"
     inkscape:showpageshadow="false"
     borderlayer="false"
     units="px"
     fit-margin-top="0"
     fit-margin-left="0"
     fit-margin-right="0"
     fit-margin-bottom="0" />
  <metadata
     id="metadata5">
    <rdf:RDF>
      <cc:Work
         rdf:about="">
        <dc:format>image/svg+xml</dc:format>
        <dc:type
           rdf:resource="http://purl.org/dc/dcmitype/StillImage" />
        <dc:title></dc:title>
      </cc:Work>
    </rdf:RDF>
  </metadata>
  <g
     inkscape:label="Layer 1"
     inkscape:groupmode="layer"
     id="layer1"
     transform="translate(-391.67772,-211.02871)">
    <g
       transform="matrix(0.35277332,0,0,-0.35277332,381.09138,337.92109)"
       inkscape:label="Logo_RSK_MONO_JASNE_TÅO"
       id="g4153">
      <g
         id="g4155">
        <g
           clip-path="url(#clipPath4161)"
           id="g4157">
          <g
             transform="translate(134.3205,172.9467)"
             id="g4163">
            <path
               inkscape:connector-curvature="0"
               id="path4165"
               style="fill:#231f20;fill-opacity:1;fill-rule:nonzero;stroke:none"
               d="m 0,0 c -0.173,0.15 -0.388,0.276 -0.65,0.375 -0.679,0.256 -1.425,0.236 -2.151,0.255 -4.836,0.125 -9.295,2.173 -12.799,5.444 -3.973,3.709 -7.603,7.216 -13.483,6.201 -8.914,-1.539 -14.223,-11.922 -10.149,-20.015 2.484,-4.935 7.871,-7.981 13.354,-8.659 8.36,-1.034 19.862,2.334 24.491,9.891 C -0.509,-5.074 1.68,-1.45 0,0" />
          </g>
          <g
             transform="translate(30.0525,266.2599)"
             id="g4167">
            <path
               inkscape:connector-curvature="0"
               id="path4169"
               style="fill:#231f20;fill-opacity:1;fill-rule:nonzero;stroke:none"
               d="m 0,0 c 0.291,7.122 2.176,13.762 9.968,15.296 2.309,0.454 4.745,0.529 6.979,-0.213 7.628,-2.531 7.272,-12.847 6.001,-19.205 -0.823,-4.113 -1.545,-18.646 0.735,-26.05 2.281,-7.404 7.217,-23.034 14.62,-31.534 7.404,-8.501 11.243,-12.888 14.534,-15.63 3.29,-2.742 4.387,-7.678 0,-11.517 -4.388,-3.839 -10.146,-0.549 -17.001,5.484 -13.353,11.75 -23.657,26.907 -29.635,43.662 -3.005,8.422 -4.914,17.239 -5.593,26.158 C 0.332,-9.926 -0.199,-4.867 0,0" />
          </g>
          <g
             transform="translate(202.765,264.2859)"
             id="g4171">
            <path
               inkscape:connector-curvature="0"
               id="path4173"
               style="fill:#231f20;fill-opacity:1;fill-rule:nonzero;stroke:none"
               d="m 0,0 c -2.272,2.174 -4.88,4.668 -6.277,9.221 -2.011,6.552 0.083,12.156 0.747,13.858 0.722,1.851 2.331,5.828 6.283,8.853 5.527,4.231 13.76,5.16 20.59,1.842 C 29.371,29.873 33.402,21.101 32.585,13.391 32.133,9.12 30.274,5.934 29.021,4.159 c 0,0 -0.366,-1.326 -2.194,-0.549 C 24.999,4.387 18.007,5.941 13.573,4.342 9.14,2.742 5.941,0.686 5.027,-0.777 4.899,-0.983 4.486,-1.611 3.755,-1.82 2.547,-2.164 1.187,-1.136 0,0" />
          </g>
          <g
             transform="translate(174.8412,183.8963)"
             id="g4175">
            <path
               inkscape:connector-curvature="0"
               id="path4177"
               style="fill:#231f20;fill-opacity:1;fill-rule:nonzero;stroke:none"
               d="m 0,0 c 0,0 16.635,14.625 25.776,31.077 3.405,6.129 5.202,13.109 6.423,19.968 0.794,4.459 1.251,8.819 1.417,13.336 0.083,2.254 0.423,4.6 1.715,6.45 2.45,3.509 7.183,4.062 11.102,3.572 3.686,-0.461 9.276,-1.697 10.416,-5.844 0.408,-1.485 0.3,-3.06 0.131,-4.591 C 54.529,41.751 43.752,21.696 28.701,5.484 25.452,1.985 22.147,-0.566 15.539,-5.667 9.505,-10.324 6.956,-11.704 4.169,-11.096 1.518,-10.518 -1.672,-8.071 -1.846,-4.735 -1.969,-2.368 -0.52,-0.584 0,0" />
          </g>
          <g
             transform="translate(65.4768,300.0642)"
             id="g4179">
            <path
               inkscape:connector-curvature="0"
               id="path4181"
               style="fill:#231f20;fill-opacity:1;fill-rule:nonzero;stroke:none"
               d="m 0,0 c -7.583,9.669 -8.693,22.656 -2.879,32.546 7.469,12.705 22.383,13.528 23.582,13.573 11.458,0.437 19.242,-6.136 20.977,-7.678 8.839,14.795 25.238,23.048 41.406,20.84 23.424,-3.198 36.822,-26.908 35.373,-40.309 -1.645,-15.218 -4.524,-20.565 -6.992,-24.267 -2.468,-3.702 -12.431,-3.839 -13.619,2.833 -1.189,6.673 4.113,11.7 2.833,18.555 -0.759,4.069 -2.952,11.083 -9.08,15.999 -7.62,6.113 -16.213,5.713 -18.935,5.527 -2.923,-0.2 -9.076,-0.708 -14.739,-5.416 -6.272,-5.214 -7.785,-12.124 -8.158,-14.19 0,0 0,-4.67 -3.159,-6.661 -1.285,-0.81 -2.607,-0.858 -3.148,-0.88 -0.28,-0.012 -3.328,-0.087 -5.484,2.194 -0.711,0.752 -1.039,1.458 -1.508,2.467 -1.006,2.165 -1.101,3.696 -1.371,4.799 -0.898,3.673 -4.524,5.873 -5.944,6.734 -4.364,2.647 -8.683,2.15 -9.96,2.041 C 4.799,27.473 6.992,10.883 8.501,7.73 10.009,4.576 13.162,2.108 8.775,-1.868 4.387,-5.844 0,0 0,0" />
          </g>
          <g
             transform="translate(75.7597,235.2652)"
             id="g4183">
            <path
               inkscape:connector-curvature="0"
               id="path4185"
               style="fill:#231f20;fill-opacity:1;fill-rule:nonzero;stroke:none"
               d="m 0,0 -5.21,34.276 c 0,0 -3.291,9.909 7.678,12.358 10.968,2.45 62.52,10.33 62.52,10.33 0,0 9.117,2.403 12.065,-3.493 2.948,-5.895 1.25,-8.089 1.379,-11.654 0.129,-3.565 0,-4.182 0,-4.182 0,0 -0.145,-0.891 1.912,0.069 2.056,0.96 15.424,5.279 15.424,5.279 0,0 6.376,1.165 8.569,-1.646 1.248,-1.598 1.963,-2.952 2.348,-4.302 0.435,-1.525 0.402,-2.769 0.394,-3.17 -0.057,-3.167 -0.33,-22.254 -0.754,-48.467 -0.311,-1.46 -1.132,-4.166 -3.496,-5.758 -2.247,-1.513 -4.706,-1.338 -8.912,-0.617 -2.399,0.411 -13.299,3.565 -13.299,3.565 L 79.453,-31.74 c 0,0 -0.412,-4.799 -5.005,-4.867 -4.593,-0.069 -45.862,1.645 -45.862,1.645 0,0 -5.621,1.508 -5.621,7.198 0,5.69 5.69,6.307 5.69,6.307 l 36.95,0.823 -0.548,14.876 c 0,0 -0.069,2.673 3.016,5.072 3.085,2.4 5.141,2.057 7.952,1.44 2.811,-0.617 13.779,-3.907 13.779,-3.907 l -0.548,26.34 c 0,0 -13.231,-5.843 -17.481,-5.706 -4.251,0.137 -8.569,3.153 -8.844,7.061 -0.274,3.907 -0.891,13.505 -0.891,13.505 L 13.025,31.671 14.396,-0.96 c 0,0 -1.165,-5.347 -6.101,-5.964 C 3.359,-7.541 0.443,-2.912 0,0" />
          </g>
          <g
             transform="translate(285.8492,307.978)"
             id="g4187">
            <path
               inkscape:connector-curvature="0"
               id="path4189"
               style="fill:#231f20;fill-opacity:1;fill-rule:nonzero;stroke:none"
               d="m 0,0 h -4.436 v 7.954 h 4.387 c 0.643,0 2.972,-0.55 2.972,-4.205 C 2.923,0.093 0,0 0,0 m 4.431,-4.156 c 1.052,0.275 2.467,1.37 3.474,3.105 1.007,1.739 0.914,5.163 0.914,5.163 0.231,9.507 -8.5,8.868 -8.5,8.868 h -10.558 v -28.245 h 5.852 V -5.07 h 2.967 l 3.886,-10.195 h 6.358 z" />
          </g>
          <g
             transform="translate(315.819,212.6609)"
             id="g4191">
            <path
               inkscape:connector-curvature="0"
               id="path4193"
               style="fill:#231f20;fill-opacity:1;fill-rule:nonzero;stroke:none"
               d="m 0,0 h -4.436 v 7.954 h 4.387 c 0.643,0 2.972,-0.55 2.972,-4.205 C 2.923,0.093 0,0 0,0 m 4.431,-4.156 c 1.052,0.275 2.467,1.37 3.474,3.105 1.007,1.739 0.914,5.163 0.914,5.163 0.231,9.507 -8.5,8.868 -8.5,8.868 h -10.558 v -28.245 h 5.852 V -5.07 h 2.967 l 3.886,-10.195 h 6.358 z" />
          </g>
          <g
             transform="translate(436.3739,260.1298)"
             id="g4195">
            <path
               inkscape:connector-curvature="0"
               id="path4197"
               style="fill:#231f20;fill-opacity:1;fill-rule:nonzero;stroke:none"
               d="m 0,0 h -4.436 v 7.954 h 4.387 c 0.643,0 2.972,-0.55 2.972,-4.205 C 2.923,0.093 0,0 0,0 m 4.431,-4.156 c 1.052,0.275 2.467,1.37 3.474,3.105 1.007,1.739 0.914,5.163 0.914,5.163 0.231,9.507 -8.5,8.868 -8.5,8.868 h -10.558 v -28.245 h 5.852 V -5.07 h 2.967 l 3.886,-10.195 h 6.358 z" />
          </g>
          <g
             transform="translate(320.7263,310.3543)"
             id="g4199">
            <path
               inkscape:connector-curvature="0"
               id="path4201"
               style="fill:#231f20;fill-opacity:1;fill-rule:nonzero;stroke:none"
               d="m 0,0 v -4.068 c 0,-0.884 -0.005,-1.769 -0.005,-2.653 0,0 0.319,-6.76 -4.662,-6.76 -4.982,0 -4.933,6.623 -4.933,6.623 v 6.676 c 0,0 -0.187,6.028 4.8,6.028 C 0.182,5.846 0,0 0,0 m 4.476,5.846 c 0,0 -1.602,4.982 -9.276,4.982 -7.679,0 -9.325,-5.252 -9.325,-5.252 -1.695,-3.149 -1.508,-10.194 -1.42,-11.978 0.094,-1.778 0.551,-7.217 3.842,-10.007 3.287,-2.786 10.234,-1.965 12.43,-0.865 2.191,1.096 4.889,3.287 5.301,11.378 C 6.441,2.191 4.476,5.846 4.476,5.846" />
          </g>
          <g
             transform="translate(424.378,310.2612)"
             id="g4203">
            <path
               inkscape:connector-curvature="0"
               id="path4205"
               style="fill:#231f20;fill-opacity:1;fill-rule:nonzero;stroke:none"
               d="m 0,0 v -4.068 c 0,-0.884 -0.005,-1.769 -0.005,-2.653 0,0 0.319,-6.76 -4.662,-6.76 -4.982,0 -4.933,6.622 -4.933,6.622 v 6.677 c 0,0 -0.187,6.028 4.8,6.028 C 0.182,5.846 0,0 0,0 m 4.476,5.846 c 0,0 -1.602,4.982 -9.276,4.982 -7.679,0 -9.325,-5.252 -9.325,-5.252 -1.695,-3.149 -1.508,-10.194 -1.42,-11.978 0.094,-1.778 0.551,-7.217 3.842,-10.007 3.287,-2.786 10.234,-1.965 12.43,-0.865 2.191,1.096 4.889,3.287 5.301,11.378 C 6.441,2.191 4.476,5.846 4.476,5.846" />
          </g>
          <g
             transform="translate(408.692,262.1879)"
             id="g4207">
            <path
               inkscape:connector-curvature="0"
               id="path4209"
               style="fill:#231f20;fill-opacity:1;fill-rule:nonzero;stroke:none"
               d="m 0,0 v -4.068 c 0,-0.884 -0.005,-1.769 -0.005,-2.653 0,0 0.319,-6.76 -4.662,-6.76 -4.982,0 -4.933,6.623 -4.933,6.623 v 6.676 c 0,0 -0.187,6.028 4.8,6.028 C 0.182,5.846 0,0 0,0 m 4.476,5.846 c 0,0 -1.602,4.982 -9.276,4.982 -7.679,0 -9.325,-5.252 -9.325,-5.252 -1.695,-3.149 -1.508,-10.194 -1.42,-11.978 0.094,-1.778 0.551,-7.217 3.842,-10.007 3.287,-2.786 10.234,-1.965 12.43,-0.865 2.191,1.096 4.889,3.287 5.301,11.378 C 6.441,2.191 4.476,5.846 4.476,5.846" />
          </g>
          <g
             transform="translate(338.111,320.6819)"
             id="g4211">
            <path
               inkscape:connector-curvature="0"
               id="path4213"
               style="fill:#231f20;fill-opacity:1;fill-rule:nonzero;stroke:none"
               d="M 0,0 V -5.027 L 10.9,-4.89 -0.343,-24.199 v -4.113 h 18.921 v 5.141 L 6.855,-23.239 18.029,-4.045 18.166,0 Z" />
          </g>
          <g
             transform="translate(366.3547,320.6819)"
             id="g4215">
            <path
               inkscape:connector-curvature="0"
               id="path4217"
               style="fill:#231f20;fill-opacity:1;fill-rule:nonzero;stroke:none"
               d="m 0,0 4.707,-28.312 h 7.404 l 4.205,21.594 4.067,-21.594 h 7.541 L 32.654,0 H 26.553 L 23.788,-20.2 19.972,0 H 12.751 L 8.866,-20.2 6.101,0 Z" />
          </g>
          <g
             transform="translate(452.294,225.6792)"
             id="g4219">
            <path
               inkscape:connector-curvature="0"
               id="path4221"
               style="fill:#231f20;fill-opacity:1;fill-rule:nonzero;stroke:none"
               d="m 0,0 4.707,-28.312 h 7.404 l 4.205,21.594 4.067,-21.594 h 7.541 L 32.654,0 H 26.553 L 23.788,-20.2 19.972,0 H 12.751 L 8.866,-20.2 6.101,0 Z" />
          </g>
          <g
             transform="translate(487.2818,273.0662)"
             id="g4223">
            <path
               inkscape:connector-curvature="0"
               id="path4225"
               style="fill:#231f20;fill-opacity:1;fill-rule:nonzero;stroke:none"
               d="m 0,0 4.707,-28.312 h 7.404 l 4.205,21.594 4.067,-21.594 h 7.541 L 32.654,0 H 26.553 L 23.788,-20.2 19.972,0 H 12.751 L 8.866,-20.2 6.101,0 Z" />
          </g>
          <g
             transform="translate(418.9347,326.9202)"
             id="g4227">
            <path
               inkscape:connector-curvature="0"
               id="path4229"
               style="fill:#231f20;fill-opacity:1;fill-rule:nonzero;stroke:none"
               d="M 0,0 H 5.964 L 3.77,-3.976 h -5.689 z" />
          </g>
          <g
             transform="translate(471.1719,262.7274)"
             id="g4231">
            <path
               inkscape:connector-curvature="0"
               id="path4233"
               style="fill:#231f20;fill-opacity:1;fill-rule:nonzero;stroke:none"
               d="m 0,0 v -4.068 c 0,-0.884 -0.005,-1.769 -0.005,-2.653 0,0 0.319,-6.76 -4.662,-6.76 -4.982,0 -4.933,6.622 -4.933,6.622 v 6.677 c 0,0 -0.187,6.028 4.8,6.028 C 0.182,5.846 0,0 0,0 m 4.476,5.846 c 0,0 -1.602,4.982 -9.276,4.982 -7.679,0 -9.325,-5.252 -9.325,-5.252 -1.695,-3.149 -1.508,-10.194 -1.42,-11.978 0.094,-1.778 0.551,-7.217 3.842,-10.007 3.287,-2.786 10.234,-1.965 12.43,-0.865 2.191,1.096 4.889,3.287 5.301,11.378 C 6.441,2.191 4.476,5.846 4.476,5.846" />
          </g>
          <g
             transform="translate(465.7285,279.3864)"
             id="g4235">
            <path
               inkscape:connector-curvature="0"
               id="path4237"
               style="fill:#231f20;fill-opacity:1;fill-rule:nonzero;stroke:none"
               d="M 0,0 H 5.964 L 3.77,-3.976 h -5.689 z" />
          </g>
          <g
             transform="translate(452.0457,320.6819)"
             id="g4239">
            <path
               inkscape:connector-curvature="0"
               id="path4241"
               style="fill:#231f20;fill-opacity:1;fill-rule:nonzero;stroke:none"
               d="m 0,0 h 5.69 v -20.977 c 0,0 0.411,-7.743 -7.952,-7.743 -8.364,0 -8.524,5.344 -8.615,7.103 -0.091,1.76 -0.16,2.993 -0.16,2.993 l 5.507,0.046 0.069,-2.056 c 0,0 0.003,-3.017 2.789,-3.017 2.786,0 2.558,3.222 2.558,3.222 z" />
          </g>
          <g
             transform="translate(335.2318,273.1063)"
             id="g4243">
            <path
               inkscape:connector-curvature="0"
               id="path4245"
               style="fill:#231f20;fill-opacity:1;fill-rule:nonzero;stroke:none"
               d="M 0,0 H 5.827 V -11.037 L 12.819,0 h 7.13 l -7.952,-11.448 7.952,-16.727 h -6.376 l -5.278,11.448 -2.468,-3.428 v -8.02 H 0 Z" />
          </g>
          <g
             transform="translate(275.6586,225.6107)"
             id="g4247">
            <path
               inkscape:connector-curvature="0"
               id="path4249"
               style="fill:#231f20;fill-opacity:1;fill-rule:nonzero;stroke:none"
               d="M 0,0 H 5.827 V -11.037 L 12.819,0 h 7.13 l -7.952,-11.448 7.952,-16.727 h -6.376 l -5.278,11.448 -2.468,-3.427 v -8.021 H 0 Z" />
          </g>
          <g
             transform="translate(306.5082,273.1063)"
             id="g4251">
            <path
               inkscape:connector-curvature="0"
               id="path4253"
               style="fill:#231f20;fill-opacity:1;fill-rule:nonzero;stroke:none"
               d="M 0,0 H 17.207 V -5.004 H 5.827 v -6.17 h 9.597 v -5.21 H 5.896 v -6.718 h 11.311 v -5.073 H 0 Z" />
          </g>
          <g
             transform="translate(336.6028,225.6678)"
             id="g4255">
            <path
               inkscape:connector-curvature="0"
               id="path4257"
               style="fill:#231f20;fill-opacity:1;fill-rule:nonzero;stroke:none"
               d="M 0,0 H 17.207 V -5.004 H 5.827 v -6.17 h 9.597 v -5.21 H 5.896 v -6.718 h 11.311 v -5.073 H 0 Z" />
          </g>
          <g
             transform="translate(364.6409,273.0161)"
             id="g4259">
            <path
               inkscape:connector-curvature="0"
               id="path4261"
               style="fill:#231f20;fill-opacity:1;fill-rule:nonzero;stroke:none"
               d="M 0,0 H 18.989 V -4.982 H 12.477 V -28.085 H 6.513 V -4.982 H 0 Z" />
          </g>
          <g
             transform="translate(393.9062,225.6227)"
             id="g4263">
            <path
               inkscape:connector-curvature="0"
               id="path4265"
               style="fill:#231f20;fill-opacity:1;fill-rule:nonzero;stroke:none"
               d="M 0,0 H 18.989 V -4.982 H 12.477 V -28.085 H 6.513 V -4.982 H 0 Z" />
          </g>
          <g
             transform="translate(373.005,208.2533)"
             id="g4267">
            <path
               inkscape:connector-curvature="0"
               id="path4269"
               style="fill:#231f20;fill-opacity:1;fill-rule:nonzero;stroke:none"
               d="M 0,0 2.363,10.283 4.731,0 Z m 6.51,17.367 -8.156,0.049 -7.06,-28.175 h 6.24 l 1.37,5.689 h 6.785 l 1.509,-5.689 h 6.239 z" />
          </g>
          <g
             transform="translate(421.5854,225.6227)"
             id="g4271">
            <path
               inkscape:connector-curvature="0"
               id="path4273"
               style="fill:#231f20;fill-opacity:1;fill-rule:nonzero;stroke:none"
               d="M 0,0 H 6.535 L 11.243,-12.477 15.859,0 h 6.398 l -8.089,-19.789 v -8.296 h -5.85 v 8.478 z" />
          </g>
          <g
             transform="translate(526.8824,225.6227)"
             id="g4275">
            <path
               inkscape:connector-curvature="0"
               id="path4277"
               style="fill:#231f20;fill-opacity:1;fill-rule:nonzero;stroke:none"
               d="M 0,0 H 6.535 L 11.243,-12.477 15.859,0 h 6.398 l -8.089,-19.789 v -8.296 h -5.85 v 8.478 z" />
          </g>
          <g
             transform="translate(495.668,225.6227)"
             id="g4279">
            <path
               inkscape:connector-curvature="0"
               id="path4281"
               style="fill:#231f20;fill-opacity:1;fill-rule:nonzero;stroke:none"
               d="m 0,0 v -28.256 h 5.484 v 17.058 l 9.141,-17.058 H 20.84 V 0 H 15.196 L 15.367,-17.539 6.25,0 Z" />
          </g>
          <g
             transform="translate(589.9052,225.6227)"
             id="g4283">
            <path
               inkscape:connector-curvature="0"
               id="path4285"
               style="fill:#231f20;fill-opacity:1;fill-rule:nonzero;stroke:none"
               d="m 0,0 h 5.827 v -11.403 h 8.295 V 0 h 5.964 v -28.404 h -5.827 v 11.722 H 5.896 V -28.404 H 0 Z" />
          </g>
          <g
             transform="translate(572.6985,214.8365)"
             id="g4287">
            <path
               inkscape:connector-curvature="0"
               id="path4289"
               style="fill:#231f20;fill-opacity:1;fill-rule:nonzero;stroke:none"
               d="m 0,0 h 5.758 v 2.982 c 0,0 0.069,2.811 -1.953,5.347 -2.023,2.537 -5.656,2.742 -8.021,2.742 -2.365,0 -5.896,-0.308 -8.158,-3.153 -2.262,-2.845 -2.605,-7.278 -2.605,-11.334 0,-4.056 0.309,-8.409 2.228,-11.014 1.92,-2.605 4.182,-3.702 8.141,-3.702 3.959,0 6.838,0.583 8.62,3.085 1.783,2.502 1.749,5.004 1.749,5.004 v 1.919 l -5.862,0.035 c 0,0 0.686,-5.039 -4.182,-5.039 -4.867,0 -4.593,5.621 -4.593,5.621 v 7.027 c 0,0 -0.411,6.547 4.525,6.547 C 0.583,6.067 0,0 0,0" />
          </g>
          <g
             transform="translate(289.1301,263.0976)"
             id="g4291">
            <path
               inkscape:connector-curvature="0"
               id="path4293"
               style="fill:#231f20;fill-opacity:1;fill-rule:nonzero;stroke:none"
               d="m 0,0 h 5.861 c 0,0 0.412,3.839 -0.994,6.238 -1.405,2.4 -3.53,4.216 -9.014,4.216 -5.485,0 -7.918,-1.816 -9.461,-5.227 -1.542,-3.41 -0.103,-7.318 1.029,-8.415 1.131,-1.097 2.022,-2.331 6.272,-3.119 4.25,-0.788 6.547,-1.028 6.444,-4.079 -0.103,-3.05 -2.433,-3.325 -4.319,-3.325 -1.885,0 -4.25,0.926 -4.25,3.531 v 1.542 h -5.849 v -1.782 c 0,0 -0.389,-8.432 10.099,-8.432 10.489,0 10.283,7.815 10.283,7.815 l 0.001,2.026 c 0,0 0.171,3.492 -3.12,5.583 -3.29,2.091 -8.535,1.44 -10.317,3.257 -1.782,1.816 -0.686,4.387 0.445,4.97 1.132,0.582 1.521,0.651 2.8,0.651 C -2.811,5.45 0.103,5.347 0,0" />
          </g>
        </g>
      </g>
    </g>
  </g>
</svg>
